<svg xmlns="http://www.w3.org/2000/svg" width="60" height="59.712" viewBox="0 0 60 59.712">
    <g data-name="Group 6673">
        <path data-name="Path 8763" d="M15.775 3.9A7.575 7.575 0 0 0 8.2 11.474a6.911 6.911 0 0 0 2.193 5.183L47.27 53.533a7.575 7.575 0 0 0 10.764 0 7.238 7.238 0 0 0 2.193-5.183V12.072A8.422 8.422 0 0 0 51.854 3.7z" transform="translate(-.226 -3.7)" style="fill:#23db7b"/>
        <path data-name="Path 8764" d="M22.34 8.183 17.157 3h-5.182A7.744 7.744 0 0 0 4.2 10.575a6.911 6.911 0 0 0 2.193 5.183l5.382 5.382 18.339 18.138L35.3 44.66a7.575 7.575 0 0 0 10.764 0 7.7 7.7 0 0 0 2.193-5.382V34.1l-5.187-5.187z" transform="translate(-4.199 12.807)" style="fill:#64dbff"/>
        <path data-name="Path 8765" d="M42 9.279A6.211 6.211 0 0 0 35.816 3.1H10.7l5.183 5.183 20.93 20.93L42 34.4z" transform="translate(2.258 12.906)" style="fill:#00a551"/>
    </g>
</svg>
