<svg xmlns="http://www.w3.org/2000/svg" width="34" height="34" viewBox="0 0 34 34">
    <defs>
        <clipPath id="rfq5240wta">
            <circle data-name="Ellipse 371" cx="17" cy="17" r="17" style="stroke:#d1d6dd;fill:#fff"/>
        </clipPath>
    </defs>
    <g data-name="Mask Group 5" style="clip-path:url(#rfq5240wta)">
        <g data-name="mirae_groww (1)">
            <path data-name="Rectangle 3291" style="fill:#fff" d="M0 0h24.727v24.727H0z" transform="translate(5.409 4.636)"/>
            <g data-name="Group 4764">
                <g data-name="Group 4763">
                    <path data-name="Path 7733" d="M31.11 2.014c.485-.21.948-.444 1.41-.654-.6 2.546-2.681 4.414-4.924 5.581.6-.677 1.364-1.191 1.919-1.915a8.962 8.962 0 0 0 1.595-3.012z" transform="translate(-2.545 11.078)" style="stroke-width:.5px;fill:#f68026;stroke:#f68026"/>
                    <path data-name="Path 7734" d="M1.433.064h1.5c.116.887.231 1.752.37 2.616.37-.864.74-1.752 1.133-2.616h1.551a72.948 72.948 0 0 0-.208 4.577H4.623c.092-1.028.185-2.032.185-3.059-.532.981-.878 2.055-1.318 3.059-.3 0-.6 0-.9-.023-.09-1.028-.255-2.079-.371-3.13-.277 1.028-.439 2.1-.693 3.129-.37.023-.74.023-1.11.023.347-1.517.694-3.035 1.017-4.576zm5.5.023c.418-.023.834-.023 1.25-.023-.208 1.518-.439 3.036-.624 4.577H6.311c.208-1.518.439-3.036.624-4.554zm1.99-.023a7.575 7.575 0 0 1 2.612.21 1.4 1.4 0 0 1-.6 2.475c.3.607.6 1.261.9 1.892h-1.2c-.3-.724-.578-1.471-.925-2.149-.139.7-.208 1.425-.3 2.125-.37.023-.763.023-1.133.023.207-1.517.438-3.035.646-4.576zm5.016 0h1.5c.254 1.541.485 3.059.763 4.577h-1.177c-.023-.327-.069-.631-.092-.957-.485 0-.971.023-1.456.047l-.347.911h-1.2c.691-1.519 1.338-3.06 2.009-4.578zm3.167 0c.925.023 1.872.023 2.82 0-.023.327-.069.654-.092.981-.578 0-1.156-.023-1.734-.023-.046.28-.069.584-.093.864.509 0 1.017 0 1.526-.023-.023.327-.069.654-.092.957-.532 0-1.063-.023-1.595-.023-.046.3-.069.584-.116.864h1.734c-.023.327-.069.654-.116.957-.971.023-1.942 0-2.913.023.231-1.518.44-3.059.671-4.577zM2.011 6.79c.509 0 .994 0 1.5.023.092.584.185 1.168.277 1.775-.439-.117-.878-.234-1.318-.327-.324.3-.647.607-.971.934a38.277 38.277 0 0 0 6.334.163 1.765 1.765 0 0 1-1.479 2.125 2.638 2.638 0 0 1-2.054-.747c.185-.3.37-.631.555-.934.462.49 1.595 1.051 1.8.023-.9-.047-1.78-.047-2.658-.093.069.56.162 1.1.277 1.635H3.1c-.046-.4-.116-.771-.185-1.168H1.687c-.162.4-.324.771-.485 1.168H0C.67 9.849 1.341 8.308 2.011 6.79z" transform="translate(6.096 11.487)" style="fill:#00447b;stroke:#00447b;stroke-width:.5px"/>
                    <path data-name="Path 7735" d="M7.578 9.9a2.287 2.287 0 0 1 2.566.047c-.139.28-.277.584-.393.864-.439-.163-1.2-.7-1.387.047.139.467.717.607 1.063.864-.763-.023-1.549-.07-2.312-.093A1.76 1.76 0 0 1 7.578 9.9zm3.692-.152a2.4 2.4 0 0 1 2.312.187c-.116.3-.254.631-.393.934-.416-.163-.832-.631-1.271-.257-.277.56.393.747.717 1-.647.047-1.318.07-1.965.117a1.574 1.574 0 0 1 .599-1.985zm3.195.009h2.866l-.139.981h-1.757c0 .163-.046.444-.046.607-.393.07-.786.14-1.156.21.093-.61.167-1.194.231-1.801z" transform="translate(3.883 8.523)" style="fill:#00447b;stroke:#00447b;stroke-width:.5px"/>
                    <path data-name="Path 7736" d="M22.373 9.86a25.259 25.259 0 0 1 2.658.07c-.925.4-1.872.724-2.82 1.028.047-.374.116-.724.162-1.098z" transform="translate(-.859 8.417)" style="fill:#004079;stroke:#004079;stroke-width:.5px"/>
                    <path data-name="Path 7737" d="M13.2 12.265a27.16 27.16 0 0 0 9.06-2.405c-.069.35-.139.7-.208 1.074h-.9c-.162 1.144-.3 2.289-.485 3.433h-1.25c.185-1.074.3-2.149.462-3.223-.509.187-1.017.374-1.549.537-.046.28-.116.584-.185.864a12.121 12.121 0 0 0-1.595.023l-.069.841c.578-.023 1.156-.023 1.734-.023-.023.234-.092.724-.116.981a60.487 60.487 0 0 0-2.889 0c.069-.677.185-1.355.277-2.032a3.744 3.744 0 0 0-.509.047c-.046.56 0 1.261-.508 1.658a2.29 2.29 0 0 1-3.028-.3c.185-.3.393-.607.578-.911.393.28.809.677 1.341.584.393-.047.485-.7.069-.794a11.041 11.041 0 0 0-1.5.093c.046-.117.093-.35.139-.467a3.671 3.671 0 0 0 1.131.02z" transform="translate(2.513 8.417)" style="fill:#00447b;stroke:#00447b;stroke-width:.5px"/>
                    <path data-name="Path 7738" d="M14.168 2.553c.069-.42.139-.841.185-1.261.324.07.948-.023.925.49.115.654-.647.771-1.11.771zm4.115.631c.231-.584.462-1.168.717-1.728.092.584.162 1.144.231 1.7-.324.028-.624.028-.948.028z" transform="translate(1.659 11.1)" style="stroke:#fff;stroke-width:.5px;fill:#fff"/>
                </g>
            </g>
        </g>
    </g>
</svg>
