<svg xmlns="http://www.w3.org/2000/svg" width="36.807" height="40.897" viewBox="0 0 36.807 40.897">
  <defs>
    <style>
      .cls-1 {
        fill: #544ec8;
      }
    </style>
  </defs>
  <g id="Group_7502" data-name="Group 7502" transform="translate(-13.632 -11.742)">
    <path id="ic_mutual_fund_dark" class="cls-1" d="M8.8,40.9a.8.8,0,1,1,0-1.6h2.481A4.006,4.006,0,0,1,15.2,36.1h2.4v-.538a13.827,13.827,0,0,0-2.669-2.657H9.8A9.8,9.8,0,0,1,0,23.128V21.569a.8.8,0,0,1,1.1-.74,12.2,12.2,0,0,0,4.613.9H8.062A7.944,7.944,0,0,1,16,29.655v2.062a20.151,20.151,0,0,1,1.6,1.413V20.738a10.4,10.4,0,1,1,1.6,0V33.13a19.836,19.836,0,0,1,1.6-1.413V29.655a7.943,7.943,0,0,1,7.942-7.928h2.347a12.2,12.2,0,0,0,4.612-.9.8.8,0,0,1,1.1.74v1.559a9.8,9.8,0,0,1-9.8,9.781H21.873A13.845,13.845,0,0,0,19.2,35.566V36.1h2.4a4.006,4.006,0,0,1,3.92,3.195h2.481a.8.8,0,1,1,0,1.6Zm4.138-1.6H23.867A2.4,2.4,0,0,0,21.6,37.7H15.2A2.4,2.4,0,0,0,12.94,39.3ZM29.25,26.628a.8.8,0,0,1-.163,1.118c-1.308.974-2.569,1.845-3.682,2.615q-.7.486-1.368.951h2.972a8.2,8.2,0,0,0,8.2-8.184V22.7a13.818,13.818,0,0,1-4.114.621H28.746A6.343,6.343,0,0,0,22.4,29.655v.856c.662-.477,1.364-.962,2.089-1.463,1.157-.8,2.352-1.625,3.636-2.582a.8.8,0,0,1,1.12.163ZM1.6,23.128a8.2,8.2,0,0,0,8.2,8.184h2.972q-.664-.466-1.368-.95c-1.113-.77-2.374-1.642-3.682-2.615a.8.8,0,1,1,.957-1.281c1.285.957,2.48,1.783,3.637,2.582.725.5,1.426.986,2.088,1.463v-.856a6.342,6.342,0,0,0-6.34-6.331H5.715A13.824,13.824,0,0,1,1.6,22.7Zm8-12.744A8.8,8.8,0,1,0,18.4,1.6,8.8,8.8,0,0,0,9.6,10.384Zm20.8,14.857a.8.8,0,1,1,.8.8A.8.8,0,0,1,30.406,25.241Zm-25.606,0a.8.8,0,1,1,.8.8A.8.8,0,0,1,4.8,25.241ZM18.678,15l-3.622-4.217-.007-.855h1.7a2.438,2.438,0,0,0,1.387-.373,1.6,1.6,0,0,0,.677-.994H14.857l.314-1.08H18.8q-.328-1.3-2.01-1.354H14.871l.321-1.08h6.323L21.2,6.127H19.588a2.781,2.781,0,0,1,.553,1.354h1.374L21.2,8.561H20.162a2.451,2.451,0,0,1-.964,1.832,3.9,3.9,0,0,1-2.338.615l3.37,3.911V15Z" transform="translate(13.632 11.742)"/>
  </g>
</svg>
