<svg xmlns="http://www.w3.org/2000/svg" width="24" height="24" viewBox="0 0 24 24">
    <path data-name="Path 8122" d="M0 0h24v24H0z" style="fill:none"/>
    <path data-name="Path 8123" d="M19 3h-4.18a2.988 2.988 0 0 0-5.64 0H5a2.006 2.006 0 0 0-2 2v14a2.006 2.006 0 0 0 2 2h14a2.006 2.006 0 0 0 2-2V5a2.006 2.006 0 0 0-2-2zm-7 0a1 1 0 1 1-1 1 1 1 0 0 1 1-1zm1 14H8a1 1 0 0 1 0-2h5a1 1 0 0 1 0 2zm3-4H8a1 1 0 0 1 0-2h8a1 1 0 0 1 0 2zm0-4H8a1 1 0 0 1 0-2h8a1 1 0 0 1 0 2z" style="fill:#544ec8"/>
</svg>
