<svg xmlns="http://www.w3.org/2000/svg" width="30" height="30" viewBox="0 0 30 30">
    <g data-name="Group 6043">
        <g data-name="Group 6019">
            <path data-name="Path 9790" d="M33.169 40.921s5.406 3.028 10.442 3.028a26.015 26.015 0 0 0 10.074-2.523 55.291 55.291 0 0 0-.635-8.218c-.94-6.157-3.4-13.844-9.67-13.89-10.631-.077-10.211 21.603-10.211 21.603z" transform="translate(-28.263 -16.266)" style="fill:#53110a"/>
            <g data-name="Group 5888">
                <g data-name="Group 5873">
                    <g data-name="Group 5837">
                        <g data-name="Group 5835">
                            <g data-name="Group 5832">
                                <path data-name="Path 9746" d="M239.631 325.345c-4.422 0-8.006 3.885-8.006 6.816 0 6.662 3.585 15.058 8.006 15.058s8.006-8.4 8.006-15.058c.001-3.644-3.584-6.816-8.006-6.816z" transform="translate(-224.208 -321.933)" style="fill:#fbd2ab"/>
                            </g>
                        </g>
                        <path data-name="Path 9749" d="m234.731 140.126.2.179a.747.747 0 0 0-.951-.616 1.17 1.17 0 0 0-.755.982 2.884 2.884 0 0 0 .187 1.285 11.909 11.909 0 0 0 .558 1.4c.159.336.453.723.813.623.263-.073.384-.375.443-.643a4.582 4.582 0 0 0-.495-3.21z" transform="translate(-226.827 -127.082)" style="fill:#fbd2ab"/>
                        <path data-name="Path 9750" d="m264.018 140.126-.2.179a.747.747 0 0 1 .951-.616 1.17 1.17 0 0 1 .755.982 2.885 2.885 0 0 1-.187 1.285 11.925 11.925 0 0 1-.558 1.4c-.159.336-.453.723-.812.623-.264-.073-.384-.375-.443-.643a4.582 4.582 0 0 1 .494-3.21z" transform="translate(-240.929 -127.082)" style="fill:#fbd2ab"/>
                    </g>
                    <g data-name="Group 5870">
                        <path data-name="Path 9774" d="M147.17 158.835a20.027 20.027 0 0 0-2.109.019 2.321 2.321 0 0 0 4.218 0 20.02 20.02 0 0 0-2.109-.019z" transform="translate(-131.868 -137.904)" style="fill:#ff7584"/>
                        <path data-name="Path 9775" d="M147.091 158.224c-.213.072-.436.139-.458.142s-.245-.07-.459-.142c-.693-.237-1.65.381-2.143.165.054.193 1.106.249 2.1.437a3.479 3.479 0 0 0 .49.089h.014a3.479 3.479 0 0 0 .49-.089c1-.188 2.05-.243 2.1-.437-.483.211-1.441-.402-2.134-.165z" transform="translate(-131.331 -137.565)" style="fill:#ff8290"/>
                    </g>
                </g>
            </g>
            <g data-name="Group 5889">
                <path data-name="Path 9788" d="M35.46 18.867c.38 1.643-.745 3.269-2.058 4.348s-2.883 1.88-3.949 3.2c-1.4 1.735-3.619 1.759-3.617 3.981 0 .573-.218.379-1.236 2.331l-2.1 3.718c-.294-2.789.128-3.743.323-6.492a30.814 30.814 0 0 1 1.345-7.223 11.95 11.95 0 0 1 4.745-6.775 8.317 8.317 0 0 1 8.1-.654 9.243 9.243 0 0 1 4.374 5.793 27.056 27.056 0 0 1 .728 7.371V36.232c-.922-9.417-2.281-14.406-6.655-17.365z" transform="translate(-17.499 -12.015)" style="fill:#682c25"/>
                <path data-name="Path 9789" d="M56.479 36.6a18.239 18.239 0 0 0-1.823-14.013 14.684 14.684 0 0 0-1.724 1.28c-.275.488 0 .8.32 1.224a17.985 17.985 0 0 1 2.148 3.618 14.64 14.64 0 0 1 1.079 7.891z" transform="translate(-35.66 -16.251)" style="fill:#682c25"/>
            </g>
        </g>
    </g>
</svg>
