<svg xmlns="http://www.w3.org/2000/svg" width="95.867" height="101.673" viewBox="0 0 95.867 101.673">
    <g data-name="Group 5244">
        <path data-name="Path 8682" d="M2361.819 5127.429c1.323-6.254 7.746-21.547 18.014-15.643s14.332 7.068 24.052-2.708 26.815-10.295 23.8 5.574 12.784 10.808 13.9 10.315c7.26-3.2 35.123 18.584-14.527 39.556-47.636 20.118-70.904-10.328-65.239-37.094z" transform="translate(-2360.982 -5069.369)" style="fill:#ecf6f6"/>
        <path data-name="Path 8683" d="M2492.007 4909.248s6.027-18.495-21.278-19.2c-24.19-.627-20.726 22.7 7.392 24.036.001-.005 9.25.185 13.886-4.836z" transform="translate(-2440.13 -4890.031)" style="fill:#19456c"/>
        <path data-name="Path 8684" d="M2584.928 5226.974a23.089 23.089 0 0 1-7.745-15.193c-.152-1.7.123-3.8 1.693-4.479 1.4-.6 3 .338 3.987 1.5s1.677 2.6 2.9 3.513 3.3.97 3.993-.387c.532-1.039-.011-2.274-.465-3.351a21.215 21.215 0 0 1-1.642-8.976c.075-2.048 1.168-4.666 3.2-4.394 1.342.181 2.26 1.641 3.608 1.757 1.992.172 2.853-2.374 3.548-4.249.945-2.549 2.979-4.862 5.646-5.386s5.785 1.317 5.987 4.029c.164 2.222-1.461 4.64-.282 6.529.8 1.276 2.49 1.592 3.712 2.469a5.671 5.671 0 0 1 1.625 6.512 9.622 9.622 0 0 1-5 4.958 3.863 3.863 0 0 0-1.835 1.314 2.774 2.774 0 0 0 .536 2.929 14.68 14.68 0 0 1 1.919 2.5c1.227 2.67-1.214 5.562-3.641 7.221a33.922 33.922 0 0 1-9.471 4.507 15.135 15.135 0 0 1-6.952.683 7.276 7.276 0 0 1-5.47-3.983" transform="translate(-2543.736 -5141.308)" style="fill:#cde2e2"/>
        <path data-name="Path 8685" d="M2985.295 5251.656c-.062.323-.11.648-.143.971a14.465 14.465 0 0 0 1.271 7.587c.609 1.3 1.225 3.231-.069 3.861-.9.438-1.9-.271-2.733-.825-2.118-1.413-5.232-1.888-7.052-.109-1.639 1.6-1.494 4.408-.282 6.354a14.573 14.573 0 0 0 5.192 4.4 17.092 17.092 0 0 1 5.356 4.232l-.211-1.012a10.14 10.14 0 0 0 .676 1.689c18.438-13.096 6.995-24.451-2.005-27.148z" transform="translate(-2901.287 -5195.766)" style="fill:#cde2e2"/>
        <path data-name="Path 8686" d="M2633.418 5307.716a21.811 21.811 0 0 1-.014-14.255 34.427 34.427 0 0 1 7.5-12.317c2.217-2.439 4.7-4.671 6.512-7.422s2.914-6.207 1.979-9.366" transform="translate(-2590.292 -5206.502)" style="opacity:.46;fill:none;stroke:#fff;stroke-miterlimit:10"/>
        <g data-name="Group 5245">
            <path data-name="Path 7462" d="M2857.113 5328.391a22.715 22.715 0 0 1-7.328-9.22c-1.2-2.787-1.741-6.289.156-8.66 1.787-2.234 5.312-2.568 7.8-1.156a9.532 9.532 0 0 1 4.367 7.04 20.574 20.574 0 0 1-.946 8.466 6.268 6.268 0 0 1-1.364 2.776 2.338 2.338 0 0 1-2.84.5" transform="translate(-2773.317 -5243.831)" style="fill:#cde2e2"/>
            <path data-name="Path 7463" d="M2891.7 5388.433a21.2 21.2 0 0 0-1.921-20.209" transform="translate(-2808.049 -5294.317)" style="opacity:.46;fill:#cde2e2"/>
        </g>
        <path data-name="Path 8687" d="M2649.914 4962.472c1.12 2.894 1.662 5.868-.756 6.8s-6.866.009-7.985-2.885-.081-6.531 2.336-7.466 5.286.657 6.405 3.551z" transform="translate(-2597.487 -4948.05)" style="fill:#ebdbbb"/>
        <path data-name="Path 8688" d="M2453.308 5208.7s-6.347 14.181-11.467 20.828a2.278 2.278 0 0 1-2.281.836c-2.09-.449-7.292-.64-18.844 2.991-.661.207.618 2.7.618 2.7s20.537 2.936 24.093 1.854 20.247-23.184 20.247-23.184z" transform="translate(-2411.323 -5159.446)" style="fill:#ebdbbb"/>
        <path data-name="Path 8689" d="M2673.332 5264.356c.106-3.586-7.835-24.66-7.835-24.66s-13.389.773-12.925 4.019 13.91 20.641 13.91 20.641c-1.991 4.051-.475 17.056.191 21.968q1.576-.234 3.193-.525c1.012-5.494 3.383-18.625 3.466-21.443z" transform="translate(-2607.495 -5185.653)" style="fill:#ebdbbb"/>
        <path data-name="Path 8690" d="M2483.858 5034.628s-13.922 1.189-14.849 1.331a92.617 92.617 0 0 0-13.518-5.244l-.856 1.845s12.995 7.953 14.612 8.3c1.222.26 8.047-.258 10.812 0 .893.084 2.8.731 3.337.731.004-.003 3.104-2.253.462-6.963z" transform="translate(-2440.161 -5008.972)" style="fill:#ebdbbb"/>
        <path data-name="Path 8691" d="M2710.226 4956.174s6.75-3.13 10.717-4.958 9.531-12.519 9.531-12.519l1.854 1.546a37.587 37.587 0 0 1-9.119 13.6c-6.491 6.028-9.428 8.192-9.428 8.192s-4.406-4.026-3.555-5.861z" transform="translate(-2656.156 -4931.175)" style="fill:#ebdbbb"/>
        <path data-name="Path 8692" d="M2431.249 5001.444s-.794-2.753-1.108-2.649-.727.772-.572 1.081-.979.927-2.524-2.627-1.339 3.467 0 4.541a9.29 9.29 0 0 0 3.349 1.5z" transform="translate(-2415.918 -4979.836)" style="fill:#ebdbbb"/>
        <path data-name="Path 8693" d="M2847.133 4897.071s-.619-3.952 0-3.985 1.031 1.993 1.031 1.993a21.969 21.969 0 0 0 .824-3.514c.155-1.449 1.7 3.215 1.391 4.9a2.8 2.8 0 0 1-1.391 2.15z" transform="translate(-2771.764 -4891.095)" style="fill:#ebdbbb"/>
        <path data-name="Path 8694" d="M2551.636 5073.938s6.752-.972 14.89 5.928 20.714 0 20.714 0-2.064-25.074-6.394-35.293a9.547 9.547 0 0 1-2.357-6.421l-7.98 1.5-4.643 1.127s1.78 1.9-1.543 6.719c.001.002 1.532 8.512-12.687 26.44z" transform="translate(-2522.17 -5015.258)" style="fill:#ef5b5b"/>
        <path data-name="Path 8695" d="M2664.97 5019.431s.16 4.636.286 5.255 5.653.2 5.381-.884a33.1 33.1 0 0 0-2.713-4.785z" transform="translate(-2617.987 -4999.082)" style="fill:#ebdbbb"/>
        <path data-name="Path 8696" d="M2403.771 5367.4s-2.542 4.637-2.233 6.182c0 0-2.061.619-1.751-2.472a48.024 48.024 0 0 0-.032-6.6c.032-1.133 3.4.185 3.4.185z" transform="translate(-2393.76 -5290.79)" style="fill:#f3f1b2"/>
        <path data-name="Path 8697" d="M2638.789 4971.455s-.252 4.784 1.448 7.35c1.3 1.961 0 2.218 0 2.218s-5.216-6.479-1.448-9.568z" transform="translate(-2594.696 -4958.871)" style="fill:#19456c"/>
        <path data-name="Path 8698" d="M2640.723 4958.584s4.778-1.958 8.59-.257c0 0-4.095-5.667-8.59.257z" transform="translate(-2597.487 -4945.706)" style="fill:#19456c"/>
        <path data-name="Path 8699" d="M2413.043 5294.341a34.589 34.589 0 0 1-12.851-4.827 25.061 25.061 0 0 1-8.135-7.846 16.233 16.233 0 0 1-2.442-10.893 8.249 8.249 0 0 1 3.488-5.919 7.525 7.525 0 0 1 6.71-.174 16.856 16.856 0 0 1 5.5 4.2 46.061 46.061 0 0 1 10.36 17.7 8.542 8.542 0 0 1 .441 4.908c-.471 1.6-2.138 2.96-3.747 2.517" transform="translate(-2385.05 -5206.185)" style="fill:#cde2e2"/>
        <path data-name="Path 8700" d="M2468.076 5360.3c-.742-6.883-5.782-12.461-10.888-17.136s-10.734-9.25-13.368-15.652" transform="translate(-2431.017 -5259.901)" style="opacity:.46;fill:none;stroke:#fff;stroke-miterlimit:10"/>
    </g>
</svg>
