<svg xmlns="http://www.w3.org/2000/svg" width="68.434" height="70.829" viewBox="0 0 68.434 70.829">
    <path data-name="Rectangle 3544" style="fill:#4b7bec" d="M0 0h48.547v70.829H0z"/>
    <path data-name="Rectangle 3545" transform="translate(3.089 3.31)" style="fill:#f2f5ff" d="M0 0h42.369v63.38H0z"/>
    <path data-name="Rectangle 3546" transform="translate(12.624)" style="fill:#c4541c" d="M0 0h23.299v4.195H0z"/>
    <g data-name="Group 5487">
        <g data-name="Group 5485">
            <path data-name="Path 9332" d="M1100.891 846.881h-6.936v-6.936h6.936zm-6.353-.583h5.77v-5.77h-5.77z" transform="translate(-1087.633 -814.341)" style="fill:#cbd0e6"/>
        </g>
        <g data-name="Group 5486">
            <path data-name="Rectangle 3547" d="M.425 0h23.639a.425.425 0 0 1 .425.425.425.425 0 0 1-.425.425H.425A.425.425 0 0 1 0 .425.425.425 0 0 1 .425 0z" style="fill:#cbd0e6" transform="translate(17.936 27.171)"/>
            <path data-name="Path 9333" d="M1377.966 908.911h-23.639a.426.426 0 0 1-.425-.425.426.426 0 0 1 .425-.425h23.639a.426.426 0 0 1 .425.425.426.426 0 0 1-.425.425z" transform="translate(-1335.966 -879.414)" style="fill:#cbd0e6"/>
            <path data-name="Path 9334" d="M1369.987 941.961h-15.66a.426.426 0 0 1-.425-.425.426.426 0 0 1 .425-.425h15.66a.426.426 0 0 1 .425.425.426.426 0 0 1-.425.425z" transform="translate(-1335.966 -910.988)" style="fill:#cbd0e6"/>
        </g>
        <path data-name="Path 9335" d="M1128.954 808.023a39.859 39.859 0 0 1 1.59 4.044s1.91-5.511 3.782-6.924c0 0-3.2 2.483-3.888 4.152z" transform="translate(-1121.068 -781.094)" style="fill:#ff5300"/>
    </g>
    <g data-name="Group 5490">
        <g data-name="Group 5488">
            <path data-name="Path 9336" d="M1100.891 518.485h-6.936v-6.936h6.936zm-6.353-.583h5.77v-5.77h-5.77z" transform="translate(-1087.633 -500.617)" style="fill:#cbd0e6"/>
        </g>
        <g data-name="Group 5489">
            <path data-name="Rectangle 3548" d="M.425 0h23.639a.425.425 0 0 1 .425.425.425.425 0 0 1-.425.425H.425A.425.425 0 0 1 0 .425.425.425 0 0 1 .425 0z" style="fill:#cbd0e6" transform="translate(17.936 12.499)"/>
            <path data-name="Path 9337" d="M1377.966 580.515h-23.639a.426.426 0 0 1-.425-.425.426.426 0 0 1 .425-.425h23.639a.426.426 0 0 1 .425.425.426.426 0 0 1-.425.425z" transform="translate(-1335.966 -565.69)" style="fill:#cbd0e6"/>
            <path data-name="Path 9338" d="M1369.987 613.565h-15.66a.426.426 0 0 1-.425-.425.426.426 0 0 1 .425-.425h15.66a.426.426 0 0 1 .425.425.426.426 0 0 1-.425.425z" transform="translate(-1335.966 -597.264)" style="fill:#cbd0e6"/>
        </g>
        <path data-name="Path 9339" d="M1128.954 479.627a39.857 39.857 0 0 1 1.59 4.044s1.91-5.511 3.782-6.924c0 0-3.2 2.483-3.888 4.152z" transform="translate(-1121.068 -467.37)" style="fill:#ff5300"/>
    </g>
    <g data-name="Group 5494">
        <g data-name="Group 5491">
            <path data-name="Path 9340" d="M1377.966 1180.534h-23.639a.426.426 0 0 1-.425-.424.426.426 0 0 1 .425-.425h23.639a.426.426 0 0 1 .425.425.426.426 0 0 1-.425.424z" transform="translate(-1335.966 -1138.902)" style="fill:#cbd0e6"/>
            <path data-name="Path 9341" d="M1377.966 1213.585h-23.639a.426.426 0 0 1-.425-.425.426.426 0 0 1 .425-.425h23.639a.426.426 0 0 1 .425.425.426.426 0 0 1-.425.425z" transform="translate(-1335.966 -1170.476)" style="fill:#cbd0e6"/>
            <path data-name="Path 9342" d="M1369.987 1246.636h-15.66a.426.426 0 0 1-.425-.425.426.426 0 0 1 .425-.425h15.66a.426.426 0 0 1 .425.425.426.426 0 0 1-.425.425z" transform="translate(-1335.966 -1202.05)" style="fill:#cbd0e6"/>
        </g>
        <g data-name="Group 5493">
            <g data-name="Group 5492">
                <path data-name="Path 9343" d="M1100.891 1173.571h-6.936v-6.936h6.936zm-6.353-.583h5.77v-5.77h-5.77z" transform="translate(-1087.633 -1126.435)" style="fill:#cbd0e6"/>
            </g>
            <path data-name="Path 9344" d="M1128.954 1138.126a39.842 39.842 0 0 1 1.59 4.044s1.91-5.511 3.782-6.924c0 0-3.2 2.482-3.888 4.152z" transform="translate(-1121.068 -1096.448)" style="fill:#ff5300"/>
        </g>
    </g>
    <g data-name="Group 5497">
        <g data-name="Group 5495">
            <path data-name="Path 9345" d="M1100.891 1501.967h-6.936v-6.936h6.936zm-6.353-.583h5.77v-5.77h-5.77z" transform="translate(-1087.633 -1440.159)" style="fill:#cbd0e6"/>
        </g>
        <g data-name="Group 5496">
            <path data-name="Rectangle 3549" d="M.425 0h23.639a.425.425 0 0 1 .425.425.425.425 0 0 1-.425.425H.425A.425.425 0 0 1 0 .425.425.425 0 0 1 .425 0z" style="fill:#cbd0e6" transform="translate(17.936 55.456)"/>
            <path data-name="Path 9346" d="M1377.966 1541.982h-23.639a.426.426 0 0 1-.425-.425.426.426 0 0 1 .425-.425h23.639a.426.426 0 0 1 .425.425.426.426 0 0 1-.425.425z" transform="translate(-1335.966 -1484.2)" style="fill:#cbd0e6"/>
            <path data-name="Path 9347" d="M1369.987 1575.032h-15.66a.426.426 0 0 1-.425-.425.426.426 0 0 1 .425-.425h15.66a.426.426 0 0 1 .425.425.426.426 0 0 1-.425.425z" transform="translate(-1335.966 -1515.773)" style="fill:#cbd0e6"/>
        </g>
        <path data-name="Path 9348" d="M1128.954 1466.522a39.844 39.844 0 0 1 1.59 4.044s1.91-5.511 3.782-6.924c0 0-3.2 2.483-3.888 4.152z" transform="translate(-1121.068 -1410.172)" style="fill:#ff5300"/>
    </g>
    <g data-name="Group 5498">
        <path data-name="Path 9349" d="M1720.979 471.595s19.4-3.472 33.456.039c0 0 3.792 31.466-16.7 40.16-.001.001-20.135-7.439-16.756-40.199z" transform="translate(-1686.278 -460.985)" style="fill:#f4f5f6"/>
        <path data-name="Path 9350" d="M1777.331 527.582s17.794-2.283 28.659 0c0 0 3.628 25.556-13.938 35 0 .004-16.091-4.557-14.721-35z" transform="translate(-1740.397 -514.965)" style="fill:#544ec8"/>
        <path data-name="Path 9351" d="M1946.612 684.886h-5.332v-5.2h-4.88v5.2h-5.069v4.883h5.069v5.2h4.883v-5.2h5.332z" transform="translate(-1887.593 -661.242)" style="fill:#fff"/>
    </g>
</svg>
