<svg xmlns="http://www.w3.org/2000/svg" width="40" height="40" viewBox="0 0 40 40">
    <g transform="translate(-20 -569)">
        <circle data-name="Ellipse 434" cx="20" cy="20" r="20" transform="translate(20 569)" style="fill:#64dbff;opacity:.3"/>
        <path data-name="Path 7770" d="M0 0h25v25H0z" style="fill:none" transform="translate(27.5 576.5)"/>
        <path data-name="Subtraction 24" d="M6.26 12.518a6.259 6.259 0 1 1 6.258-6.261 6.267 6.267 0 0 1-6.258 6.261zM3.544 6.379l.006 1.048 2.866 3.359h1.96V10.7L5.788 7.636A3.349 3.349 0 0 0 7.424 6.9a2.333 2.333 0 0 0 .7-1.405h.882l.315-1.166H8.133a2.522 2.522 0 0 0-.354-.99h1.238l.307-1.178H3.75L3.4 3.6h1.613a1.243 1.243 0 0 1 1.272.73H3.71L3.4 5.5h2.92a1.274 1.274 0 0 1-1.375.881z" transform="translate(33.741 582.741)" style="fill:#544ec8"/>
        <path data-name="Path 8738" d="M60.282 7.245a.671.671 0 0 0 .919-.237 8.775 8.775 0 0 1 5.7-4.1.668.668 0 0 0 .784 1.058l2.685-1.341a.672.672 0 0 0 0-1.2L67.685.081a.671.671 0 1 0-.6 1.2l.32.16a10.134 10.134 0 0 0-7.359 4.884.671.671 0 0 0 .237.919z" transform="translate(-28.727 577.531)" style="fill:#544ec8"/>
        <path data-name="Path 8739" d="M221.465 348.377a.67.67 0 0 0-.919.237 8.775 8.775 0 0 1-5.7 4.1.666.666 0 0 0 .117-.758.674.674 0 0 0-.9-.3L211.377 353a.672.672 0 0 0 0 1.2l2.686 1.343a.671.671 0 1 0 .6-1.2l-.32-.16a10.134 10.134 0 0 0 7.357-4.883.671.671 0 0 0-.235-.923z" transform="translate(-173.019 244.847)" style="fill:#544ec8"/>
        <path data-name="Path 8740" d="M7 221.177a8.774 8.774 0 0 1-4.105-5.735.62.62 0 0 0 .765.153.671.671 0 0 0 .3-.9l-1.343-2.686a.7.7 0 0 0-1.2 0l-1.346 2.684a.671.671 0 0 0 1.2.6l.16-.32a10.134 10.134 0 0 0 4.884 7.359.671.671 0 1 0 .685-1.155z" transform="translate(28.542 375.349)" style="fill:#544ec8"/>
        <path data-name="Path 8741" d="M355.253 66.772a.672.672 0 0 0-.9.3l-.16.32a10.134 10.134 0 0 0-4.884-7.359.671.671 0 1 0-.682 1.157 8.775 8.775 0 0 1 4.1 5.7.668.668 0 0 0-1.058.784l1.343 2.686a.672.672 0 0 0 1.2 0l1.343-2.686a.671.671 0 0 0-.302-.902z" transform="translate(-304.164 520.285)" style="fill:#544ec8"/>
    </g>
</svg>
