<svg xmlns="http://www.w3.org/2000/svg" width="40" height="40" viewBox="0 0 40 40">
    <g transform="translate(-20 -370)">
        <circle data-name="Ellipse 400" cx="20" cy="20" r="20" transform="translate(20 370)" style="fill:#64dbff;opacity:.3"/>
        <path data-name="Path 7770" d="M0 0h25v25H0z" style="fill:none" transform="translate(27.5 377.5)"/>
        <path data-name="Path 8732" d="M32.831 9.766a1.822 1.822 0 0 0 1.269-.515l1.807.9a1.793 1.793 0 0 0-.022.222 1.831 1.831 0 1 0 3.662 0 1.809 1.809 0 0 0-.184-.784l2.451-2.451a1.809 1.809 0 0 0 .784.184 1.833 1.833 0 0 0 1.831-1.831 1.8 1.8 0 0 0-.091-.542l2.13-1.6a1.83 1.83 0 1 0-.817-1.523 1.8 1.8 0 0 0 .091.542l-2.13 1.6a1.823 1.823 0 0 0-2.661 2.307L38.5 8.729a1.8 1.8 0 0 0-2.052.331l-1.807-.9a1.793 1.793 0 0 0 .022-.222 1.831 1.831 0 1 0-1.831 1.831zm0 0" transform="translate(-.156 379.583)" style="fill:#544ec8"/>
        <path data-name="Path 8733" d="M20.223 163.509h-.651v-12.9a.61.61 0 0 0-.61-.61H16.52a.61.61 0 0 0-.61.61v12.9h-1.221v-9.237a.61.61 0 0 0-.61-.61h-2.442a.61.61 0 0 0-.61.61v9.237H9.806v-4.354a.61.61 0 0 0-.61-.61H6.755a.61.61 0 0 0-.61.61v4.354H4.924v-6.8a.61.61 0 0 0-.61-.61H1.872a.61.61 0 0 0-.61.61v6.8H.61a.61.61 0 1 0 0 1.221h19.613a.61.61 0 1 0 0-1.221zm0 0" transform="translate(29.583 235.687)" style="fill:#544ec8"/>
    </g>
</svg>
