<svg xmlns="http://www.w3.org/2000/svg" width="40" height="40" viewBox="0 0 40 40">
    <g transform="translate(-20 -1227)">
        <circle data-name="Ellipse 442" cx="20" cy="20" r="20" transform="translate(20 1227)" style="fill:#64dbff;opacity:.3"/>
        <path data-name="Path 7770" d="M0 0h25v25H0z" style="fill:none" transform="translate(27.5 1234.5)"/>
        <g data-name="noun_Payment Denied_417157">
            <path data-name="Path 8755" d="m14.344 5.405 2.867-2.867a1.626 1.626 0 0 1 2.324 0l2.889 2.889h-8.08zm1.195-2.693h-4.127a1.65 1.65 0 0 0-1.65 1.651v1.042h3.084zM15.93 22.3h4a1.594 1.594 0 0 0 1.585-1.585v-1.062H18.6zm-6.972-2.669 2.78 2.78a1.586 1.586 0 0 0 2.259 0l2.78-2.78zm12.01-8.1a1 1 0 1 0 1 1 1.011 1.011 0 0 0-1-1.001zm-10.512 0a1 1 0 1 0 1 1 1 1 0 0 0-.999-1.001zm14.769-3.259v8.47a1.65 1.65 0 0 1-1.651 1.651H7.851A1.65 1.65 0 0 1 6.2 16.742v-8.47a1.65 1.65 0 0 1 1.651-1.65h15.724a1.678 1.678 0 0 1 1.65 1.65zm-1.412 1.781a1.269 1.269 0 0 1-.413.043 1.673 1.673 0 0 1-1.672-1.672 2.661 2.661 0 0 1 .043-.413H9.545a1.434 1.434 0 0 1 .022.3 1.673 1.673 0 0 1-1.673 1.677 1.147 1.147 0 0 1-.282-.022v5.06A1.238 1.238 0 0 1 7.894 15a1.673 1.673 0 0 1 1.672 1.672 1.336 1.336 0 0 1-.022.3H21.75c0-.065-.022-.13-.022-.217a1.673 1.673 0 0 1 1.672-1.663 2.4 2.4 0 0 1 .413.043zm-4.5 2.476a3.605 3.605 0 1 1-3.605-3.605 3.61 3.61 0 0 1 3.61 3.605zm-1.976.934-.912-.912.912-.912-.695-.695-.934.89-.912-.912-.695.695.912.912-.912.912.695.695.912-.912.912.912z" transform="translate(24.633 1234.533)" style="fill:#544ec8"/>
        </g>
    </g>
</svg>
