<svg xmlns="http://www.w3.org/2000/svg" width="40" height="40" viewBox="0 0 40 40">
    <circle data-name="Ellipse 434" cx="20" cy="20" r="20" style="fill:#64dbff;opacity:.3"/>
    <path data-name="Path 7770" d="M0 0h25v25H0z" style="fill:none" transform="translate(7.5 7.5)"/>
    <g data-name="Group 5254" transform="translate(11.562 8.542)">
        <path data-name="Path 8711" d="M31.612 2.5H16.623a.725.725 0 0 0-.723.723v8.771a.725.725 0 0 0 .723.723h1.542a3.157 3.157 0 0 1-.385-2.317 2.359 2.359 0 0 0-.988-.386V5.2A2.049 2.049 0 0 0 18.6 3.392h11.011A2.1 2.1 0 0 0 31.419 5.2V10a2.359 2.359 0 0 0-.988.386 1.969 1.969 0 0 0-.7.892 1.932 1.932 0 0 0-.12.506h-7.277l.675.916h8.6a.725.725 0 0 0 .723-.723V3.223a.71.71 0 0 0-.72-.723z" transform="translate(-15.9 -2.5)" style="fill:#544ec8"/>
        <path data-name="Subtraction 19" d="M3.566 7.133a3.57 3.57 0 0 1-2.524-6.091 3.57 3.57 0 0 1 5.049 5.049 3.545 3.545 0 0 1-2.525 1.042zM2.242 3.608v.537l1.472 1.722h1.005v-.043L3.393 4.252a1.7 1.7 0 0 0 .838-.375 1.194 1.194 0 0 0 .362-.721h.452l.161-.6h-.612a1.275 1.275 0 0 0-.182-.507h.635l.158-.6H2.348l-.18.738h.826a.637.637 0 0 1 .653.373h-1.32l-.158.6h1.5a.654.654 0 0 1-.7.452z" transform="translate(4.602 1.446)" style="fill:#544ec8"/>
        <circle data-name="Ellipse 436" cx=".675" cy=".675" r=".675" transform="translate(2.121 4.434)" style="fill:#544ec8"/>
        <circle data-name="Ellipse 437" cx=".675" cy=".675" r=".675" transform="translate(12.964 4.434)" style="fill:#544ec8"/>
        <path data-name="Path 8713" d="M33.859 40.827a2.524 2.524 0 0 0-1.133.048.641.641 0 0 1-.6-.217l-1.253-1.687 3.35-4.482h-2.991l-1.47 1.976-1.47-1.976-.554-.747-.675-.916-.554-.747-1.4-1.88a2.123 2.123 0 0 0-.771 1.012 2.287 2.287 0 0 0-.169 1.133 2.254 2.254 0 0 0 .458 1.2l.169.217.554.747 3.35 4.512-1.253 1.687a.575.575 0 0 1-.6.217 3.05 3.05 0 0 0-1.325-.024 2.808 2.808 0 1 0 3.446 2.723 2.728 2.728 0 0 0-.41-1.446.586.586 0 0 1 .048-.651l1.2-1.615 1.2 1.615a.583.583 0 0 1 .048.651 2.813 2.813 0 1 0 5.205 1.133 2.942 2.942 0 0 0-2.4-2.483zM26.1 44.779a1.157 1.157 0 0 1-1.157-1.157 1.173 1.173 0 0 1 1.157-1.156 1.157 1.157 0 1 1 0 2.313zm3.663-6.241a.554.554 0 1 1 .554-.554.545.545 0 0 1-.555.554zm3.663 6.241a1.157 1.157 0 1 1 0-2.313 1.157 1.157 0 0 1 1.157 1.157 1.173 1.173 0 0 1-1.158 1.156z" transform="translate(-21.545 -23.525)" style="fill:#544ec8"/>
    </g>
</svg>
