<svg xmlns="http://www.w3.org/2000/svg" width="40" height="40" viewBox="0 0 40 40">
    <circle data-name="Ellipse 432" cx="20" cy="20" r="20" style="fill:#64dbff;opacity:.3"/>
    <path data-name="Path 7770" d="M0 0h25v25H0z" style="fill:none" transform="translate(7.5 7.5)"/>
    <path data-name="Path 8707" d="M37.229 4.937a10.548 10.548 0 0 0-6.115-3.128l.662-.662A.671.671 0 0 0 30.827.2l-1.7 1.7a.671.671 0 0 0 0 .949l1.7 1.7a.671.671 0 1 0 .949-.949l-.38-.38a9.259 9.259 0 1 1-4.911.363.671.671 0 1 0-.452-1.265 10.611 10.611 0 1 0 11.2 2.621z" transform="translate(-9.41 8.541)" style="fill:#544ec8"/>
    <path data-name="Subtraction 20" d="M6.9 13.8a6.9 6.9 0 1 1 6.9-6.9 6.907 6.907 0 0 1-6.9 6.9zM3.5 6.857v1.164l3.19 3.74h2.192v-.091L6 8.255a3.7 3.7 0 0 0 1.82-.814 2.59 2.59 0 0 0 .78-1.566h.983l.35-1.3H8.611a2.75 2.75 0 0 0-.4-1.1h1.381l.345-1.313h-6.2l-.391 1.6h1.791a1.382 1.382 0 0 1 1.417.811H3.687l-.343 1.3H6.6a1.422 1.422 0 0 1-1.532.982z" transform="translate(13.293 13.953)" style="fill:#544ec8"/>
</svg>
