<svg xmlns="http://www.w3.org/2000/svg" width="40" height="40" viewBox="0 0 40 40">
    <g transform="translate(-20 -1085)">
        <circle data-name="Ellipse 439" cx="20" cy="20" r="20" transform="translate(20 1085)" style="fill:#64dbff;opacity:.3"/>
        <path data-name="Path 7770" d="M0 0h25v25H0z" style="fill:none" transform="translate(27.5 1092.5)"/>
        <path data-name="Path 8729" d="M445.632 445.488z" transform="translate(-397.144 667.994)" style="fill:#544ec8"/>
        <path data-name="Subtraction 23" d="M11.464 22.915a2.158 2.158 0 0 1-.674-4.215v-1.044A6.128 6.128 0 0 1 7.572 16.3l-1.141 1.137a2.162 2.162 0 0 1-.386 2.514 2.134 2.134 0 0 1-1.525.633 2.18 2.18 0 0 1-1.56-3.7 2.145 2.145 0 0 1 1.528-.632 2.2 2.2 0 0 1 .994.238l1.148-1.151a6.235 6.235 0 0 1-1.314-3.209h-1.1a2.154 2.154 0 0 1-3.58.87 2.179 2.179 0 0 1 1.522-3.719 2.161 2.161 0 0 1 2.059 1.507h1.1A6.231 6.231 0 0 1 6.63 7.579l-1.148-1.15a2.193 2.193 0 0 1-1 .239 2.143 2.143 0 0 1-2.15-2.154 2.184 2.184 0 0 1 2.188-2.18 2.135 2.135 0 0 1 1.519.625 2.164 2.164 0 0 1 .394 2.523L7.572 6.62a6.1 6.1 0 0 1 3.218-1.358V4.216a2.163 2.163 0 1 1 2.2-3.589 2.156 2.156 0 0 1-.861 3.589v1.043a6.16 6.16 0 0 1 3.225 1.353l1.13-1.131a2.163 2.163 0 1 1 3.472.557 2.134 2.134 0 0 1-1.526.633h-.007a2.175 2.175 0 0 1-.988-.242L16.3 7.568a6.24 6.24 0 0 1 1.32 3.22h1.08a2.167 2.167 0 0 1 2.052-1.507 2.177 2.177 0 0 1 .01 4.354h-.006A2.135 2.135 0 0 1 19.23 13a2.2 2.2 0 0 1-.529-.869h-1.083a6.212 6.212 0 0 1-1.32 3.217l1.139 1.139a2.192 2.192 0 0 1 .994-.239 2.15 2.15 0 0 1 2.153 2.16 2.189 2.189 0 0 1-2.168 2.177H18.4a2.132 2.132 0 0 1-1.519-.627 2.163 2.163 0 0 1-.394-2.52L15.356 16.3a6.138 6.138 0 0 1-3.225 1.356V18.7a2.192 2.192 0 0 1 .861.523 2.151 2.151 0 0 1 .008 3.06 2.173 2.173 0 0 1-1.536.632zM8.922 11.742l.006.911 2.494 2.922h1.707V15.5l-2.255-2.672A2.885 2.885 0 0 0 12.3 12.2a2.043 2.043 0 0 0 .615-1.223h.768l.272-1.015h-1.04a2.179 2.179 0 0 0-.309-.863h1.078l.269-1.024H9.1l-.3 1.248h1.4a1.08 1.08 0 0 1 1.111.636H9.065L8.8 10.974h2.54a1.108 1.108 0 0 1-1.2.768z" style="fill:#544ec8" transform="translate(28.541 1093.542)"/>
    </g>
</svg>
