<svg xmlns="http://www.w3.org/2000/svg" width="40" height="40" viewBox="0 0 40 40">
    <g transform="translate(-20 -461)">
        <circle data-name="Ellipse 432" cx="20" cy="20" r="20" transform="translate(20 461)" style="fill:#64dbff;opacity:.3"/>
        <path data-name="Path 7770" d="M0 0h25v25H0z" style="fill:none" transform="translate(27.5 468.5)"/>
        <g data-name="Group 5259">
            <g data-name="Group 5258" transform="translate(40.579 470.583)">
                <circle data-name="Ellipse 441" cx="2.694" cy="2.694" r="2.694" style="fill:#544ec8"/>
            </g>
        </g>
        <g data-name="Group 5261">
            <g data-name="Group 5260">
                <path data-name="Path 8734" d="M119 75.18a2.69 2.69 0 0 0-2.672 3.031h5.344a2.722 2.722 0 0 0 .022-.337A2.694 2.694 0 0 0 119 75.18z" transform="translate(-81.852 398.462)" style="fill:#544ec8"/>
            </g>
        </g>
        <g data-name="Group 5263">
            <g data-name="Group 5262">
                <path data-name="Path 8735" d="M34.014 184.175h5.8v-2.228a.992.992 0 0 0-.992-.992H23.175a.992.992 0 0 0-.992.992v11.487a.992.992 0 0 0 .992.992h15.646a.992.992 0 0 0 .992-.992v-2.228h-5.8a2.169 2.169 0 0 1-2.166-2.166v-2.7a2.169 2.169 0 0 1 2.167-2.165z" transform="translate(8.442 296.991)" style="fill:#544ec8"/>
            </g>
        </g>
        <g data-name="Group 5265">
            <g data-name="Group 5264">
                <path data-name="Path 8736" d="M300.171 293.361h-6.385a.812.812 0 0 0-.812.812v2.7a.812.812 0 0 0 .812.812h6.385a.812.812 0 0 0 .812-.812v-2.7a.812.812 0 0 0-.812-.812zm-5.041 3.115a.954.954 0 1 1 .954-.954.954.954 0 0 1-.954.954z" transform="translate(-251.33 189.159)" style="fill:#544ec8"/>
            </g>
        </g>
    </g>
</svg>
