<svg xmlns="http://www.w3.org/2000/svg" width="40" height="40" viewBox="0 0 40 40">
    <g transform="translate(-20 -660)">
        <circle data-name="Ellipse 440" cx="20" cy="20" r="20" transform="translate(20 660)" style="fill:#64dbff;opacity:.3"/>
        <path data-name="Path 7770" d="M0 0h25v25H0z" style="fill:none" transform="translate(27.5 667.5)"/>
        <path data-name="Subtraction 25" d="M5.446 10.888a5.444 5.444 0 1 1 5.44-5.441 5.45 5.45 0 0 1-5.44 5.441zM2.937 5.534l.005.91 2.488 2.91h1.7v-.072L4.887 6.625A2.876 2.876 0 0 0 6.3 5.989a2 2 0 0 0 .613-1.222h.763l.274-1.008H6.92a2.2 2.2 0 0 0-.312-.86h1.074L7.95 1.88H3.118l-.3 1.244h1.4a1.076 1.076 0 0 1 1.1.636H3.085l-.27 1.008h2.532a1.11 1.11 0 0 1-1.193.767H2.937z" transform="translate(29.583 669.583)" style="fill:#544ec8"/>
        <g data-name="Group 5266">
            <path data-name="Path 8744" d="M163.995 60H155.3a6.743 6.743 0 0 1 .709 2.42h5.482a.6.6 0 0 1 .6.6v4.84a.6.6 0 0 1-.6.6H153.2a6.463 6.463 0 0 1-3.2 1.172v7.983a.6.6 0 0 0 .6.6h13.39a.6.6 0 0 0 .6-.6V60.6a.6.6 0 0 0-.595-.6zm-7.34 9.679h1.21a.6.6 0 0 1 0 1.21h-1.21a.6.6 0 0 1 0-1.21zm0 2.42h1.21a.6.6 0 0 1 0 1.21h-1.21a.6.6 0 0 1 0-1.21zm-2.42 3.63h-1.21a.6.6 0 1 1 0-1.21h1.21a.6.6 0 0 1 0 1.21zm0-2.42h-1.21a.6.6 0 1 1 0-1.21h1.21a.6.6 0 0 1 0 1.21zm0-2.42h-1.21a.6.6 0 1 1 0-1.21h1.21a.6.6 0 0 1 0 1.21zm7.259 4.84h-4.84a.6.6 0 0 1 0-1.21h4.84a.6.6 0 1 1 0 1.21zm0-2.42h-1.21a.6.6 0 0 1 0-1.21h1.21a.6.6 0 1 1 0 1.21zm0-2.42h-1.21a.6.6 0 0 1 0-1.21h1.21a.6.6 0 1 1 0 1.21z" transform="translate(-114.367 612.003)" style="fill:#544ec8"/>
            <path data-name="Path 8745" d="M268.305 153.63V150h-4.891a6.618 6.618 0 0 1-1.485 3.63z" transform="translate(-221.783 525.633)" style="fill:#544ec8"/>
        </g>
    </g>
</svg>
