<svg xmlns="http://www.w3.org/2000/svg" width="955" height="114" viewBox="0 0 955 114">
    <defs>
        <linearGradient id="3aveop8wda" x1=".51" y1="-.263" x2=".479" y2="1.96" gradientUnits="objectBoundingBox">
            <stop offset="0" stop-color="#ec7781"/>
            <stop offset=".262" stop-color="#ee8582"/>
            <stop offset=".684" stop-color="#f19684"/>
            <stop offset="1" stop-color="#f29c85"/>
        </linearGradient>
        <filter id="m1tmn02c2b" x="8" y="60" width="144" height="50" filterUnits="userSpaceOnUse">
            <feOffset dy="4"/>
            <feGaussianBlur stdDeviation="4" result="blur"/>
            <feFlood flood-opacity=".122"/>
            <feComposite operator="in" in2="blur"/>
            <feComposite in="SourceGraphic"/>
        </filter>
    </defs>
    <g transform="translate(-322 -750)">
        <rect data-name="Rectangle 3513" width="955" height="114" rx="8" transform="translate(322 750)" style="fill:#dff7ea"/>
        <text data-name="Know where to invest," transform="translate(342 781)" style="font-family:Roboto-Regular,Roboto;opacity:.87;font-size:12px"><tspan x="0" y="0">Know where to invest,</tspan></text>
        <text data-name="Lump sum or SIP" transform="translate(342 805)" style="font-size:18px;font-family:Roboto-Bold,Roboto;font-weight:700"><tspan x="0" y="0">Lump sum or SIP</tspan></text>
        <g data-name="Group 4693" transform="translate(1136.389 773)">
            <path data-name="Path 7537" d="M6110.8 2795.266s-3.367-6.082-2.824-10.427c0 0 1.846-2.969 8.906 1.665a37.8 37.8 0 0 1 4.453 4.308z" transform="translate(-6074.076 -2773.133)" style="fill:#ed7a7a"/>
            <path data-name="Path 7538" d="m6119.937 3081.481.492 5.565s-.326 3.59 3.041 3.807 5.213.109 5.322-1.629 1.629-10.292 1.629-10.292-11.841-5.866-10.484 2.549z" transform="translate(-6084.354 -3026.036)" style="fill:#ed7a7a"/>
            <path data-name="Path 7539" d="M6366.292 3130.577v.873a3.47 3.47 0 0 0 2.759 2.281 26.329 26.329 0 0 0 5.322 0v-7.566s-8.773-2-8.081 4.412z" transform="translate(-6297.027 -3068.261)" style="fill:#ed7a7a"/>
            <path data-name="Path 7540" d="M5870.44 3144.517c-3.282-.316-6.187.994-7.147 3.045l-.167-.008-.153 1.166c-.26 2.694 2.663 5.179 6.527 5.551 3.727.359 6.968-1.379 7.427-3.919v-.005a3.33 3.33 0 0 0 .054-.561l.149-1.545-.485-.024c-.854-1.899-3.254-3.417-6.205-3.7z" transform="translate(-5862.667 -3084.314)" style="fill:#e5c077"/>
            <ellipse data-name="Ellipse 359" cx="4.9" cy="7.03" rx="4.9" ry="7.03" transform="rotate(-84.498 37.205 33.794)" style="fill:#f4d862"/>
            <path data-name="Path 7541" d="M6091.755 2796.665a10.466 10.466 0 0 1-2.2-.065 4.471 4.471 0 0 0 .673-3.246c-.724-3.693-3.729-3.62-4.779-1.557a4.49 4.49 0 0 0 .253 4.707c.073.077.182.214.33.38-.193.178-.405.362-.638.553v.007c-4.734-9.6-17.316-16.47-32.1-16.47a45.864 45.864 0 0 0-10.006 1.09c-3.457-4.836-5.389-4.833-6.286-4.385-.643.321-.525 3.723-.321 6.447-6.682 2.727-11.977 7.048-14.922 12.258h-7.783l1.014 17.173h5.852a25.166 25.166 0 0 0 8.4 9.982c1.353 4.173 1.354 12.03 1.354 12.03 6.408 3.041 9.34-.869 9.34-.869l.467-5.753a45.14 45.14 0 0 0 12.893 1.844 44.642 44.642 0 0 0 14.784-2.456l.313 5.823s.326 2.933 4.453 3.15 4.344-3.15 4.344-3.15.109-7.963.543-8.652 9.667-4.888 9.667-19.623a18.661 18.661 0 0 0-1.075-6.228 10.755 10.755 0 0 0 1.839-1.387 4.993 4.993 0 0 0 3.87-.857.419.419 0 0 0-.279-.746zm-4.271-3.621c.149-.056.92.718-.107 2.309a1.619 1.619 0 0 1-.114-.335s-.363-1.753.221-1.974z" transform="translate(-5993.01 -2767.601)" style="fill:#ef5b5b"/>
            <path data-name="Path 7542" d="M6021.77 2915.411s2.474 9.787-.917 17.173H6015l-1.014-17.173z" transform="translate(-5993.01 -2886.629)" style="fill:#ef5b5b"/>
            <path data-name="Path 7543" d="M6007.485 2924.185c0 4.742.032 8.4-.688 8.4s-2.063-3.693-2.28-8.587c-.209-4.737.547-8.586 1.267-8.586s1.701 4.03 1.701 8.773z" transform="translate(-5984.806 -2886.629)" style="fill:#ed7a7a"/>
            <path data-name="Path 7544" d="M6334.059 2712.3c0-3.3-1.583-6.063-3.717-6.822l-.008-.167-1.175-.041c-2.706 0-4.9 3.147-4.9 7.03 0 3.744 2.041 6.8 4.613 7.017.093.008.187.012.282.012s.188 0 .282-.012h1.552l-.023-.486c1.814-1.031 3.094-3.565 3.094-6.531z" transform="translate(-6260.785 -2705.272)" style="fill:#e5c077"/>
            <ellipse data-name="Ellipse 360" cx="4.9" cy="7.03" rx="4.9" ry="7.03" transform="translate(65.178)" style="fill:#f4d862"/>
            <path data-name="Path 7545" d="M5969.668 3154.606c-3.282-.316-6.187.994-7.147 3.045l-.167-.008-.153 1.166c-.26 2.693 2.663 5.179 6.528 5.551 3.727.359 6.968-1.379 7.427-3.919v-.005a3.328 3.328 0 0 0 .055-.56l.149-1.545-.486-.024c-.856-1.9-3.255-3.416-6.206-3.701z" transform="translate(-5948.303 -3093.022)" style="fill:#e5c077"/>
            <ellipse data-name="Ellipse 361" cx="4.9" cy="7.03" rx="4.9" ry="7.03" transform="rotate(-84.498 44.761 27.003)" style="fill:#f4d862"/>
            <path data-name="Path 7546" d="M5938.354 3127.433c-3.282-.316-6.187.994-7.147 3.045l-.167-.008-.153 1.166c-.26 2.694 2.663 5.179 6.528 5.551 3.727.359 6.968-1.379 7.427-3.919a3.33 3.33 0 0 0 .055-.561l.149-1.545-.486-.024c-.86-1.904-3.26-3.421-6.206-3.705z" transform="translate(-5921.278 -3069.57)" style="fill:#e5c077"/>
            <ellipse data-name="Ellipse 362" cx="4.9" cy="7.03" rx="4.9" ry="7.03" transform="rotate(-84.498 40.568 27.503)" style="fill:#f4d862"/>
            <path data-name="Path 7547" d="M6303.5 2802.925a.786.786 0 0 0-.023.1l-.034.252a.778.778 0 0 0 .665.872l11.453 1.543a.777.777 0 0 0 .872-.665l.017-.124a44.963 44.963 0 0 0-12.95-1.978z" transform="translate(-6242.812 -2789.55)" style="fill:url(#3aveop8wda)"/>
            <path data-name="Path 7548" d="M6435.2 2985.094s1.273 12.467.38 16.542c-.347 1.583 1.789 2.864 1.318 11.658l-1.193.188s-7.192-23.895-6.489-25.3c.35-.71 5.984-3.088 5.984-3.088z" transform="translate(-6351.322 -2946.767)" style="fill:#f9e6cf"/>
            <path data-name="Path 7549" d="M6469.682 2993.116s2.246 8.368 8.033 13.467l9.12 8.294.889-1.134s-5.34-8.613-7.511-9.156c0 0-3.485-11.209-5.642-12.317z" transform="translate(-6386.29 -2952.96)" style="fill:#f9e6cf"/>
            <path data-name="Path 7550" d="M6449.4 2930.419a29.134 29.134 0 0 0 2.674 4.583 45.172 45.172 0 0 1 3.64 6.858 21.489 21.489 0 0 1-7.014 4.14s-4.925-11.9-5.569-12.341 5.784-3.394 6.269-3.24z" transform="translate(-6363.336 -2899.576)" style="fill:#525ba8"/>
            <path data-name="Path 7551" d="M6420.985 2945.421s1.014 11.22 1.721 12.642c0 0 6.208 0 8.351-1.234 0 0-.334-11.074-2.939-13.849z" transform="translate(-6344.263 -2910.422)" style="fill:#525ba8"/>
            <path data-name="Path 7552" d="m6412.293 2839.046.135 2.026s1.627 1.2 2.126.763-.728-3.306-.728-3.306-1.533-.278-1.533.517z" transform="translate(-6336.761 -2820.236)" style="fill:#f9e6cf"/>
            <path data-name="Path 7553" d="M6593.208 3150.34a4.874 4.874 0 0 1 1.017 1.556c.1.3.128.873.532.924a.882.882 0 0 0 .467-.1 1.621 1.621 0 0 0 .769-1.369c.034-.706-.32-.806-.713-1.2a7.067 7.067 0 0 1-1-1.537c-.662-1.1-2.867-.161-1.072 1.726z" transform="translate(-6492.302 -3087.485)" style="fill:#f9e6cf"/>
            <path data-name="Path 7554" d="M6330.369 2782.134a6.239 6.239 0 0 1-.955-1.281 2.736 2.736 0 0 1 .679-1.466c.19-.054.761 1.521.761 1.521s.326-.832.434-.674a5.479 5.479 0 0 1 0 1.9z" transform="translate(-6265.23 -2769.235)" style="fill:#f9e6cf"/>
            <path data-name="Path 7555" d="M6350.114 2778.73c-2.024 1.38-3.518.553-4.09.68s-5.888 1.78-7.351-1.367c0 0-1.836-5.836-2.059-6.192l-1.265.185s.375 7.629 2.5 9.5 6.229 3.115 6.229 3.115 2.067 7.12 1.94 8.709 2.647 3.709 6.55.318c1.159-1.007 4.462-3.18 4.423-4.26s-2.649-4.513-3.124-8.963-6.456-12.375-9.789-12.8l-.737.668s4.735 5.549 5.528 7.3c.482 1.053 1.554 2.896 1.245 3.107z" transform="translate(-6270.357 -2759.115)" style="fill:#fcbd4b"/>
            <path data-name="Path 7556" d="M6385.83 2793.125a3.264 3.264 0 0 1-1.5-1.774 1.676 1.676 0 0 1 .843-2 5.669 5.669 0 0 1 1.023-.185c1.376-.265 2.293-1.668 3.651-2.014 1.55-.4 3.085.71 4.1 1.946a4.568 4.568 0 0 0 1.267 1.243 4.975 4.975 0 0 0 2.678.178 4.6 4.6 0 0 1 4.086 1.527c.509.7.722 1.632 1.394 2.183.26.213.592.376.722.686a.987.987 0 0 1-.165.912c-.686 1-2.18 1.011-3.311.582a5.266 5.266 0 0 0-1.919-.569c-1 .023-1.779.817-2.611 1.37a4.438 4.438 0 0 1-3.765.664c-1.85-.612-2.432-3.143-4.566-3.574a3.309 3.309 0 0 1-2.15-1.392" transform="translate(-6312.577 -2775.87)" style="fill:#2c5795"/>
            <path data-name="Path 7557" d="M6400.433 2811.56a6.217 6.217 0 0 1-.2-3.988 2.653 2.653 0 0 0-1.612 1.984c-.382 1.357-.448 2.762.945 2.98a3.174 3.174 0 0 0 1.338-.135 3.321 3.321 0 0 1-.471-.841z" transform="translate(-6324.757 -2793.561)" style="fill:#f9e6cf"/>
            <path data-name="Path 7558" d="M6466.782 3190.988h-1.219s-.506 3.544-1.664 3.8c-.453.1.651.688 1.686.434.614-.15 1.688-2.368 1.792-2.642.154-.409-.595-1.592-.595-1.592z" transform="translate(-6381.209 -3124.46)" style="fill:#f9e6cf"/>
            <path data-name="Path 7559" d="M6382.267 2758.781a3.445 3.445 0 0 1-1.3-.419c-.369-.3.525-.228.648-.25s-.881-1.026-1.125-1.081.478-1.521 2.313 1.26z" transform="translate(-6309.277 -2749.568)" style="fill:#f9e6cf"/>
        </g>
        <g data-name="Group 4694">
            <path data-name="Path 7560" d="M5584.533 2937.516c-3.047-.042-8.918-3.739-10.132-6.066-.843-1.615-.659-3.7 1.365-4.495 1.09-.425 3.477.49 3.893.34 2.208-.793-1.381-4.79-1.8-5.838a3.369 3.369 0 0 1-.167-2.24 2.057 2.057 0 0 1 1.612-1.45 8.666 8.666 0 0 1 1.794.23c1.506.131 1.413-1.248 1.273-2.371a4.8 4.8 0 0 1 .743-3.576 2.455 2.455 0 0 1 3.315-.592 3.821 3.821 0 0 1 1.042 2.388l.612 3.417a1.029 1.029 0 0 0 .276.636c.527.438 2.477-.692 3.283-.548 1.667.3 2.307 2.187 1.9 3.674a7.248 7.248 0 0 1-2.252 3.256 2.138 2.138 0 0 0-.484.528.629.629 0 0 0 .01.679.837.837 0 0 0 .4.237 13.78 13.78 0 0 1 2.479.806c2.128 1.231 1.6 3.99.353 5.646s-6.374 5.382-9.515 5.339z" transform="translate(-4458.836 -2106.855)" style="fill:#cde2e2"/>
            <path data-name="Path 7561" d="m5650.236 2957.712-.394 6.445c-.351 5.738-.7 11.523.1 17.216" transform="translate(-4524.019 -2147.136)" style="stroke:#a9c6cd;fill:none;stroke-miterlimit:10"/>
            <path data-name="Path 7562" d="M5629.07 3127.183h6.985l-1.1 4.342-5-.007z" transform="translate(-4506.425 -2293.395)" style="fill:#cde2e2"/>
        </g>
        <g data-name="Group 4695">
            <path data-name="Path 7563" d="M6772.223 2942.114c-3.047-.042-8.918-3.739-10.132-6.066-.842-1.615-.659-3.7 1.365-4.495 1.09-.425 3.477.49 3.893.34 2.208-.793-1.381-4.79-1.8-5.838a3.372 3.372 0 0 1-.167-2.24 2.058 2.058 0 0 1 1.612-1.45 8.7 8.7 0 0 1 1.794.229c1.506.131 1.413-1.248 1.273-2.371a4.8 4.8 0 0 1 .743-3.576 2.455 2.455 0 0 1 3.315-.593 3.822 3.822 0 0 1 1.042 2.388l.612 3.417a1.029 1.029 0 0 0 .276.636c.527.438 2.477-.691 3.283-.548 1.667.3 2.307 2.187 1.9 3.674a7.253 7.253 0 0 1-2.252 3.256 2.128 2.128 0 0 0-.484.528.629.629 0 0 0 .009.679.835.835 0 0 0 .4.237 13.807 13.807 0 0 1 2.478.807c2.128 1.231 1.6 3.99.353 5.646s-6.372 5.383-9.513 5.34z" transform="translate(-5516.851 -2106.823)" style="stroke:#cde2e2;fill:none;stroke-miterlimit:10"/>
            <path data-name="Path 7564" d="m6837.783 2962.31-.394 6.445c-.351 5.739-.7 11.523.1 17.217" transform="translate(-5581.91 -2147.104)" style="stroke:#cde2e2;fill:none;stroke-miterlimit:10"/>
            <path data-name="Path 7565" d="M6809.76 3131.781h6.985l-1.1 4.342-5-.007z" transform="translate(-5558.399 -2293.364)" style="fill:#cde2e2"/>
        </g>
        <g data-name="Primary Rounded BTN">
            <g data-name="Group 5071">
                <g style="filter:url(#m1tmn02c2b)">
                    <rect data-name="Rectangle 216" width="120" height="26" rx="4" transform="translate(342 818)" style="fill:#23db7b"/>
                </g>
                <text data-name="See Comparision" transform="translate(402 835)" style="fill:#fff;font-family:Roboto-Medium,Roboto;font-weight:500;letter-spacing:.03em;font-size:12px"><tspan x="-48.276" y="0">See Comparision</tspan></text>
            </g>
        </g>
    </g>
</svg>
