<svg xmlns="http://www.w3.org/2000/svg" width="31" height="31" viewBox="0 0 31 31">
    <g data-name="Group 6041">
        <g data-name="Group 6018">
            <g data-name="Group 5838">
                <path data-name="Path 9751" d="M232.935 37.207a1.118 1.118 0 0 0-.613.782 3.8 3.8 0 0 0-.089 1.1q.021.933.1 1.862a3.392 3.392 0 0 0 .386 1.539.837.837 0 0 0 1.2.346 1.858 1.858 0 0 0 .355-1.487c-.057-1.2-.1-2.4-.172-3.6-.402-.124-.702-.705-1.167-.542z" transform="translate(-225.846 -23.095)" style="fill:#fbd2ab"/>
                <path data-name="Path 9752" d="M265.176 37.207a1.118 1.118 0 0 1 .613.782 3.8 3.8 0 0 1 .089 1.1q-.021.933-.1 1.862a3.392 3.392 0 0 1-.386 1.539.837.837 0 0 1-1.2.346 1.86 1.86 0 0 1-.355-1.487c.057-1.2.1-2.4.172-3.6.402-.124.702-.705 1.167-.542z" transform="translate(-241.004 -23.095)" style="fill:#fbd2ab"/>
                <path data-name="Path 9753" d="M241.7 18.087c-4.974 0-9.007 2.479-9.007 9.7 0 2.788 1.336 8.339 2.586 10.309 1.577 2.487 1.918 4.02 6.421 4.02s4.843-1.532 6.421-4.02c1.249-1.971 2.586-7.522 2.586-10.309-.007-7.221-4.035-9.7-9.007-9.7z" transform="translate(-226.067 -13.938)" style="fill:#f3c08e"/>
                <path data-name="Path 9754" d="M233.437 27.467a7.121 7.121 0 0 1 .021-3.051 2.579 2.579 0 0 1 2.141-1.936 4.427 4.427 0 0 1 1.777.451 13.886 13.886 0 0 0 5.761.893c1.035-.06 6.3-.52 5.856 2.89-.366 2.8.259 4.252.472 3.62a28.194 28.194 0 0 0 1.175-6.234 9.079 9.079 0 0 0-2.55-6.928 9.454 9.454 0 0 0-6.016-2.108c-2.322-.14-5.617.245-6.828 1.934-.235-.329-1.886.535-2.618 2.252a9.367 9.367 0 0 0-.561 4.07 16.246 16.246 0 0 0 1.221 6.9c.75-.162.234-2.169.149-2.753z" transform="translate(-225.768 -12.475)" style="fill:#514948"/>
                <path data-name="Path 9755" d="M250.622 23.909a2.441 2.441 0 0 1 .87.6l.011-.021a13.81 13.81 0 0 0-.534-1.187 2.82 2.82 0 0 1 .675.641c-.125-.38-.255-.764-.385-1.165a3.783 3.783 0 0 1 .619.765 13.367 13.367 0 0 1-.329-1.45 4.05 4.05 0 0 1 .55.8l-.392-1.915a5.543 5.543 0 0 1 .679 1.305c.007.017.012.035.018.052l.009-.03c-.1-.5-.207-1-.316-1.52a4.331 4.331 0 0 1 .511.831v-.008c-.144-.713-.34-1.424-.513-2.168a5.979 5.979 0 0 1 .706 1.239c.015-.093.035-.185.048-.278a7.814 7.814 0 0 0-2.021-3.237 9.453 9.453 0 0 0-6.016-2.108c-2.322-.14-5.617.245-6.828 1.934 0 0-.528 3.653.1 5.523a1.764 1.764 0 0 1 .252-.04 4.427 4.427 0 0 1 1.777.451 13.886 13.886 0 0 0 5.761.893c.8-.046 4.086-.326 5.367 1.092l.008-.012c-.18-.32-.392-.643-.627-.987z" transform="translate(-228.507 -12.475)" style="fill:#443d3c"/>
            </g>
            <path data-name="Path 9758" d="M147.914 52.427a8.956 8.956 0 0 0-6.06 0c-1.751 1.073-2.5 3.991-2.5 3.991s0 .529.861 1.32a6.738 6.738 0 0 0 4.659 1.372h.02a6.738 6.738 0 0 0 4.659-1.372c.861-.791.861-1.32.861-1.32s-.748-2.918-2.5-3.991zm-.734 4.973a1.816 1.816 0 0 1-1.809-.622h-.971a1.816 1.816 0 0 1-1.809.622c-1.017-.339-.1-2.579.372-3.028l.016-.016a2.816 2.816 0 0 1 3.815 0l.016.016c.472.448 1.39 2.688.37 3.028z" transform="translate(-129.296 -30.936)" style="fill:#443d3c"/>
        </g>
    </g>
</svg>
