<svg xmlns="http://www.w3.org/2000/svg" width="124.46" height="131.966" viewBox="0 0 124.46 131.966">
    <defs>
        <clipPath id="t2lgv4jswa">
            <circle cx="62.23" cy="62.23" r="62.23" style="fill:none"/>
        </clipPath>
    </defs>
    <g data-name="Background Elements">
        <circle data-name="Ellipse 353" cx="62.23" cy="62.23" r="62.23" style="fill:#ecf6f6"/>
        <g data-name="Group 4691">
            <g data-name="Group 4690" style="clip-path:url(#t2lgv4jswa)">
                <g data-name="Group 4689">
                    <g data-name="Group 4687">
                        <path data-name="Path 7503" d="M4059.35 4812.181a20.186 20.186 0 0 0-16.252-8.735 19.056 19.056 0 0 0-16.083 8.856 28.029 28.029 0 0 0-2.906 7.118c-1.455 5.161-2.22 10.65-1.05 15.882.761 3.407 2.861 7.031 6.312 7.548 2.122.317 4.216-.633 6.088-1.68a49.433 49.433 0 0 0 22.809-28.17" transform="translate(-4029.928 -4756.634)" style="fill:#cde2e2"/>
                        <path data-name="Path 7504" d="M4236.514 4690.646c-6.609-4.142-12.646-9.865-15.08-17.278s-.342-16.658 6.282-20.785a8.914 8.914 0 0 1 4.165-1.463 8.164 8.164 0 0 1 6.648 3.357 15.565 15.565 0 0 1 2.775 7.144c1.509 9.384-1.658 18.878-5.531 27.561" transform="translate(-4191.717 -4632.135)" style="fill:#cde2e2"/>
                        <path data-name="Path 7505" d="M4123.583 4869.787c-1.869-4.952-4.025-9.9-7.451-13.929s-8.319-7.09-13.61-7.241c-4.867-.139-9.547 2.183-13.2 5.395s-6.457 7.271-9.209 11.288" transform="translate(-4077.018 -4793.545)" style="stroke:#fff;stroke-miterlimit:10;opacity:.32;fill:none"/>
                        <path data-name="Path 7506" d="M4294.1 4749.72c-4.516-7.671-9.051-15.386-12.251-23.694s-5.024-17.313-3.9-26.146" transform="translate(-4238.428 -4671.993)" style="stroke:#fff;stroke-miterlimit:10;opacity:.32;fill:none"/>
                        <path data-name="Path 7507" d="M4443.521 4745.954a338.964 338.964 0 0 1 3.386-64.212c1.366-9.184 3.946-19.516 12.126-23.908" transform="translate(-4373.772 -4637.631)" style="stroke:#fff;stroke-miterlimit:10;opacity:.32;fill:none"/>
                        <path data-name="Path 7508" d="M4438.723 4643.693c1.894.53 3.84-1.1 4.38-2.99s.07-3.9-.4-5.806a5.653 5.653 0 0 1-.185-3c.56-1.787 2.621-2.513 4.3-3.35a13.236 13.236 0 0 0 7.217-10.207 11.768 11.768 0 0 0-5.412-11.108 10.613 10.613 0 0 0-12.152.991 5.827 5.827 0 0 0-1.969 3.083c-.2.961-.047 1.962-.169 2.938-.357 2.864-2.9 4.856-4.607 7.182a14.025 14.025 0 0 0 .32 16.556" transform="translate(-4360.66 -4595.092)" style="stroke:#fff;stroke-miterlimit:10;opacity:.32;fill:none"/>
                    </g>
                    <g data-name="Group 4688">
                        <path data-name="Path 7509" d="M4433.02 4820.4a74.021 74.021 0 0 1-17.622-12c-2.8-2.57-5.533-5.625-6.023-9.392s2.377-8.125 6.163-7.787c4.4.394 7.648 6.482 11.8 4.955 2.3-.843 3.169-3.83 2.5-6.185s-2.439-4.207-4.148-5.958a47.292 47.292 0 0 1-6.3-7.4 10.874 10.874 0 0 1-2.04-6.258c.117-2.229 1.558-4.5 3.734-4.989 2.695-.606 5.135 1.51 7.422 3.058s5.923 2.371 7.4.037c1.007-1.589.313-3.646-.221-5.45a27.084 27.084 0 0 1-.048-15.062c.956-3.312 3.552-6.984 6.942-6.339a5.886 5.886 0 0 1 3.033 1.828c4.336 4.51 3.864 11.587 4.8 17.774a4.377 4.377 0 0 0 1 2.524c1.271 1.258 3.488.622 4.839-.549s2.333-2.784 3.883-3.674c3.2-1.838 7.589.453 8.938 3.883s.31 7.382-1.523 10.58-4.406 5.906-6.46 8.965c-.6.9-1.168 2.049-.658 3 .537.993 1.967 1.1 3.015.686s1.915-1.21 2.957-1.646c2.388-1 5.291.148 6.892 2.183a11.56 11.56 0 0 1 2.073 7.328c-.116 9.556-6.982 18.165-15.6 22.289s-18.656 4.338-28.077 2.743" transform="translate(-4346.069 -4706.052)" style="fill:#cde2e2"/>
                        <path data-name="Path 7510" d="M4580.482 4861.079c3.96 8.628 4.457 18.424 4.207 27.916a64.362 64.362 0 0 1-2.05 16.272 27.517 27.517 0 0 1-8.524 13.776" transform="translate(-4480.749 -4803.734)" style="stroke:#fff;stroke-miterlimit:10;opacity:.32;fill:none"/>
                    </g>
                </g>
            </g>
        </g>
        <path data-name="Path 7511" d="m4206.265 5065.668-14.382 1.2.613 15.5a62.128 62.128 0 0 0 15.491 8.789z" transform="translate(-4168.366 -4970.936)" style="fill:#ebdbbb"/>
        <path data-name="Path 7512" d="M4220 4885.424a62.169 62.169 0 0 0 49.711-27.252c-.934-15.03-4.169-30.861-6.935-34.167-5.776-6.909-32.022-15.079-32.022-15.079l-19.848-.148s-25.844 13.432-29.186 23.612c-1.036 3.152-5.1 28.231-5.1 28.231h7.715c-.422 5.4-.664 10.465-.619 14.392a61.865 61.865 0 0 0 29.833 10.264c2.115.073 4.274.123 6.451.147z" transform="translate(-4155.894 -4760.99)" style="fill:#4b7bec"/>
        <path data-name="Path 7513" d="m4363.732 4750.745-.626 8.7s10.794 12.6 20.364-.926l-4.561-13.647-15 1.352z" transform="translate(-4308.298 -4708.768)" style="fill:#ebdbbb"/>
        <path data-name="Path 7514" d="M4337.777 4631.346c-.451-.562-2.541-4.4-3.088-5.247-1.02-1.595-2.316-3.169-2.568-5.083a3.357 3.357 0 0 1 .58-2.732c.421-.521 1.121-.972 1.393-1.583.555-1.25-.306-2.562-.156-3.865a5.331 5.331 0 0 1 1.5-3.338c4.725-4.314 11.01.321 14.023-1.465.686-.407 3.888-3.509 6.554-1.232 1.259 1.074 1.354 5.077.221 6.824-.623.956-.679 2.236.629 2.644 3.513 1.088-.542 10.414-2.289 12.126.003-.001-14.258 6.092-16.799 2.951z" transform="translate(-4282.93 -4595.25)" style="fill:#1d1c1a"/>
        <ellipse data-name="Ellipse 354" cx="9.218" cy="12.083" rx="9.218" ry="12.083" transform="rotate(-6.78 182.802 -430.512)" style="fill:#ebdbbb"/>
        <path data-name="Path 7515" d="M4359.349 4657.333a27.926 27.926 0 0 1 4.35-3.342 10.7 10.7 0 0 1 8.735.274c4.3 2.08 1.979-6.037 1.979-6.037s-3.792-6.685-4.782-7.032-7.006 1.938-10.222 2.578 3.43-4.847 3.43-4.847l11.177.94 3.462 8.065.885 3.714s-2.22 9.3-5.634 12.168c.001 0-10.138 6.334-13.38-6.481z" transform="translate(-4304.559 -4622.179)" style="fill:#1d1c1a"/>
        <path data-name="Path 7516" d="M4387.136 4737.625a2.056 2.056 0 0 1 1.352-2.552c.392-.16 3.966-.92 4.706 1.109s-1.941 3.167-3.222 1.886c0-.001-1.856 1.651-2.836-.443z" transform="translate(-4327.844 -4700.533)" style="fill:#b19f84"/>
        <path data-name="Path 7517" d="m4437.411 4926.609-22.323-6.437s-3.95 2.5 12.712 42.327c.344.82-34.656-1.934-34.656-1.934l-5.924 3.824 48.473 19.3c1.872 1.372 9.057-2.162 10.33-4.1 10.208-15.547-8.612-52.98-8.612-52.98z" transform="translate(-4328.008 -4852.027)" style="fill:#ebdbbb"/>
        <path data-name="Path 7518" d="m4543.058 4888.756 13 30.393s-15.667 4.788-27.885 2.738l-8.6-31.977s16.89-3.357 23.485-1.154z" transform="translate(-4436.173 -4825.742)" style="fill:#4b7bec"/>
        <g data-name="Group 4692">
            <path data-name="Path 7519" d="M4275.775 5014.931c-.154.222-.048 1.011.218 1l12.328-1.729c.146-.007.236-.007.282.131l7.35 21.8a.323.323 0 0 0 .572.08l.026-.038a.327.327 0 0 0 .041-.288l-7.54-22.212a.328.328 0 0 0-.318-.222l-12.144.486c-.548.091-.923 1.016-.815.992z" transform="translate(-4236.869 -4928.264)" style="fill:#ef5b5b"/>
            <path data-name="Path 7520" d="m4276.386 5017.193 11.606-.554a.751.751 0 0 1 .75.513l7.056 21.208a.749.749 0 0 1-.713.988l-11.868-.015a.753.753 0 0 1-.712-.516l-6.8-20.642a.749.749 0 0 1 .681-.982z" transform="translate(-4236.842 -4930.864)" style="fill:#ef5b5b"/>
        </g>
        <path data-name="Path 7521" d="M4301.179 5086.73s-11.928-1.972-12.613-2.506-7.466-9.115-7.075-9.726 2.025-3.451 2.193-3.151.88 2.677.88 2.677 10.613 3.972 10.994 4.2 5.241-.531 5.621-3.5 3.493-5.32 4.026-5.014 1.595 1.671 0 6.99c0 0-.608 1.824 0 2.43a8.287 8.287 0 0 1 1.52 3.621z" transform="translate(-4241.585 -4974.219)" style="fill:#ebdbbb"/>
    </g>
</svg>
