<svg xmlns="http://www.w3.org/2000/svg" width="40" height="40" viewBox="0 0 40 40">
    <path data-name="Union 4" d="M8.963 32.844a8.9 8.9 0 0 1-7.677-4.423l-.045-.079-.014-.024-.03-.054-.018-.032-.025-.045-.021-.039-.02-.037-.024-.045-.015-.029-.027-.053-.008-.016a9.5 9.5 0 0 1-.216-8.191v-.01l.01-.022.016-.036.019-.042.032-.047.014-.029.027-.056.01-.021.031-.064.006-.013.034-.069v-.01l.037-.073.041-.085q.182-.345.394-.676l.011-.018.027-.042.024-.036.024-.028.029-.044.02-.029.033-.049.017-.024.036-.052.016-.023.038-.054.014-.02.04-.056.014-.019.043-.059.011-.015.044-.058.013-.017.046-.059.006-.014.047-.06.011-.014.05-.062.009-.011.05-.061.01-.012.053-.063.007-.009.055-.064.007-.008.062-.071.044-.047A19.758 19.758 0 0 0 5.3 14.073a1.221 1.221 0 0 0 .059-.159 5.156 5.156 0 0 0 .129-.546l.009-.046a2.529 2.529 0 0 1-.684-4.8L2.951 6.979a1.791 1.791 0 0 1-.3-2.442l.828-1.118a1.759 1.759 0 0 1 1.389-.71h.085a1.742 1.742 0 0 1 .487.087l.049.017.084.033.047.021.027.013 2.061.989a.556.556 0 0 0 .238.054.551.551 0 0 0 .424-.2L9.733 2.1q.067-.08.14-.154a2.329 2.329 0 0 1 .932-.571c-.917-1.886-.074-1.506.878-.763.691-.59 1.378-1 .663.554.3.266.57.522.752.7a2.339 2.339 0 0 1 .215.224l.006.007 1.358 1.625a.553.553 0 0 0 .662.145L17.4 2.88a1.743 1.743 0 0 1 .683-.17h.123a1.759 1.759 0 0 1 1.364.71l.83 1.116a1.791 1.791 0 0 1-.3 2.442l-1.858 1.54a2.529 2.529 0 0 1-.684 4.8 5.381 5.381 0 0 0 .137.591 1.21 1.21 0 0 0 .058.157 3.915 3.915 0 0 0 .452.664 26.9 26.9 0 0 0 1.845 2.011c.172.172.338.335.489.48l.1.1a.535.535 0 0 1 .044.047l.062.072.057.067.006.007.054.065.008.01.051.063.009.011.05.062.009.012.049.062.01.013.047.061.01.014.046.061.011.014.044.06.012.016.042.058.013.018.04.056.014.021.037.053.017.025.033.048.02.029.031.046.02.031.027.042.023.036.017.026q.232.364.429.745l.037.072v.009l.034.067.008.016.03.062.011.022.027.056.014.03.022.047.019.042.016.034.011.023v.01a9.5 9.5 0 0 1-.216 8.189l.006.033-.027.051-.016.03-.023.044-.021.039-.021.038-.025.045-.018.033-.03.054-.014.024-.045.079a8.9 8.9 0 0 1-7.677 4.423zm0-1.442h5.125a7.369 7.369 0 0 0 1.161-.092 7.465 7.465 0 0 0 5.269-3.61 8.079 8.079 0 0 0 .8-1.894l.012-.046.006-.021a8.073 8.073 0 0 0 .27-2.378v-.037a8.066 8.066 0 0 0-.69-2.955v-.01q-.121-.27-.26-.53l-.01-.018-.022-.04-.024-.044-.008-.015a8.088 8.088 0 0 0-.959-1.362 20.706 20.706 0 0 1-3.171-3.654 4.784 4.784 0 0 1-.355-1.346H6.953l-.015.085a4.564 4.564 0 0 1-.34 1.26 20.706 20.706 0 0 1-3.171 3.654 8.1 8.1 0 0 0-.76 1.025l-.017.026-.02.033-.035.058a8.072 8.072 0 0 0-.449.861l-.005.011a8.065 8.065 0 0 0-.692 2.937v.056A8.039 8.039 0 0 0 2.534 27.7a7.462 7.462 0 0 0 5.876 3.685q.275.015.553.015zm-3.107-19.5H17.2a1.087 1.087 0 0 0 0-2.174H5.856a1.087 1.087 0 0 0 0 2.174zM6.8 8.289h9.461l2.926-2.423.024-.022a.344.344 0 0 0 .032-.448l-.827-1.117a.32.32 0 0 0-.29-.127.309.309 0 0 0-.081.021l-.016.007-2.061.989a1.991 1.991 0 0 1-2.391-.522l-1.364-1.625a.9.9 0 0 0-1.325-.055q-.026.026-.05.055L9.482 4.647a1.991 1.991 0 0 1-2.391.522L5.03 4.181a.317.317 0 0 0-.39.1L3.813 5.4a.344.344 0 0 0 .032.448l.024.022zm4.01-6.916z" transform="translate(7.742 2.581)" style="stroke:#544ec8;stroke-width:.35px;fill:#544ec8"/>
    <path data-name="Path 8842" d="M6.575-4.6h-1.63A2.813 2.813 0 0 1 5.5-3.235h1.393L6.575-2.15h-1.05A2.468 2.468 0 0 1 4.551-.3a3.944 3.944 0 0 1-2.363.62l3.406 3.968v.083H4.026L.364.09.358-.768h1.72a2.468 2.468 0 0 0 1.4-.377 1.615 1.615 0 0 0 .686-1.005h-4l.318-1.085H4.15Q3.819-4.548 2.119-4.6H.178L.5-5.687h6.393z" transform="translate(16.503 25.687)" style="fill:#544ec8"/>
    <path data-name="Rectangle 3655" style="fill:none" d="M0 0h40v40H0z"/>
</svg>
