<svg xmlns="http://www.w3.org/2000/svg" xmlns:xlink="http://www.w3.org/1999/xlink" width="111.902" height="155.268" viewBox="0 0 111.902 155.268">
    <defs>
        <linearGradient id="19ntb097jd" x1="-2.478" y1=".985" x2=".997" y2=".419" gradientUnits="objectBoundingBox">
            <stop offset="0" stop-color="#5761d7"/>
            <stop offset=".178" stop-color="#5b65d8"/>
            <stop offset=".388" stop-color="#6a72de"/>
            <stop offset=".613" stop-color="#8188e8"/>
            <stop offset=".849" stop-color="#a2a6f5"/>
            <stop offset="1" stop-color="#bcbeff"/>
        </linearGradient>
        <linearGradient id="gopgajcbza" x1="-6.24" y1="1" x2="-6.24" gradientUnits="objectBoundingBox">
            <stop offset="0" stop-color="#c0bff6"/>
            <stop offset=".294" stop-color="#c4c3f6"/>
            <stop offset=".64" stop-color="#d2d2f9"/>
            <stop offset="1" stop-color="#e9e9fd"/>
        </linearGradient>
        <linearGradient id="ih1decxade" x1=".021" y1="2.156" x2=".021" y2="1.453" xlink:href="#gopgajcbza"/>
        <linearGradient id="7iovshrfob" x1="4.528" y1="10.707" x2="4.975" y2="9.306" gradientUnits="objectBoundingBox">
            <stop offset="0" stop-color="#5761d7"/>
            <stop offset=".04" stop-color="#5b65d8"/>
            <stop offset=".087" stop-color="#6a72de"/>
            <stop offset=".137" stop-color="#8188e8"/>
            <stop offset=".19" stop-color="#a2a6f5"/>
            <stop offset=".224" stop-color="#bcbeff"/>
        </linearGradient>
        <linearGradient id="cjhbbaxdtg" x1="5.079" y1="10.848" x2="4.781" y2="9.835" xlink:href="#gopgajcbza"/>
        <linearGradient id="y2yg0l4wdc" x1="3.351" y1="5.31" x2="2.88" y2="4.287" gradientUnits="objectBoundingBox">
            <stop offset="0" stop-color="#c0bff6"/>
            <stop offset=".117" stop-color="#cfcff8"/>
            <stop offset=".263" stop-color="#e9e9fd"/>
            <stop offset=".514" stop-color="#c0bff6"/>
            <stop offset=".622" stop-color="#cfcff8"/>
            <stop offset=".755" stop-color="#e9e9fd"/>
            <stop offset="1" stop-color="#c0bff6"/>
        </linearGradient>
        <linearGradient id="gndwry36wh" x1="4.518" y1="10.676" x2="4.965" y2="9.275" xlink:href="#7iovshrfob"/>
        <linearGradient id="vsjmdh9k3i" x1="5.068" y1="10.817" x2="4.771" y2="9.805" xlink:href="#gopgajcbza"/>
        <linearGradient id="xfpfl4riwj" x1="3.346" y1="5.299" x2="2.875" y2="4.277" xlink:href="#y2yg0l4wdc"/>
        <clipPath id="055fmz2npf">
            <path data-name="Path 6167" d="m389.19 151.843 41.133 24.027V92.224L389.19 68.2z" transform="translate(-389.19 -68.196)" style="fill:none"/>
        </clipPath>
    </defs>
    <g data-name="Group 3731">
        <g data-name="Group 3636">
            <g data-name="Group 3603">
                <g data-name="Group 3602">
                    <g data-name="Group 3601">
                        <g data-name="Group 3600">
                            <path data-name="Path 6091" d="m389.989 49.278 3.591-2.1v.008a.674.674 0 0 1 .672.061l39.009 22.786a2.584 2.584 0 0 1 1.062 2.053v96.88a.941.941 0 0 1-.375.866h.006l-3.589 2.1-.1-4.992-35.075-20.486a2.582 2.582 0 0 1-1.062-2.053V51.634c-.091.291-.16.5-.17.51-.034.023-3.969-2.866-3.969-2.866z" transform="translate(-322.422 -47.126)" style="fill:url(#19ntb097jd)"/>
                            <path data-name="Path 6092" d="M472.753 99.147 461.9 105.49l-1.78-1.04 11.784-6.889a2.684 2.684 0 0 1 .849 1.586z" transform="translate(-360.879 -74.513)" style="fill:url(#gopgajcbza)"/>
                            <path data-name="Path 6093" d="m390.252 151.543 39.009 22.786c.587.343 1.062-.021 1.062-.812v-96.88a2.582 2.582 0 0 0-1.062-2.053L390.252 51.8c-.586-.343-1.062.021-1.062.813v96.88a2.584 2.584 0 0 0 1.062 2.05z" transform="translate(-321.984 -49.593)" style="fill:url(#ih1decxade)"/>
                            <path data-name="Path 6094" d="M429.519 74.586 390.51 51.8a.616.616 0 0 0-.849.085.735.735 0 0 1 .567.106l39.008 22.786a2.582 2.582 0 0 1 1.064 2.053v96.88a1.137 1.137 0 0 1-.213.728c.3-.08.5-.409.5-.919v-96.88a2.582 2.582 0 0 0-1.068-2.053z" transform="translate(-322.242 -49.595)" style="fill:#fff"/>
                            <path data-name="Path 6095" d="m389.19 151.534 41.133 24.027V88.509L389.19 64.482z" transform="translate(-321.984 -56.551)" style="fill:#24126a"/>
                            <path data-name="Path 6096" d="m389.19 151.843 41.133 24.027V92.224L389.19 68.2z" transform="translate(-321.984 -58.568)" style="opacity:.51;fill:#453c9e"/>
                            <path data-name="Path 6097" d="m427.116 80 7.441 4.361c.217.127.4.164.482-.042a.713.713 0 0 0 .041-.254 1.278 1.278 0 0 0-.526-1.016l-7.52-4.392c-.023-.013-.044-.04-.067-.034-.237.067-.276.113-.276.475l.033.1a.8.8 0 0 0 .392.802z" transform="translate(-342.548 -64.229)" style="fill:#5761d7"/>
                            <path data-name="Path 6098" d="M426.745 78.6a.7.7 0 0 0-.042.252 1.278 1.278 0 0 0 .526 1.016l7.519 4.392a.61.61 0 0 0 .068.031.3.3 0 0 1-.484.149l-7.519-4.392a1.279 1.279 0 0 1-.526-1.016c.001-.364.201-.542.458-.432z" transform="translate(-342.326 -64.198)" style="fill:#bcbeff"/>
                            <g data-name="Group 3598">
                                <path data-name="Path 6099" d="m483.525 131.055.085-.05a.36.36 0 0 1 .361-.032v-.005l.319.186-.156.013a.769.769 0 0 1 .045.274v5.2a1.387 1.387 0 0 1-.57 1.1l-.085.049a.553.553 0 0 1-.116.052l.082.175-.34-.2h.006a.5.5 0 0 1-.2-.464v-5.2a1.385 1.385 0 0 1 .569-1.098z" transform="translate(-373.398 -92.639)" style="fill:#e9e9fd"/>
                                <path data-name="Path 6100" d="m484.241 138.2.085-.05a1.384 1.384 0 0 0 .569-1.1v-5.2c0-.425-.255-.62-.569-.436l-.085.05a1.385 1.385 0 0 0-.57 1.1v5.2c0 .424.255.619.57.436z" transform="translate(-373.791 -92.859)" style="fill:#bcbeff"/>
                            </g>
                            <g data-name="Group 3599">
                                <path data-name="Path 6101" d="m483.525 148.417.085-.049a.36.36 0 0 1 .361-.032l.319.186-.156.013a.768.768 0 0 1 .045.274V154a1.386 1.386 0 0 1-.57 1.1l-.085.05a.555.555 0 0 1-.116.052l.082.175-.34-.2h.006a.5.5 0 0 1-.2-.464v-5.2a1.386 1.386 0 0 1 .569-1.096z" transform="translate(-373.398 -102.066)" style="fill:#e9e9fd"/>
                                <path data-name="Path 6102" d="m484.241 155.561.085-.049a1.386 1.386 0 0 0 .569-1.1v-5.2c0-.425-.255-.62-.569-.436l-.085.05a1.384 1.384 0 0 0-.57 1.1v5.2c0 .424.255.619.57.435z" transform="translate(-373.791 -102.287)" style="fill:#bcbeff"/>
                            </g>
                        </g>
                    </g>
                </g>
            </g>
            <g data-name="Group 3635" style="opacity:.11">
                <g data-name="Group 3634" style="clip-path:url(#055fmz2npf)" transform="translate(67.206 9.629)">
                    <g data-name="Group 3633">
                        <path data-name="Path 6103" d="m401.625 256.922-50.877-32.36 20.725-13.162 32.258 22.737 14.637 18.463z" transform="translate(-368.111 -145.961)" style="opacity:.5;fill:#0f054c"/>
                        <g data-name="Group 3607">
                            <g data-name="Group 3605">
                                <g data-name="Group 3604">
                                    <path data-name="Path 6104" d="m505.325 266.924-.013 3.444a.136.136 0 0 1-.079.126l-37.019 21.491a.518.518 0 0 1-.471-.021l-6.033-3.546a.209.209 0 0 1-.112-.136v-.011l.013-3.479 2.927 1.693 34.159-19.831a.519.519 0 0 1 .471.021l2.07 1.217z" transform="translate(-428.891 -175.936)" style="fill:url(#7iovshrfob)"/>
                                    <path data-name="Path 6105" d="M498.721 259.075 461.7 280.566c-.121.07-.106.193.033.275l6.033 3.546a.518.518 0 0 0 .471.021l37.019-21.491c.121-.07.106-.193-.033-.275l-6.033-3.546a.518.518 0 0 0-.469-.021z" transform="translate(-428.905 -171.822)" style="fill:url(#cjhbbaxdtg)"/>
                                    <path data-name="Path 6106" d="m504.276 265.955-29.089 16.578a20.252 20.252 0 0 0-.994-3.515l29.037-16.857a20.041 20.041 0 0 1 1.046 3.794z" transform="translate(-435.799 -173.523)" style="opacity:.6;fill:#24126a"/>
                                    <path data-name="Path 6107" d="m504.156 263.442-34.907 20.265c-.083.048-.072.132.023.188l1.516.891a.355.355 0 0 0 .322.014l34.907-20.265c.083-.048.072-.132-.023-.188l-1.516-.891a.354.354 0 0 0-.322-.014z" transform="translate(-433.057 -174.201)" style="fill:#24126a"/>
                                    <path data-name="Path 6108" d="m506.016 264.535-.71.412-.818-.481a.354.354 0 0 0-.322-.014l-34.2 19.853-.7-.41c-.095-.056-.105-.14-.023-.188l34.907-20.265a.354.354 0 0 1 .322.015l1.516.891c.101.052.112.139.028.187z" transform="translate(-433.057 -174.201)" style="fill:#453c9e"/>
                                </g>
                                <path data-name="Path 6109" d="m351.781 167.07 29.04-16.859c-.014 5.264 3.622 11.675 8.121 14.319l40.02 23.521c5.288 3.108 9.562 10.644 9.546 16.832l-29.04 16.859c.016-6.188-4.257-13.723-9.546-16.831L359.9 181.389c-4.5-2.644-8.135-9.055-8.121-14.319z" transform="translate(-368.677 -112.732)" style="fill:url(#y2yg0l4wdc);opacity:.96"/>
                                <path data-name="Path 6110" d="m508.507 268.873-29.04 16.859c0-.271-.01-.546-.025-.823l29.037-16.857c.021.276.029.548.028.821z" transform="translate(-438.677 -176.722)" style="opacity:.8;fill:#453c9e"/>
                            </g>
                            <g data-name="Group 3606" style="opacity:.32">
                                <path data-name="Path 6111" d="m450.742 208.437 6.564-3.842-.634-.37-6.564 3.842z" transform="translate(-422.592 -142.064)" style="fill:#453c9e"/>
                                <path data-name="Path 6112" d="m443.289 215.67 2.363-1.383-.634-.37-2.363 1.383z" transform="translate(-418.506 -147.326)" style="fill:#453c9e"/>
                                <path data-name="Path 6113" d="m437.513 219.539 1.606-.94-.634-.37-1.606.94z" transform="translate(-415.339 -149.668)" style="fill:#453c9e"/>
                                <path data-name="Path 6114" d="m460.563 208.536 3.577-2.093-.634-.37-3.577 2.093z" transform="translate(-427.978 -143.067)" style="fill:#453c9e"/>
                                <path data-name="Path 6115" d="m448.638 214.874 4.383-2.565-.634-.37L448 214.5z" transform="translate(-421.439 -146.252)" style="fill:#453c9e"/>
                                <path data-name="Path 6116" d="m442.862 220.147 1.606-.94-.634-.37-1.606.94z" transform="translate(-418.272 -149.998)" style="fill:#453c9e"/>
                                <path data-name="Path 6117" d="m437.366 223.327 1.606-.94-.634-.37-1.606.94z" transform="translate(-415.258 -151.725)" style="fill:#453c9e"/>
                                <path data-name="Path 6118" d="m465.959 209.805 2.588-1.515-.634-.37-2.588 1.515z" transform="translate(-430.937 -144.07)" style="fill:#453c9e"/>
                                <path data-name="Path 6119" d="m461.78 213.407.884-.518-.634-.37-.884.518z" transform="translate(-428.645 -146.568)" style="fill:#453c9e"/>
                                <path data-name="Path 6120" d="m456 216.247 1.606-.94-.634-.37-1.606.94z" transform="translate(-425.478 -147.88)" style="fill:#453c9e"/>
                                <path data-name="Path 6121" d="m453.748 215.729 9.552-5.591-.634-.37-9.552 5.591z" transform="translate(-424.241 -145.074)" style="fill:#453c9e"/>
                                <path data-name="Path 6122" d="m446.295 225.04 2.363-1.383-.634-.37-2.363 1.383z" transform="translate(-420.154 -152.415)" style="fill:#453c9e"/>
                                <path data-name="Path 6123" d="m472.373 213.5 2.588-1.515-.634-.37-2.588 1.515z" transform="translate(-434.453 -146.077)" style="fill:#453c9e"/>
                                <path data-name="Path 6124" d="m458.927 219.553 5.07-2.968-.634-.37-5.07 2.968z" transform="translate(-427.08 -148.574)" style="fill:#453c9e"/>
                                <path data-name="Path 6125" d="m453.15 225.3 1.606-.94-.634-.37-1.606.94z" transform="translate(-423.913 -152.799)" style="fill:#453c9e"/>
                                <path data-name="Path 6126" d="m469.586 216.933 5.295-3.1-.634-.37-5.295 3.1z" transform="translate(-432.926 -147.08)" style="fill:#453c9e"/>
                                <path data-name="Path 6127" d="m458.888 224.142 3.829-2.241-.634-.37-3.829 2.241z" transform="translate(-427.06 -151.461)" style="fill:#453c9e"/>
                                <path data-name="Path 6128" d="m450.939 229.6 2.588-1.515-.634-.37-2.588 1.515z" transform="translate(-422.7 -154.821)" style="fill:#453c9e"/>
                                <path data-name="Path 6129" d="m480.557 216.729 1.788-1.047-.634-.37-1.788 1.047z" transform="translate(-438.941 -148.084)" style="fill:#453c9e"/>
                                <path data-name="Path 6130" d="m473.1 220.64 2.363-1.383-.634-.37-2.363 1.383z" transform="translate(-434.854 -150.025)" style="fill:#453c9e"/>
                                <path data-name="Path 6131" d="m462.452 225.8 3.808-2.229-.634-.37-3.808 2.229z" transform="translate(-429.014 -152.367)" style="fill:#453c9e"/>
                                <path data-name="Path 6132" d="m475.594 220.736 5.478-3.206-.634-.37-5.478 3.206z" transform="translate(-436.22 -149.087)" style="fill:#453c9e"/>
                                <path data-name="Path 6133" d="m462.01 228.835 5.133-3-.634-.37-5.133 3z" transform="translate(-428.771 -153.595)" style="fill:#453c9e"/>
                                <path data-name="Path 6134" d="m456.234 234.629 1.606-.94-.634-.37-1.606.94z" transform="translate(-425.604 -157.862)" style="fill:#453c9e"/>
                                <path data-name="Path 6135" d="m450.691 237.836 1.606-.94-.634-.37-1.606.94z" transform="translate(-422.565 -159.604)" style="fill:#453c9e"/>
                                <path data-name="Path 6136" d="m483.663 221.3 3.282-1.921-.634-.37-3.282 1.921z" transform="translate(-440.644 -150.091)" style="fill:#453c9e"/>
                                <path data-name="Path 6137" d="m415.737 230.056-4.551 2.664-.634-.37 4.551-2.664z" transform="translate(-400.903 -155.889)" style="fill:#453c9e"/>
                                <path data-name="Path 6138" d="m417.97 233.153-3.577 2.093-.634-.37 3.577-2.093z" transform="translate(-402.661 -157.571)" style="fill:#453c9e"/>
                                <path data-name="Path 6139" d="m420.188 236.267-2.588 1.515-.634-.37 2.588-1.515z" transform="translate(-404.42 -159.262)" style="fill:#453c9e"/>
                                <path data-name="Path 6140" d="m424.571 236.608-3.764 2.2-.634-.37 3.764-2.2z" transform="translate(-406.178 -159.447)" style="fill:#453c9e"/>
                                <path data-name="Path 6141" d="m426.6 239.962-2.588 1.515-.634-.37 2.588-1.515z" transform="translate(-407.937 -161.269)" style="fill:#453c9e"/>
                                <path data-name="Path 6142" d="m430.5 240.921-3.282 1.921-.634-.37 3.282-1.921z" transform="translate(-409.695 -161.789)" style="fill:#453c9e"/>
                                <path data-name="Path 6143" d="m432.216 244.682-1.788 1.047-.634-.37 1.788-1.047z" transform="translate(-411.454 -163.832)" style="fill:#453c9e"/>
                                <path data-name="Path 6144" d="m437.1 244.382-3.465 2.028-.634-.37 3.465-2.028z" transform="translate(-413.212 -163.669)" style="fill:#453c9e"/>
                                <path data-name="Path 6145" d="m440.123 246.464-3.282 1.921-.634-.37 3.282-1.921z" transform="translate(-414.97 -164.8)" style="fill:#453c9e"/>
                                <path data-name="Path 6146" d="m478.353 225.683 1.4-.817-.634-.37-1.4.817z" transform="translate(-437.733 -153.071)" style="fill:#453c9e"/>
                                <path data-name="Path 6147" d="m469.177 229.777 3.142-1.839-.634-.37-3.142 1.839z" transform="translate(-432.701 -154.739)" style="fill:#453c9e"/>
                                <path data-name="Path 6148" d="m427.093 211.265 5.3-3.1-.634-.37-5.3 3.1z" transform="translate(-409.625 -144)" style="fill:#453c9e"/>
                                <path data-name="Path 6149" d="m419.054 218.151 2.088-1.222-.634-.37-2.088 1.222z" transform="translate(-405.217 -148.761)" style="fill:#453c9e"/>
                            </g>
                        </g>
                        <g data-name="Group 3632">
                            <path data-name="Path 8839" d="M12.92.136c7.1-.025 12.856 1.737 12.849 3.935S20 8.071 12.892 8.1.036 6.359.044 4.161 5.816.161 12.92.136z" transform="rotate(-19.288 242.204 -35.933)" style="opacity:.3;fill:#0f054c"/>
                            <g data-name="Group 3631">
                                <g data-name="Group 3619">
                                    <g data-name="Group 3608">
                                        <path data-name="Path 6150" d="m478.724 224.982-.084-2.138-.491-1.252-.312 1.036z" transform="translate(-437.798 -151.494)" style="fill:#dd821f"/>
                                    </g>
                                    <g data-name="Group 3609">
                                        <path data-name="Path 6151" d="m430.6 227.409-.083-2.1s1.753 1.77 1.754 1.814-1.671.286-1.671.286z" transform="translate(-411.85 -153.513)" style="fill:#ffd85a"/>
                                    </g>
                                    <g data-name="Group 3617">
                                        <g data-name="Group 3610">
                                            <path data-name="Path 6152" d="M441.839 221.646c6.123-.148 10.982-3.3 10.853-8.767s-5.2-9.783-11.322-9.634-10.982 4.7-10.853 10.171 5.198 8.379 11.322 8.23z" transform="translate(-411.849 -141.529)" style="fill:#ffd85a"/>
                                        </g>
                                        <g data-name="Group 3611">
                                            <path data-name="Path 10304" d="M11.1.009c6.125 0 11.089 4.433 11.088 9.9S17.22 19.817 11.1 19.818.007 15.385.008 9.915 4.975.01 11.1.009z" transform="rotate(-1.372 2686.492 -740.774)" style="fill:#ffd85a"/>
                                        </g>
                                        <g data-name="Group 3612">
                                            <path data-name="Path 6153" d="M453.757 213.983a9.36 9.36 0 0 1 3.349 6.867c.129 5.47-4.73 10.023-10.853 10.172a11.757 11.757 0 0 1-7.841-2.656z" transform="translate(-416.179 -147.362)" style="fill:#dd821f"/>
                                        </g>
                                        <g data-name="Group 3613">
                                            <path data-name="Path 10305" d="M10.6.008c5.855-.001 10.6 4.235 10.6 9.461s-4.745 9.464-10.6 9.465S.007 14.7.008 9.473 4.753.009 10.6.008z" transform="rotate(-1.372 2704.701 -761.647)" style="fill:#f9bf30"/>
                                        </g>
                                        <g data-name="Group 3614">
                                            <path data-name="Path 10306" d="M8.513.007c4.7 0 8.5 3.4 8.5 7.6s-3.809 7.6-8.507 7.6-8.5-3.4-8.5-7.6 3.809-7.6 8.507-7.6z" transform="rotate(-1.372 2781.645 -849.935)" style="fill:#f2b42a"/>
                                        </g>
                                        <g data-name="Group 3615">
                                            <path data-name="Path 6154" d="M436.424 228.945c0-.174 0-.346.009-.517.392 3.946 4.148 6.982 8.65 6.873s8.11-3.324 8.314-7.284c.017.17.03.342.034.516.1 4.2-3.627 7.688-8.324 7.8s-8.583-3.193-8.683-7.388z" transform="translate(-415.089 -154.983)" style="fill:#ffd85a"/>
                                        </g>
                                        <g data-name="Group 3616">
                                            <path data-name="Path 6155" d="M445.192 213.882c-4.7.114-8.423 3.606-8.324 7.8a6.861 6.861 0 0 0 .5 2.419 6.907 6.907 0 0 1-.95-3.327c-.1-4.195 3.627-7.687 8.324-7.8a8.478 8.478 0 0 1 8.179 4.97 8.641 8.641 0 0 0-7.729-4.062z" transform="translate(-415.089 -146.813)" style="fill:#dd821f"/>
                                        </g>
                                    </g>
                                    <g data-name="Group 3618">
                                        <path data-name="Path 6156" d="M475.118 215.823a7.467 7.467 0 0 1-.095 2.164c-.244-.8-.774-3.2-.774-3.2l-.844-1.907-.7-.586-1.19-.877-.1-2.751a9.421 9.421 0 0 1 3.703 7.157z" transform="translate(-434.275 -144.473)" style="fill:#dd821f"/>
                                    </g>
                                </g>
                                <g data-name="Group 3630">
                                    <g data-name="Group 3620">
                                        <path data-name="Path 6157" d="m431.668 222.878-.047-.564a.141.141 0 0 0-.139-.143h-.042a.142.142 0 0 0-.132.15l.047.563a.141.141 0 0 0 .139.143h.042a.141.141 0 0 0 .132-.149z" transform="translate(-412.285 -151.809)" style="fill:#dd821f"/>
                                    </g>
                                    <g data-name="Group 3621">
                                        <path data-name="Path 6158" d="m433.7 217.593-.057-1.013a.161.161 0 0 0-.159-.163h-.1a.161.161 0 0 0-.151.17l.057 1.013a.161.161 0 0 0 .159.163h.1a.161.161 0 0 0 .151-.17z" transform="translate(-413.342 -148.684)" style="fill:#dd821f"/>
                                    </g>
                                    <g data-name="Group 3622">
                                        <path data-name="Path 6159" d="m436.553 213.483-.056-.982a.181.181 0 0 0-.179-.184h-.17a.181.181 0 0 0-.17.192l.056.983a.182.182 0 0 0 .179.184h.169a.182.182 0 0 0 .171-.193z" transform="translate(-414.845 -146.458)" style="fill:#dd821f"/>
                                    </g>
                                    <g data-name="Group 3623">
                                        <path data-name="Path 6160" d="m441.023 209.908-.061-1.19a.182.182 0 0 0-.179-.184h-.17a.182.182 0 0 0-.17.192l.061 1.191a.182.182 0 0 0 .179.184h.17a.182.182 0 0 0 .17-.193z" transform="translate(-417.293 -144.403)" style="fill:#dd821f"/>
                                    </g>
                                    <g data-name="Group 3624">
                                        <path data-name="Path 6161" d="m445.522 207.506-.066-1.371a.181.181 0 0 0-.179-.184h-.17a.182.182 0 0 0-.17.192l.066 1.372a.182.182 0 0 0 .179.184h.17a.182.182 0 0 0 .17-.193z" transform="translate(-419.758 -143.001)" style="fill:#dd821f"/>
                                    </g>
                                    <g data-name="Group 3625">
                                        <path data-name="Path 6162" d="m450.047 206.237-.064-1.318a.181.181 0 0 0-.179-.184h-.169a.181.181 0 0 0-.17.192l.064 1.318a.182.182 0 0 0 .179.184h.17a.182.182 0 0 0 .169-.192z" transform="translate(-422.24 -142.341)" style="fill:#dd821f"/>
                                    </g>
                                    <g data-name="Group 3626">
                                        <path data-name="Path 6163" d="m454.592 205.758-.065-1.339a.182.182 0 0 0-.179-.184h-.169a.182.182 0 0 0-.17.193l.065 1.338a.182.182 0 0 0 .179.184h.17a.182.182 0 0 0 .169-.192z" transform="translate(-424.732 -142.069)" style="fill:#dd821f"/>
                                    </g>
                                    <g data-name="Group 3627">
                                        <path data-name="Path 6164" d="m459.152 205.955-.063-1.254a.183.183 0 0 0-.179-.184h-.17a.182.182 0 0 0-.17.193l.063 1.254a.182.182 0 0 0 .179.184h.17a.182.182 0 0 0 .17-.193z" transform="translate(-427.233 -142.222)" style="fill:#dd821f"/>
                                    </g>
                                    <g data-name="Group 3628">
                                        <path data-name="Path 6165" d="m463.733 207-.062-1.214a.182.182 0 0 0-.179-.184h-.17a.182.182 0 0 0-.17.192l.062 1.215a.182.182 0 0 0 .179.184h.169a.182.182 0 0 0 .171-.193z" transform="translate(-429.745 -142.811)" style="fill:#dd821f"/>
                                    </g>
                                    <g data-name="Group 3629">
                                        <path data-name="Path 6166" d="m468.339 209.118-.064-1.315a.182.182 0 0 0-.179-.184h-.17a.182.182 0 0 0-.17.193l.065 1.314a.181.181 0 0 0 .179.184h.17a.182.182 0 0 0 .169-.192z" transform="translate(-432.27 -143.907)" style="fill:#dd821f"/>
                                    </g>
                                </g>
                            </g>
                        </g>
                    </g>
                </g>
            </g>
        </g>
        <g data-name="Group 3728">
            <path data-name="Path 6168" d="m291.272 321.575-50.877-32.36 20.725-13.158 32.258 22.737 14.637 18.457z" transform="translate(-240.395 -171.441)" style="opacity:.5;fill:#0f054c"/>
            <g data-name="Group 3665">
                <path data-name="Path 8840" d="M10.036.106c5.518-.019 9.986 1.349 9.98 3.056s-4.484 3.107-10 3.127S.028 4.939.034 3.232 4.518.125 10.036.106z" transform="rotate(-19.288 301.03 -20.369)" style="opacity:.5;fill:#0f054c"/>
                <g data-name="Group 3664">
                    <g data-name="Group 3652">
                        <g data-name="Group 3637">
                            <path data-name="Path 6169" d="m307.682 238.3.065-1.66.382-.972.242.8z" transform="translate(-277.29 -149.507)" style="fill:#dd821f"/>
                        </g>
                        <g data-name="Group 3638">
                            <path data-name="Path 6170" d="m344.245 240.183.064-1.63s-1.362 1.375-1.363 1.409 1.299.221 1.299.221z" transform="translate(-296.626 -151.076)" style="fill:#ffd85a"/>
                        </g>
                        <g data-name="Group 3650">
                            <g data-name="Group 3639">
                                <path data-name="Path 6171" d="M316.254 235.706c-4.756-.115-8.531-2.562-8.43-6.81s4.038-7.6 8.794-7.483 8.53 3.653 8.43 7.9-4.038 6.509-8.794 6.393z" transform="translate(-277.367 -141.767)" style="fill:#ffd85a"/>
                            </g>
                            <g data-name="Group 3640">
                                <path data-name="Path 10307" d="M7.7.006c4.249 0 7.693 3.855 7.692 8.612s-3.445 8.615-7.692 8.616S.006 13.378.007 8.621 3.453.007 7.7.006z" transform="rotate(-88.628 64.515 32.778)" style="fill:#ffd85a"/>
                            </g>
                            <g data-name="Group 3641">
                                <path data-name="Path 6172" d="M310.281 229.754a7.27 7.27 0 0 0-2.6 5.334c-.1 4.248 3.673 7.786 8.43 7.9a9.13 9.13 0 0 0 6.091-2.063z" transform="translate(-277.288 -146.298)" style="fill:#dd821f"/>
                            </g>
                            <g data-name="Group 3642">
                                <path data-name="Path 10308" d="M7.358.006c4.059 0 7.35 3.683 7.349 8.228s-3.292 8.23-7.352 8.231S.006 12.782.006 8.237 3.3.007 7.358.006z" transform="rotate(-88.628 64.54 32.41)" style="fill:#f9bf30"/>
                            </g>
                            <g data-name="Group 3643">
                                <path data-name="Path 10309" d="M5.907 0c3.259 0 5.9 2.957 5.9 6.605s-2.643 6.607-5.9 6.607S0 10.261.005 6.612 2.648.005 5.907 0z" transform="rotate(-88.628 64.647 30.855)" style="fill:#f2b42a"/>
                            </g>
                            <g data-name="Group 3644">
                                <path data-name="Path 6173" d="M325.333 241.376c0-.135 0-.269-.007-.4-.3 3.065-3.222 5.423-6.719 5.339s-6.3-2.581-6.458-5.658a5.334 5.334 0 0 0-.026.4c-.077 3.258 2.818 5.971 6.465 6.059s6.668-2.482 6.745-5.74z" transform="translate(-279.725 -152.217)" style="fill:#ffd85a"/>
                            </g>
                            <g data-name="Group 3648">
                                <g data-name="Group 3645">
                                    <path data-name="Path 6174" d="m321.016 241.462-1.355-1.27c-1.3.3-3.736.86-5.678 1.322a5.571 5.571 0 0 0 3.2 3.327z" transform="translate(-280.745 -151.966)" style="fill:#ffd85a"/>
                                </g>
                                <g data-name="Group 3646">
                                    <path data-name="Path 6175" d="M324.834 247.3c.216.027.434.043.656.049a6.287 6.287 0 0 0 4.14-1.38l-2.211-2.073z" transform="translate(-286.694 -153.98)" style="fill:#ffd85a"/>
                                </g>
                                <g data-name="Group 3647">
                                    <path data-name="Path 6176" d="m318.015 234.37-2.552-2.392a4.96 4.96 0 0 0-1.832 2.713z" transform="translate(-280.551 -147.506)" style="fill:#ffd85a"/>
                                </g>
                            </g>
                            <g data-name="Group 3649">
                                <path data-name="Path 6177" d="M319 229.675c3.648.089 6.543 2.8 6.465 6.06a5.316 5.316 0 0 1-.392 1.879 5.36 5.36 0 0 0 .737-2.584c.077-3.258-2.817-5.971-6.465-6.06a6.585 6.585 0 0 0-6.353 3.861 6.711 6.711 0 0 1 6.008-3.156z" transform="translate(-280.202 -145.87)" style="fill:#dd821f"/>
                            </g>
                        </g>
                        <g data-name="Group 3651">
                            <path data-name="Path 6178" d="M307.8 231.183a5.811 5.811 0 0 0 .074 1.681c.19-.623.6-2.487.6-2.487l.656-1.482.546-.455.924-.682.076-2.137a7.316 7.316 0 0 0-2.876 5.562z" transform="translate(-277.34 -144.054)" style="fill:#dd821f"/>
                        </g>
                    </g>
                    <g data-name="Group 3663">
                        <g data-name="Group 3653">
                            <path data-name="Path 6179" d="m344.728 236.663.036-.438a.11.11 0 0 1 .108-.111h.033a.109.109 0 0 1 .1.116l-.036.438a.109.109 0 0 1-.108.111h-.033a.11.11 0 0 1-.1-.116z" transform="translate(-297.604 -149.752)" style="fill:#dd821f"/>
                        </g>
                        <g data-name="Group 3654">
                            <path data-name="Path 6180" d="m343.053 232.559.044-.787a.125.125 0 0 1 .123-.127h.075a.125.125 0 0 1 .117.133l-.044.787a.125.125 0 0 1-.123.127h-.075a.125.125 0 0 1-.117-.133z" transform="translate(-296.685 -147.325)" style="fill:#dd821f"/>
                        </g>
                        <g data-name="Group 3655">
                            <path data-name="Path 6181" d="m340.731 229.366.044-.763a.141.141 0 0 1 .139-.143h.132a.141.141 0 0 1 .132.149l-.044.763a.141.141 0 0 1-.139.143h-.132a.141.141 0 0 1-.132-.149z" transform="translate(-295.412 -145.596)" style="fill:#dd821f"/>
                        </g>
                        <g data-name="Group 3656">
                            <path data-name="Path 6182" d="m337.254 226.588.047-.924a.142.142 0 0 1 .139-.143h.132a.141.141 0 0 1 .132.149l-.047.925a.142.142 0 0 1-.14.143h-.131a.142.142 0 0 1-.132-.15z" transform="translate(-293.506 -144)" style="fill:#dd821f"/>
                        </g>
                        <g data-name="Group 3657">
                            <path data-name="Path 6183" d="m333.756 224.723.051-1.065a.141.141 0 0 1 .139-.143h.132a.142.142 0 0 1 .132.149l-.051 1.066a.142.142 0 0 1-.14.143h-.131a.142.142 0 0 1-.132-.15z" transform="translate(-291.587 -142.91)" style="fill:#dd821f"/>
                        </g>
                        <g data-name="Group 3658">
                            <path data-name="Path 6184" d="m330.242 223.737.05-1.024a.141.141 0 0 1 .139-.143h.132a.142.142 0 0 1 .132.15l-.05 1.024a.141.141 0 0 1-.139.143h-.132a.141.141 0 0 1-.132-.15z" transform="translate(-289.661 -142.397)" style="fill:#dd821f"/>
                        </g>
                        <g data-name="Group 3659">
                            <path data-name="Path 6185" d="m326.712 223.365.05-1.039a.142.142 0 0 1 .139-.143h.132a.141.141 0 0 1 .132.149l-.051 1.04a.141.141 0 0 1-.139.143h-.131a.141.141 0 0 1-.132-.15z" transform="translate(-287.725 -142.187)" style="fill:#dd821f"/>
                        </g>
                        <g data-name="Group 3660">
                            <path data-name="Path 6186" d="m323.171 223.518.049-.974a.142.142 0 0 1 .139-.143h.132a.142.142 0 0 1 .132.149l-.049.974a.141.141 0 0 1-.139.143h-.132a.141.141 0 0 1-.132-.149z" transform="translate(-285.783 -142.305)" style="fill:#dd821f"/>
                        </g>
                        <g data-name="Group 3661">
                            <path data-name="Path 6187" d="m319.614 224.33.048-.944a.141.141 0 0 1 .139-.143h.131a.141.141 0 0 1 .132.15l-.048.943a.141.141 0 0 1-.139.143h-.132a.142.142 0 0 1-.131-.149z" transform="translate(-283.833 -142.763)" style="fill:#dd821f"/>
                        </g>
                        <g data-name="Group 3662">
                            <path data-name="Path 6188" d="m316.034 225.975.05-1.021a.142.142 0 0 1 .14-.143h.131a.142.142 0 0 1 .132.149l-.05 1.021a.141.141 0 0 1-.139.143h-.131a.141.141 0 0 1-.133-.149z" transform="translate(-281.87 -143.614)" style="fill:#dd821f"/>
                        </g>
                    </g>
                </g>
            </g>
            <g data-name="Group 3669">
                <g data-name="Group 3667">
                    <g data-name="Group 3666">
                        <path data-name="Path 6189" d="m394.972 331.577-.013 3.444a.136.136 0 0 1-.079.126l-37.019 21.491a.518.518 0 0 1-.471-.021l-6.033-3.546a.208.208 0 0 1-.111-.136v-.011l.013-3.479 2.927 1.693L388.34 331.3a.519.519 0 0 1 .471.021l2.07 1.217z" transform="translate(-301.175 -201.415)" style="fill:url(#gndwry36wh)"/>
                        <path data-name="Path 6190" d="m388.368 323.728-37.019 21.491c-.121.07-.106.193.033.275l6.033 3.546a.517.517 0 0 0 .471.021l37.019-21.491c.121-.07.106-.193-.033-.275l-6.033-3.546a.517.517 0 0 0-.471-.021z" transform="translate(-301.189 -197.302)" style="fill:url(#vsjmdh9k3i)"/>
                        <path data-name="Path 6191" d="m393.923 330.608-29.089 16.578a20.235 20.235 0 0 0-.994-3.515l29.037-16.857a20.066 20.066 0 0 1 1.046 3.794z" transform="translate(-308.083 -199.003)" style="opacity:.6;fill:#24126a"/>
                        <path data-name="Path 6192" d="m393.8 328.095-34.9 20.265c-.083.048-.072.132.023.188l1.516.891a.354.354 0 0 0 .322.014l34.907-20.265c.083-.048.072-.133-.023-.188l-1.516-.891a.354.354 0 0 0-.329-.014z" transform="translate(-305.341 -199.681)" style="fill:#24126a"/>
                        <path data-name="Path 6193" d="m395.663 329.188-.71.412-.818-.481a.355.355 0 0 0-.322-.014l-34.2 19.853-.7-.41c-.095-.056-.105-.14-.023-.188l34.91-20.265a.354.354 0 0 1 .322.015l1.516.891c.098.055.108.139.025.187z" transform="translate(-305.341 -199.681)" style="fill:#453c9e"/>
                    </g>
                    <path data-name="Path 6194" d="m241.428 231.723 29.04-16.859c-.013 5.264 3.622 11.675 8.121 14.319l40.02 23.521c5.288 3.108 9.562 10.644 9.546 16.832l-29.04 16.859c.016-6.188-4.257-13.723-9.546-16.832l-40.019-23.521c-4.5-2.644-8.135-9.055-8.121-14.319z" transform="translate(-240.961 -138.212)" style="fill:url(#xfpfl4riwj);opacity:.96"/>
                    <path data-name="Path 6195" d="m398.154 333.526-29.04 16.859c0-.272-.01-.547-.025-.823l29.038-16.856c.017.275.028.549.027.82z" transform="translate(-310.961 -202.202)" style="opacity:.8;fill:#453c9e"/>
                </g>
                <g data-name="Group 3668" style="opacity:.32">
                    <path data-name="Path 6196" d="m332.352 306.837-6.578 3.819.633.372 6.577-3.819z" transform="translate(-287.211 -188.156)" style="fill:#453c9e"/>
                    <path data-name="Path 6197" d="m344.931 302.552-2.368 1.375.633.372 2.368-1.375z" transform="translate(-296.416 -185.829)" style="fill:#453c9e"/>
                    <path data-name="Path 6198" d="m351.64 299.231-1.609.934.633.372 1.609-.934z" transform="translate(-300.511 -184.025)" style="fill:#453c9e"/>
                    <path data-name="Path 6199" d="m326.158 308.781-3.584 2.081.633.372 3.584-2.081z" transform="translate(-285.456 -189.211)" style="fill:#453c9e"/>
                    <path data-name="Path 6200" d="m337.126 301.925-4.392 2.55.633.372 4.392-2.55z" transform="translate(-291.027 -185.488)" style="fill:#453c9e"/>
                    <path data-name="Path 6201" d="m346.292 298.6-1.609.934.633.372 1.609-.934z" transform="translate(-297.579 -183.685)" style="fill:#453c9e"/>
                    <path data-name="Path 6202" d="m351.8 295.443-1.609.934.633.372 1.609-.934z" transform="translate(-300.599 -181.969)" style="fill:#453c9e"/>
                    <path data-name="Path 6203" d="m321.967 308.181-2.593 1.506.633.372 2.593-1.505z" transform="translate(-283.701 -188.885)" style="fill:#453c9e"/>
                    <path data-name="Path 6204" d="m328.226 305.778-.886.514.633.372.886-.515z" transform="translate(-288.069 -187.581)" style="fill:#453c9e"/>
                    <path data-name="Path 6205" d="m333.136 302.457-1.609.934.633.372 1.609-.934z" transform="translate(-290.365 -185.777)" style="fill:#453c9e"/>
                    <path data-name="Path 6206" d="m325.745 297.457-9.571 5.556.633.372 9.571-5.557z" transform="translate(-281.946 -183.062)" style="fill:#453c9e"/>
                    <path data-name="Path 6207" d="m341.957 293.171-2.368 1.375.633.372 2.368-1.375z" transform="translate(-294.786 -180.735)" style="fill:#453c9e"/>
                    <path data-name="Path 6208" d="m315.566 304.462-2.593 1.505.633.372 2.593-1.505z" transform="translate(-280.191 -186.866)" style="fill:#453c9e"/>
                    <path data-name="Path 6209" d="m326.02 296.731-5.081 2.95.633.372 5.081-2.949z" transform="translate(-284.559 -182.668)" style="fill:#453c9e"/>
                    <path data-name="Path 6210" d="m336.022 293.41-1.609.934.633.372 1.609-.934z" transform="translate(-291.947 -180.865)" style="fill:#453c9e"/>
                    <path data-name="Path 6211" d="m315.079 299.157-5.306 3.08.633.372 5.306-3.08z" transform="translate(-278.436 -183.985)" style="fill:#453c9e"/>
                    <path data-name="Path 6212" d="m327.581 293.006-3.837 2.228.633.372 3.837-2.228z" transform="translate(-286.098 -180.645)" style="fill:#453c9e"/>
                    <path data-name="Path 6213" d="m337.057 288.435-2.593 1.505.633.372 2.593-1.505z" transform="translate(-291.976 -178.163)" style="fill:#453c9e"/>
                    <path data-name="Path 6214" d="m308.365 301.762-1.792 1.04.633.372 1.792-1.04z" transform="translate(-276.682 -185.4)" style="fill:#453c9e"/>
                    <path data-name="Path 6215" d="m315.133 297.477-2.368 1.375.633.372 2.368-1.375z" transform="translate(-280.077 -183.073)" style="fill:#453c9e"/>
                    <path data-name="Path 6216" d="m324.049 291.353-3.816 2.215.633.372 3.816-2.215z" transform="translate(-284.172 -179.747)" style="fill:#453c9e"/>
                    <path data-name="Path 6217" d="m308.861 295.206-5.489 3.187.633.372 5.489-3.187z" transform="translate(-274.927 -181.84)" style="fill:#453c9e"/>
                    <path data-name="Path 6218" d="m322.893 287.4-5.143 2.986.633.372 5.143-2.986z" transform="translate(-282.811 -177.599)" style="fill:#453c9e"/>
                    <path data-name="Path 6219" d="m332.971 284.074-1.609.934.633.372 1.609-.934z" transform="translate(-290.274 -175.795)" style="fill:#453c9e"/>
                    <path data-name="Path 6220" d="m338.526 280.887-1.609.934.633.372 1.609-.934z" transform="translate(-293.32 -174.064)" style="fill:#453c9e"/>
                    <path data-name="Path 6221" d="m303.461 296.142-3.289 1.909.633.372 3.289-1.909z" transform="translate(-273.172 -182.348)" style="fill:#453c9e"/>
                    <path data-name="Path 6222" d="m369.876 286.742 4.561-2.648.633.372-4.561 2.648z" transform="translate(-311.393 -175.806)" style="fill:#453c9e"/>
                    <path data-name="Path 6223" d="m368.839 284.315 3.584-2.081.633.372-3.584 2.081z" transform="translate(-310.824 -174.796)" style="fill:#453c9e"/>
                    <path data-name="Path 6224" d="m367.832 281.881 2.593-1.505.633.372-2.593 1.505z" transform="translate(-310.272 -173.787)" style="fill:#453c9e"/>
                    <path data-name="Path 6225" d="m362.022 280.706 3.772-2.19.633.372-3.772 2.19z" transform="translate(-307.086 -172.777)" style="fill:#453c9e"/>
                    <path data-name="Path 6226" d="m361.431 278.163 2.593-1.505.633.372-2.593 1.506z" transform="translate(-306.762 -171.767)" style="fill:#453c9e"/>
                    <path data-name="Path 6227" d="m356.69 276.708 3.289-1.909.633.372-3.289 1.909z" transform="translate(-304.163 -170.758)" style="fill:#453c9e"/>
                    <path data-name="Path 6228" d="m356.8 273.98 1.792-1.04.633.372-1.792 1.04z" transform="translate(-304.225 -169.748)" style="fill:#453c9e"/>
                    <path data-name="Path 6229" d="m349.883 273.1 3.472-2.016.633.372-3.472 2.016z" transform="translate(-300.43 -168.739)" style="fill:#453c9e"/>
                    <path data-name="Path 6230" d="m347.089 271.13 3.289-1.909.633.372-3.289 1.909z" transform="translate(-298.898 -167.729)" style="fill:#453c9e"/>
                    <path data-name="Path 6231" d="m311.077 293.089-1.4.812.633.372 1.4-.812z" transform="translate(-278.385 -180.69)" style="fill:#453c9e"/>
                    <path data-name="Path 6232" d="M318.147 287.813 315 289.641l.633.372 3.148-1.828z" transform="translate(-281.302 -177.825)" style="fill:#453c9e"/>
                    <path data-name="Path 6233" d="m306.815 273.549-5.313 3.084.633.372 5.313-3.084z" transform="translate(-273.901 -170.079)" style="fill:#453c9e"/>
                    <path data-name="Path 6234" d="m318.78 268.926-2.092 1.215.633.372 2.093-1.215z" transform="translate(-282.228 -167.569)" style="fill:#453c9e"/>
                </g>
            </g>
            <g data-name="Group 3698">
                <path data-name="Path 6235" d="M351.724 292.278c.719 2.078-4.127 5.685-10.824 8.057s-12.708 2.608-13.427.53 4.127-5.685 10.824-8.056 12.708-2.609 13.427-.531z" transform="translate(-288.103 -179.481)" style="opacity:.3;fill:#0f054c"/>
                <g data-name="Group 3697">
                    <g data-name="Group 3685">
                        <g data-name="Group 3670">
                            <path data-name="Path 6236" d="m343.711 273.384.084-2.138.491-1.252.312 1.036z" transform="translate(-297.046 -168.15)" style="fill:#dd821f"/>
                        </g>
                        <g data-name="Group 3671">
                            <path data-name="Path 6237" d="m390.784 275.812.083-2.1s-1.753 1.77-1.754 1.813 1.671.287 1.671.287z" transform="translate(-321.94 -170.169)" style="fill:#ffd85a"/>
                        </g>
                        <g data-name="Group 3683">
                            <g data-name="Group 3672">
                                <path data-name="Path 6238" d="M354.747 270.049c-6.123-.149-10.982-3.3-10.853-8.768s5.2-9.783 11.322-9.634 10.982 4.7 10.853 10.171-5.199 8.382-11.322 8.231z" transform="translate(-297.144 -158.184)" style="fill:#ffd85a"/>
                            </g>
                            <g data-name="Group 3673">
                                <path data-name="Path 10310" d="M9.915.008c5.47 0 9.9 4.963 9.9 11.088s-4.436 11.09-9.907 11.091S.008 17.224.009 11.1 4.445.009 9.915.008z" transform="rotate(-88.628 82.18 33.8)" style="fill:#ffd85a"/>
                            </g>
                            <g data-name="Group 3674">
                                <path data-name="Path 6239" d="M347.057 262.386a9.359 9.359 0 0 0-3.349 6.867c-.129 5.469 4.73 10.023 10.853 10.171a11.756 11.756 0 0 0 7.841-2.656z" transform="translate(-297.042 -164.018)" style="fill:#dd821f"/>
                            </g>
                            <g data-name="Group 3675">
                                <path data-name="Path 10311" d="M9.473.008c5.226 0 9.462 4.742 9.461 10.593S14.7 21.2 9.469 21.2.007 16.455.008 10.6 4.247.009 9.473.008z" transform="rotate(-88.629 82.212 33.327)" style="fill:#f9bf30"/>
                            </g>
                            <g data-name="Group 3676">
                                <path data-name="Path 10312" d="M7.6.006c4.2 0 7.6 3.807 7.6 8.5s-3.4 8.506-7.6 8.507S0 13.206 0 8.513 3.409.007 7.6.006z" transform="rotate(-88.629 82.348 31.325)" style="fill:#f2b42a"/>
                            </g>
                            <g data-name="Group 3677">
                                <path data-name="Path 6240" d="M366.437 277.347c0-.174 0-.346-.009-.517-.392 3.946-4.148 6.982-8.65 6.873s-8.11-3.323-8.314-7.284c-.017.171-.03.342-.034.516-.1 4.195 3.627 7.687 8.324 7.8s8.583-3.193 8.683-7.388z" transform="translate(-300.181 -171.638)" style="fill:#ffd85a"/>
                            </g>
                            <g data-name="Group 3681">
                                <g data-name="Group 3678">
                                    <path data-name="Path 6241" d="m360.879 277.459-1.744-1.634c-1.679.385-4.81 1.107-7.31 1.7a7.173 7.173 0 0 0 4.119 4.284z" transform="translate(-301.494 -171.315)" style="fill:#ffd85a"/>
                                </g>
                                <g data-name="Group 3679">
                                    <path data-name="Path 6242" d="M365.794 284.98c.277.034.559.056.845.063a8.09 8.09 0 0 0 5.331-1.777l-2.847-2.668z" transform="translate(-309.155 -173.907)" style="fill:#ffd85a"/>
                                </g>
                                <g data-name="Group 3680">
                                    <path data-name="Path 6243" d="m357.014 268.328-3.285-3.08a6.387 6.387 0 0 0-2.36 3.493z" transform="translate(-301.245 -165.572)" style="fill:#ffd85a"/>
                                </g>
                            </g>
                            <g data-name="Group 3682">
                                <path data-name="Path 6244" d="M358.283 262.284c4.7.114 8.423 3.607 8.324 7.8a6.851 6.851 0 0 1-.5 2.419 6.906 6.906 0 0 0 .95-3.327c.1-4.195-3.627-7.687-8.324-7.8a8.477 8.477 0 0 0-8.179 4.97 8.642 8.642 0 0 1 7.729-4.062z" transform="translate(-300.795 -163.468)" style="fill:#dd821f"/>
                            </g>
                        </g>
                        <g data-name="Group 3684">
                            <path data-name="Path 6245" d="M343.859 264.225a7.459 7.459 0 0 0 .095 2.164c.244-.8.774-3.2.774-3.2l.844-1.907.7-.586 1.19-.878.1-2.751a9.421 9.421 0 0 0-3.703 7.158z" transform="translate(-297.11 -161.128)" style="fill:#dd821f"/>
                        </g>
                    </g>
                    <g data-name="Group 3696">
                        <g data-name="Group 3686">
                            <path data-name="Path 6246" d="m391.407 271.28.046-.564a.141.141 0 0 1 .139-.143h.042a.141.141 0 0 1 .132.149l-.046.564a.141.141 0 0 1-.139.143h-.042a.141.141 0 0 1-.132-.149z" transform="translate(-323.199 -168.463)" style="fill:#dd821f"/>
                        </g>
                        <g data-name="Group 3687">
                            <path data-name="Path 6247" d="m389.249 266 .057-1.014a.161.161 0 0 1 .159-.163h.1a.161.161 0 0 1 .151.17l-.057 1.013a.161.161 0 0 1-.158.163h-.1a.161.161 0 0 1-.152-.169z" transform="translate(-322.016 -165.339)" style="fill:#dd821f"/>
                        </g>
                        <g data-name="Group 3688">
                            <path data-name="Path 6248" d="m386.26 261.886.056-.982a.182.182 0 0 1 .179-.184h.17a.182.182 0 0 1 .17.192l-.056.982a.182.182 0 0 1-.179.184h-.169a.182.182 0 0 1-.171-.192z" transform="translate(-320.377 -163.112)" style="fill:#dd821f"/>
                        </g>
                        <g data-name="Group 3689">
                            <path data-name="Path 6249" d="m381.783 258.31.061-1.19a.182.182 0 0 1 .179-.184h.17a.183.183 0 0 1 .17.193l-.061 1.19a.182.182 0 0 1-.179.184h-.17a.183.183 0 0 1-.17-.193z" transform="translate(-317.922 -161.057)" style="fill:#dd821f"/>
                        </g>
                        <g data-name="Group 3690">
                            <path data-name="Path 6250" d="m377.28 255.909.065-1.372a.182.182 0 0 1 .179-.184h.17a.182.182 0 0 1 .17.192l-.066 1.372a.181.181 0 0 1-.179.184h-.17a.182.182 0 0 1-.169-.192z" transform="translate(-315.453 -159.655)" style="fill:#dd821f"/>
                        </g>
                        <g data-name="Group 3691">
                            <path data-name="Path 6251" d="m372.756 254.639.065-1.318a.182.182 0 0 1 .179-.184h.17a.182.182 0 0 1 .17.192l-.064 1.318a.183.183 0 0 1-.179.184h-.17a.182.182 0 0 1-.171-.192z" transform="translate(-312.972 -158.995)" style="fill:#dd821f"/>
                        </g>
                        <g data-name="Group 3692">
                            <path data-name="Path 6252" d="m368.211 254.16.065-1.338a.181.181 0 0 1 .179-.184h.169a.182.182 0 0 1 .17.192l-.065 1.338a.182.182 0 0 1-.179.184h-.17a.182.182 0 0 1-.169-.192z" transform="translate(-310.48 -158.724)" style="fill:#dd821f"/>
                        </g>
                        <g data-name="Group 3693">
                            <path data-name="Path 6253" d="m363.653 254.357.063-1.254a.182.182 0 0 1 .179-.184h.17a.182.182 0 0 1 .17.192l-.063 1.254a.182.182 0 0 1-.179.184h-.17a.182.182 0 0 1-.17-.192z" transform="translate(-307.981 -158.877)" style="fill:#dd821f"/>
                        </g>
                        <g data-name="Group 3694">
                            <path data-name="Path 6254" d="m359.073 255.4.062-1.215a.182.182 0 0 1 .179-.184h.17a.182.182 0 0 1 .17.193l-.062 1.214a.182.182 0 0 1-.179.184h-.17a.182.182 0 0 1-.17-.192z" transform="translate(-305.469 -159.465)" style="fill:#dd821f"/>
                        </g>
                        <g data-name="Group 3695">
                            <path data-name="Path 6255" d="m354.464 257.52.064-1.315a.182.182 0 0 1 .179-.184h.17a.182.182 0 0 1 .17.192l-.065 1.314a.181.181 0 0 1-.179.184h-.17a.182.182 0 0 1-.169-.191z" transform="translate(-302.942 -160.562)" style="fill:#dd821f"/>
                        </g>
                    </g>
                </g>
            </g>
            <g data-name="Group 3727">
                <path data-name="Path 8841" d="M11.343.119C17.579.1 22.63 1.644 22.623 3.574s-5.068 3.512-11.3 3.534S.032 5.583.038 3.653 5.106.141 11.343.119z" transform="rotate(-19.27 426.246 68.014)" style="opacity:.5;fill:#0f054c"/>
                <g data-name="Group 3726">
                    <g data-name="Group 3714">
                        <g data-name="Group 3699">
                            <path data-name="Path 6256" d="m260.482 336.229.074-1.877.431-1.1.274.91z" transform="translate(-251.409 -202.5)" style="fill:#dd821f"/>
                        </g>
                        <g data-name="Group 3700">
                            <path data-name="Path 6257" d="m301.808 338.36.073-1.842s-1.539 1.554-1.54 1.592 1.467.25 1.467.25z" transform="translate(-273.265 -204.273)" style="fill:#ffd85a"/>
                        </g>
                        <g data-name="Group 3712">
                            <g data-name="Group 3701">
                                <path data-name="Path 6258" d="M270.17 333.3c-5.376-.13-9.642-2.9-9.528-7.7s4.564-8.588 9.94-8.458 9.642 4.128 9.528 8.93-4.564 7.359-9.94 7.228z" transform="translate(-251.496 -193.751)" style="fill:#ffd85a"/>
                            </g>
                            <g data-name="Group 3702">
                                <path data-name="Path 10313" d="M8.7.007c4.8 0 8.695 4.357 8.694 9.734S13.5 19.478 8.7 19.479.007 15.121.008 9.744 3.9.008 8.7.007z" transform="rotate(-88.628 77.372 66.68)" style="fill:#ffd85a"/>
                            </g>
                            <g data-name="Group 3703">
                                <path data-name="Path 6259" d="M263.42 326.573a8.218 8.218 0 0 0-2.94 6.028c-.113 4.8 4.152 8.8 9.528 8.93a10.32 10.32 0 0 0 6.884-2.332z" transform="translate(-251.407 -198.872)" style="fill:#dd821f"/>
                            </g>
                            <g data-name="Group 3704">
                                <path data-name="Path 10314" d="M8.317.007c4.588 0 8.307 4.163 8.306 9.3s-3.721 9.3-8.309 9.3S.006 14.447.007 9.31 3.728.008 8.317.007z" transform="rotate(-88.629 77.399 66.264)" style="fill:#f9bf30"/>
                            </g>
                            <g data-name="Group 3705">
                                <path data-name="Path 10315" d="M6.676.005c3.683 0 6.669 3.342 6.668 7.466s-2.987 7.468-6.671 7.468S.005 11.6.006 7.474 2.993.006 6.676.005z" transform="rotate(-88.63 77.5 64.487)" style="fill:#f2b42a"/>
                            </g>
                            <g data-name="Group 3706">
                                <path data-name="Path 6260" d="M280.433 339.709c0-.153 0-.3-.009-.454-.343 3.465-3.641 6.13-7.594 6.034s-7.12-2.918-7.3-6.4c-.015.149-.026.3-.03.453-.087 3.683 3.185 6.749 7.308 6.849s7.538-2.799 7.625-6.482z" transform="translate(-254.161 -205.563)" style="fill:#ffd85a"/>
                            </g>
                            <g data-name="Group 3710">
                                <g data-name="Group 3707">
                                    <path data-name="Path 6261" d="m275.553 339.806-1.531-1.435c-1.475.338-4.223.972-6.418 1.493a6.3 6.3 0 0 0 3.616 3.76z" transform="translate(-255.315 -205.279)" style="fill:#ffd85a"/>
                                </g>
                                <g data-name="Group 3708">
                                    <path data-name="Path 6262" d="M279.869 346.409c.243.03.491.049.742.056a7.1 7.1 0 0 0 4.68-1.56l-2.5-2.342z" transform="translate(-262.04 -207.555)" style="fill:#ffd85a"/>
                                </g>
                                <g data-name="Group 3709">
                                    <path data-name="Path 6263" d="m272.161 331.789-2.885-2.7a5.608 5.608 0 0 0-2.071 3.066z" transform="translate(-255.096 -200.237)" style="fill:#ffd85a"/>
                                </g>
                            </g>
                            <g data-name="Group 3711">
                                <path data-name="Path 6264" d="M273.275 326.483c4.123.1 7.395 3.166 7.308 6.849a6.01 6.01 0 0 1-.443 2.124 6.064 6.064 0 0 0 .834-2.921c.087-3.683-3.185-6.749-7.308-6.849a7.443 7.443 0 0 0-7.181 4.364 7.587 7.587 0 0 1 6.79-3.567z" transform="translate(-254.701 -198.39)" style="fill:#dd821f"/>
                            </g>
                        </g>
                        <g data-name="Group 3713">
                            <path data-name="Path 6265" d="M260.612 328.188a6.559 6.559 0 0 0 .084 1.9c.214-.7.679-2.811.679-2.811l.741-1.675.617-.515 1.045-.77.086-2.415a8.271 8.271 0 0 0-3.252 6.286z" transform="translate(-251.466 -196.336)" style="fill:#dd821f"/>
                        </g>
                    </g>
                    <g data-name="Group 3725">
                        <g data-name="Group 3715">
                            <path data-name="Path 6266" d="m302.355 334.382.041-.495a.124.124 0 0 1 .122-.126h.037a.125.125 0 0 1 .116.132l-.041.495a.124.124 0 0 1-.122.125h-.037a.125.125 0 0 1-.116-.131z" transform="translate(-274.37 -202.775)" style="fill:#dd821f"/>
                        </g>
                        <g data-name="Group 3716">
                            <path data-name="Path 6267" d="m300.461 329.743.05-.89a.142.142 0 0 1 .14-.143h.085a.141.141 0 0 1 .132.15l-.05.889a.141.141 0 0 1-.139.143h-.085a.142.142 0 0 1-.133-.149z" transform="translate(-273.331 -200.033)" style="fill:#dd821f"/>
                        </g>
                        <g data-name="Group 3717">
                            <path data-name="Path 6268" d="m297.837 326.134.049-.863a.16.16 0 0 1 .158-.161h.149a.159.159 0 0 1 .149.169l-.049.862a.16.16 0 0 1-.158.162h-.149a.16.16 0 0 1-.149-.169z" transform="translate(-271.893 -198.078)" style="fill:#dd821f"/>
                        </g>
                        <g data-name="Group 3718">
                            <path data-name="Path 6269" d="m293.907 322.995.054-1.045a.16.16 0 0 1 .158-.162h.149a.16.16 0 0 1 .149.169l-.054 1.045a.16.16 0 0 1-.157.162h-.149a.16.16 0 0 1-.15-.169z" transform="translate(-269.738 -196.274)" style="fill:#dd821f"/>
                        </g>
                        <g data-name="Group 3719">
                            <path data-name="Path 6270" d="m289.953 320.887.058-1.2a.16.16 0 0 1 .157-.162h.149a.159.159 0 0 1 .15.169l-.058 1.2a.16.16 0 0 1-.157.162h-.149a.16.16 0 0 1-.15-.169z" transform="translate(-267.57 -195.043)" style="fill:#dd821f"/>
                        </g>
                        <g data-name="Group 3720">
                            <path data-name="Path 6271" d="m285.982 319.772.056-1.157a.16.16 0 0 1 .157-.162h.149a.16.16 0 0 1 .149.169l-.056 1.157a.16.16 0 0 1-.158.162h-.149a.16.16 0 0 1-.148-.169z" transform="translate(-265.392 -194.463)" style="fill:#dd821f"/>
                        </g>
                        <g data-name="Group 3721">
                            <path data-name="Path 6272" d="m281.991 319.352.057-1.175a.159.159 0 0 1 .157-.162h.149a.16.16 0 0 1 .15.169l-.057 1.175a.159.159 0 0 1-.157.162h-.149a.161.161 0 0 1-.15-.169z" transform="translate(-263.204 -194.225)" style="fill:#dd821f"/>
                        </g>
                        <g data-name="Group 3722">
                            <path data-name="Path 6273" d="m277.99 319.524.055-1.1a.16.16 0 0 1 .157-.161h.149a.16.16 0 0 1 .15.169l-.055 1.1a.16.16 0 0 1-.158.162h-.149a.16.16 0 0 1-.149-.17z" transform="translate(-261.01 -194.359)" style="fill:#dd821f"/>
                        </g>
                        <g data-name="Group 3723">
                            <path data-name="Path 6274" d="m273.969 320.442.054-1.066a.16.16 0 0 1 .158-.162h.149a.16.16 0 0 1 .149.169l-.055 1.066a.16.16 0 0 1-.157.162h-.149a.16.16 0 0 1-.149-.169z" transform="translate(-258.805 -194.876)" style="fill:#dd821f"/>
                        </g>
                        <g data-name="Group 3724">
                            <path data-name="Path 6275" d="m269.922 322.3.056-1.154a.16.16 0 0 1 .158-.161h.149a.16.16 0 0 1 .149.169l-.056 1.154a.159.159 0 0 1-.157.162h-.149a.16.16 0 0 1-.15-.17z" transform="translate(-256.586 -195.838)" style="fill:#dd821f"/>
                        </g>
                    </g>
                </g>
            </g>
        </g>
        <g data-name="Group 3730">
            <g data-name="Group 3729" style="mix-blend-mode:lighten;isolation:isolate">
                <path data-name="Path 6276" d="m423.081 150.509-4.526-2.644v-1.005l4.526 2.643z" transform="translate(-338.086 -101.284)" style="fill:#8686f2"/>
                <path data-name="Path 6277" d="m431.736 155.486-1.629-.952v-1.006l1.629.952z" transform="translate(-344.419 -104.905)" style="fill:#8686f2"/>
                <path data-name="Path 6278" d="m436.352 158.147-1.107-.647v-1.005l1.107.647z" transform="translate(-347.237 -106.516)" style="fill:#8686f2"/>
                <path data-name="Path 6279" d="m421.022 154.332-2.466-1.44v-1.005l2.466 1.44z" transform="translate(-338.086 -104.013)" style="fill:#8686f2"/>
                <path data-name="Path 6280" d="m428.568 158.693-3.022-1.765v-1.006l3.022 1.765z" transform="translate(-341.919 -106.205)" style="fill:#8686f2"/>
                <path data-name="Path 6281" d="m434.874 162.321-1.107-.647v-1.006l1.107.647z" transform="translate(-346.427 -108.782)" style="fill:#8686f2"/>
                <path data-name="Path 6282" d="m438.664 164.508-1.107-.647v-1.006l1.107.647z" transform="translate(-348.504 -109.97)" style="fill:#8686f2"/>
                <path data-name="Path 6283" d="m420.34 158.96-1.784-1.042v-1.005l1.784 1.042z" transform="translate(-338.086 -106.743)" style="fill:#8686f2"/>
                <path data-name="Path 6284" d="m424.646 161.439-.61-.356v-1.006l.61.356z" transform="translate(-341.091 -108.461)" style="fill:#8686f2"/>
                <path data-name="Path 6285" d="m428.025 163.392-1.107-.647v-1.005l1.107.647z" transform="translate(-342.671 -109.364)" style="fill:#8686f2"/>
                <path data-name="Path 6286" d="m425.141 166.791-6.585-3.847v-1.005l6.585 3.847z" transform="translate(-338.086 -109.472)" style="fill:#8686f2"/>
                <path data-name="Path 6287" d="m436.3 173.2-1.629-.952v-1.008l1.629.952z" transform="translate(-346.92 -114.523)" style="fill:#8686f2"/>
                <path data-name="Path 6288" d="m420.34 169.013-1.784-1.042v-1.005l1.784 1.042z" transform="translate(-338.086 -112.202)" style="fill:#8686f2"/>
                <path data-name="Path 6289" d="m427.532 173.177-3.5-2.042v-1.005l3.5 2.042z" transform="translate(-341.091 -113.92)" style="fill:#8686f2"/>
                <path data-name="Path 6290" d="m434.414 177.134-1.107-.647v-1.005l1.107.647z" transform="translate(-346.174 -116.826)" style="fill:#8686f2"/>
                <path data-name="Path 6291" d="m422.206 175.13-3.65-2.13v-1.005l3.65 2.132z" transform="translate(-338.086 -114.931)" style="fill:#8686f2"/>
                <path data-name="Path 6292" d="m430.809 180.089-2.64-1.542v-1.006l2.64 1.542z" transform="translate(-343.357 -117.945)" style="fill:#8686f2"/>
                <path data-name="Path 6293" d="m437.328 183.848-1.784-1.042V181.8l1.784 1.042z" transform="translate(-347.401 -120.257)" style="fill:#8686f2"/>
                <path data-name="Path 6294" d="m419.789 178.744-1.233-.72v-1.006l1.233.72z" transform="translate(-338.086 -117.66)" style="fill:#8686f2"/>
                <path data-name="Path 6295" d="m424.446 181.435-1.629-.952v-1.006l1.629.952z" transform="translate(-340.422 -118.996)" style="fill:#8686f2"/>
                <path data-name="Path 6296" d="m430.58 184.984-2.625-1.534v-1.006l2.625 1.534z" transform="translate(-343.239 -120.607)" style="fill:#8686f2"/>
                <path data-name="Path 6297" d="m422.332 185.256-3.777-2.206v-1.006l3.777 2.206z" transform="translate(-338.086 -120.39)" style="fill:#8686f2"/>
                <path data-name="Path 6298" d="m431.987 190.828-3.539-2.067v-1.005l3.539 2.067z" transform="translate(-343.51 -123.491)" style="fill:#8686f2"/>
                <path data-name="Path 6299" d="m438.921 194.815-1.107-.647v-1.006l1.107.647z" transform="translate(-348.645 -126.427)" style="fill:#8686f2"/>
                <path data-name="Path 6300" d="m442.742 197.022-1.107-.647v-1.005l1.107.647z" transform="translate(-350.741 -127.626)" style="fill:#8686f2"/>
                <path data-name="Path 6301" d="m420.819 189.4-2.263-1.322v-1.005l2.263 1.322z" transform="translate(-338.086 -123.119)" style="fill:#8686f2"/>
                <path data-name="Path 6302" d="m444.518 162.854 3.138 1.833v-1.006l-3.138-1.833z" transform="translate(-352.321 -109.423)" style="fill:#8686f2"/>
                <path data-name="Path 6303" d="m446.005 168.74 2.466 1.44v-1.005l-2.466-1.44z" transform="translate(-353.137 -112.619)" style="fill:#8686f2"/>
                <path data-name="Path 6304" d="m447.515 174.637 1.784 1.042v-1.005l-1.784-1.042z" transform="translate(-353.965 -115.822)" style="fill:#8686f2"/>
                <path data-name="Path 6305" d="m445.719 178.627 2.6 1.516v-1.005l-2.6-1.516z" transform="translate(-352.98 -117.988)" style="fill:#8686f2"/>
                <path data-name="Path 6306" d="m447.515 184.69 1.784 1.042v-1.005l-1.784-1.042z" transform="translate(-353.965 -121.281)" style="fill:#8686f2"/>
                <path data-name="Path 6307" d="m446.455 189.1 2.263 1.322v-1.006l-2.263-1.322z" transform="translate(-353.384 -123.678)" style="fill:#8686f2"/>
                <path data-name="Path 6308" d="m448.735 195.448 1.233.72v-1.006l-1.233-.72z" transform="translate(-354.634 -127.122)" style="fill:#8686f2"/>
                <path data-name="Path 6309" d="m446.176 199 2.389 1.4v-1.006l-2.389-1.4z" transform="translate(-353.231 -129.049)" style="fill:#8686f2"/>
                <path data-name="Path 6310" d="m446.455 204.184 2.263 1.322V204.5l-2.263-1.322z" transform="translate(-353.384 -131.866)" style="fill:#8686f2"/>
                <path data-name="Path 6311" d="m426.059 192.415-.962-.562v-1.005l.962.562z" transform="translate(-341.672 -125.17)" style="fill:#8686f2"/>
                <path data-name="Path 6312" d="m430.923 195.232-2.166-1.265v-1.006l2.166 1.265z" transform="translate(-343.68 -126.318)" style="fill:#8686f2"/>
                <path data-name="Path 6313" d="m433.083 211.106-3.655-2.135v-1.005l3.655 2.135z" transform="translate(-344.047 -134.465)" style="fill:#8686f2"/>
                <path data-name="Path 6314" d="m441.315 215.844-1.44-.841V214l1.44.841z" transform="translate(-349.776 -137.741)" style="fill:#8686f2"/>
            </g>
            <path data-name="Path 6315" d="M431.431 178.578a.773.773 0 0 1-.386-.115L405.8 163.716a1.983 1.983 0 0 1-.835-1.6v-36.947a.848.848 0 0 1 .348-.767.648.648 0 0 1 .668.039l25.244 14.746a1.983 1.983 0 0 1 .835 1.6v36.951a.848.848 0 0 1-.348.767.554.554 0 0 1-.281.073zm-.205-.433a.314.314 0 0 0 .306.04.516.516 0 0 0 .166-.45v-36.951a1.633 1.633 0 0 0-.653-1.279L405.8 124.759a.315.315 0 0 0-.306-.04.517.517 0 0 0-.166.45v36.951a1.633 1.633 0 0 0 .653 1.279z" transform="translate(-330.634 -89.048)" style="fill:#8686f2;mix-blend-mode:lighten;isolation:isolate"/>
        </g>
    </g>
</svg>
