<svg xmlns="http://www.w3.org/2000/svg" width="223.302" height="147.379" viewBox="0 0 223.302 147.379">
    <path data-name="Subtraction 13" d="M207.3 147.379H13.787a46.029 46.029 0 0 1-6.427-8.059 49.666 49.666 0 0 1-4.631-9.388 44.582 44.582 0 0 1-2.445-9.958 34.472 34.472 0 0 1 .133-9.774A24.021 24.021 0 0 1 14 91.826c3.4-1.667 6.849-3.133 10.183-4.55l.04-.017c7.352-3.125 14.3-6.077 18.612-10.364a15.118 15.118 0 0 0 4.345-7.673 21.719 21.719 0 0 0-.872-10.973 24.94 24.94 0 0 1-.9-5.581 42.63 42.63 0 0 1 .235-7.414 48.99 48.99 0 0 1 5.431-17.41 43.883 43.883 0 0 1 10.56-12.975A49.329 49.329 0 0 1 79.361 5.6 59.19 59.19 0 0 1 96.4 3.3a106.1 106.1 0 0 1 17.876 1.707c5.9 1.011 11.8 2.354 17.828 3.758l1.345.313c11.369 2.649 22.108 5.151 31.853 5.151 7.794 0 14.131-1.643 19.373-5.023a65.039 65.039 0 0 1 14.162-7.057A38.09 38.09 0 0 1 211.017 0 30.007 30.007 0 0 1 223.3 2.609v128.769a16 16 0 0 1-16 16z" transform="translate(-.001)" style="opacity:.2"/>
</svg>
