<svg data-name="Group 5319" xmlns="http://www.w3.org/2000/svg" width="60" height="60" viewBox="0 0 60 60">
    <g data-name="Group 5318">
        <g data-name="Group 3466">
            <g data-name="Group 1517">
                <g data-name="009-insurance">
                    <g data-name="Group 4240">
                        <g data-name="Group 4239">
                            <path data-name="Path 6820" d="M440.954 172.56a.878.878 0 1 0-1.629.653.728.728 0 0 0 .022.049 20.931 20.931 0 0 1 1.748 8.425.878.878 0 1 0 1.755 0 22.652 22.652 0 0 0-1.896-9.127z" transform="translate(-387.294 -148.767)" style="fill:#544ec8"/>
                        </g>
                    </g>
                    <g data-name="Group 4242">
                        <g data-name="Group 4241">
                            <path data-name="Path 6821" d="M97.549 52.236a22.8 22.8 0 0 0-17.337 7.986.878.878 0 1 0 1.334 1.141 21.043 21.043 0 0 1 16-7.372.878.878 0 1 0 0-1.755z" transform="translate(-67.443 -42.132)" style="fill:#544ec8"/>
                        </g>
                    </g>
                    <g data-name="Group 4244">
                        <g data-name="Group 4243">
                            <path data-name="Path 6822" d="m51.848 160.751-5.84-5.844a5.311 5.311 0 0 0-1.081-.827 4.388 4.388 0 1 0-5.47.114 5.2 5.2 0 0 0-.871.7l-1.6 1.515a1.4 1.4 0 0 1-1.98-.04l-5.843-5.844a5.222 5.222 0 0 0-.813-.663 5.265 5.265 0 1 0-5.812 0 5.255 5.255 0 0 0-.813.663L17.259 155l-3.939-2.83a5.264 5.264 0 0 0-.733-.582 5.333 5.333 0 0 0 .971-.85h2.235a.878.878 0 0 0 .785-1.27l-1.953-3.908a5.136 5.136 0 0 0-.675-1.36.856.856 0 0 0-.194-.249 5.225 5.225 0 0 0-8.273.088 1.039 1.039 0 0 0-.095.122 5.242 5.242 0 0 0-.7 1.394l-1.958 3.912a.878.878 0 0 0 .778 1.272h2.241a5.291 5.291 0 0 0 .965.842 5.245 5.245 0 0 0-.785.642L.8 157.408a2.739 2.739 0 0 0 3.712 4.022l-1.856 7.459a.878.878 0 0 0 .849 1.1h1.757v2.633a2.626 2.626 0 0 0 4.388 1.948 2.626 2.626 0 0 0 4.388-1.948v-2.633h1.755a.877.877 0 0 0 .852-1.09l-2.165-8.708 1.211.626a3.464 3.464 0 0 0 1.693.395.963.963 0 0 0 .169 0c.039 0 .079.006.1.006a2.758 2.758 0 0 0 1.938-.8l1.466-1.466v13.678a2.623 2.623 0 0 0 4.388 1.948 2.626 2.626 0 0 0 4.388-1.948v-13.69l2.808 2.808a4.638 4.638 0 0 0 5.09 1.062v9.808a2.623 2.623 0 0 0 4.388 1.948 2.626 2.626 0 0 0 4.388-1.948v-9.375l1.466 1.382a2.739 2.739 0 0 0 3.874-3.874zm-9.728-12.645a2.633 2.633 0 1 1-2.633 2.633 2.633 2.633 0 0 1 2.633-2.633zm-20.184-2.633a3.51 3.51 0 1 1 3.51 3.51 3.51 3.51 0 0 1-3.51-3.51zm-15.775 3.51H4.932l1.348-2.7a.94.94 0 0 0 .051-.123 3.513 3.513 0 0 1 .484-.978.913.913 0 0 0 .047-.058 3.472 3.472 0 0 1 5.581 0c.014.019.03.038.046.056a3.48 3.48 0 0 1 .486.98.94.94 0 0 0 .051.123l1.35 2.7h-1.228a.878.878 0 0 0-.7.351 3.468 3.468 0 0 1-2.533 1.373 4.981 4.981 0 0 0-.537 0 3.469 3.469 0 0 1-2.513-1.373.878.878 0 0 0-.704-.351zm44.448 14.4a.984.984 0 0 1-.695.288 1.011 1.011 0 0 1-.714-.305l-2.964-2.8a.878.878 0 0 0-1.483.642v11.408a.878.878 0 1 1-1.755 0v-6.566a.878.878 0 1 0-1.755 0v6.566a.878.878 0 1 1-1.755 0v-11.407a.878.878 0 0 0-1.48-.639 2.887 2.887 0 0 1-4.083-.026l-.042-.043-4.3-4.3a.878.878 0 0 0-1.5.62v15.8a.878.878 0 1 1-1.755 0v-10.534a.878.878 0 0 0-1.755 0v10.531a.878.878 0 1 1-1.755 0v-15.8a.878.878 0 0 0-1.5-.62l-2.962 2.962a.986.986 0 0 1-.635.29c-.023 0-.088-.011-.114-.012s-.046 0-.068 0a.817.817 0 0 0-.123 0 .3.3 0 0 0-.088.013 1.8 1.8 0 0 1-.823-.2l-2.934-1.517a.878.878 0 0 0-1.255.991l2.362 9.5H13.16a.878.878 0 0 0-.878.878v3.51a.878.878 0 1 1-1.755 0v-3.51a.878.878 0 1 0-1.755 0v3.51a.878.878 0 1 1-1.755 0v-3.51a.878.878 0 0 0-.878-.878H4.633L7 158.724a.878.878 0 0 0-1.481-.822l-2.084 2.138a.985.985 0 1 1-1.392-1.394l5.132-5.187a3.473 3.473 0 0 1 2.085-.987c.131.01.263.021.393.021s.263-.011.393-.021a3.473 3.473 0 0 1 2.085.987.847.847 0 0 0 .109.093l4.6 3.3a.878.878 0 0 0 1.132-.093l5-5a3.51 3.51 0 0 1 4.956 0l5.852 5.862a3.145 3.145 0 0 0 4.415.057l1.611-1.53a3.588 3.588 0 0 1 4.956 0l5.843 5.843a.984.984 0 0 1 .004 1.392z" transform="translate(3.782 -120.45)" style="fill:#544ec8"/>
                        </g>
                    </g>
                </g>
            </g>
        </g>
    </g>
    <g data-name="Group 5442">
        <g data-name="Group 4237">
            <path data-name="Path 6819" d="M301.134 21.525a.875.875 0 0 0-.176.018 7.171 7.171 0 0 1-5.125-.893l-.385-.233a.8.8 0 0 0-.075-.032 1.273 1.273 0 0 0-.077-.033.871.871 0 0 0-.6 0c-.026.011-.052.021-.077.033a.81.81 0 0 0-.075.032l-.385.233a7.167 7.167 0 0 1-5.132.893.878.878 0 0 0-1.053.86v8.837a6.9 6.9 0 0 0 .974 3.536 6.812 6.812 0 0 0 3.177 2.784l2.526 1.088a.872.872 0 0 0 .69 0l2.526-1.088a6.811 6.811 0 0 0 3.173-2.784 6.9 6.9 0 0 0 .975-3.536V22.4a.877.877 0 0 0-.881-.875zm-7.021 14.982-1.3-.561a5.067 5.067 0 0 1-2.361-2.071 5.151 5.151 0 0 1-.726-2.633v-7.831a8.894 8.894 0 0 0 4.388-.77zm6.143-5.267a5.149 5.149 0 0 1-.726 2.633 5.068 5.068 0 0 1-2.361 2.071l-1.3.564V22.641a8.9 8.9 0 0 0 4.388.77z" transform="translate(-252.599 -13.697)" style="fill:#544ec8"/>
        </g>
    </g>
</svg>
