<svg xmlns="http://www.w3.org/2000/svg" width="60" height="60" viewBox="0 0 60 60">
    <g data-name="noun_TAX Saving_1678078">
        <g data-name="Group 6199">
            <g data-name="Group 6195">
                <path data-name="Path 9867" d="M53.472 58.952a2.154 2.154 0 0 0 2.15-2.152 2.128 2.128 0 0 0-2.151-2.152 2.151 2.151 0 1 0 0 4.3zm0-1.259a.892.892 0 0 1 0-1.785 1.011 1.011 0 0 1 .892.892.813.813 0 0 1-.892.894z" transform="translate(-20.755 -22.156)" style="fill:#544ec8"/>
                <path data-name="Path 9868" d="M61.212 54.24a9.209 9.209 0 0 0-9.686-7.817l-3.271-4.362 6.418-6.347a12.948 12.948 0 0 0 2.4-15.605l-1.26-2.3a1.031 1.031 0 0 0-.831-.5 1.093 1.093 0 0 0-.894.41L42 33.77l-1.4 1.581 8.614 11.506a8.88 8.88 0 0 0-3.623 2.164L31.618 34.979l-.2.116a2.741 2.741 0 0 1-1.409.357c-.068 0-.134-.005-.229-.012l-.789-.055 6.751 6.677-3.27 4.361a9.161 9.161 0 0 0-9.534 7.055 9.059 9.059 0 0 0 1.108 6.961 9.263 9.263 0 0 0 5.708 4.174 9.047 9.047 0 0 0 2.16.263 9.261 9.261 0 0 0 7.748-14.3L42 48.241l2.336 2.336a9.035 9.035 0 0 0-1.381 6.386 9.211 9.211 0 0 0 9.179 7.887 9.446 9.446 0 0 0 1.276-.087 9.247 9.247 0 0 0 7.8-10.525zm-8.05-20.04-6.216 6.145-3.7-4.909 11.545-15.228.447.843A10.929 10.929 0 0 1 53.162 34.2zm4.664 25.7a7.063 7.063 0 0 1-4.719 2.817 7.429 7.429 0 0 1-1.049.075 7.194 7.194 0 0 1-1.068-14.309 7.429 7.429 0 0 1 1.049-.075A7.2 7.2 0 0 1 57.826 59.9zm-18.9-2.607a7.117 7.117 0 0 1-6.967 5.482 7.386 7.386 0 0 1-1.7-.2 7.044 7.044 0 0 1-4.437-3.222 7.225 7.225 0 0 1-.845-5.445 7.119 7.119 0 0 1 6.967-5.482 7.368 7.368 0 0 1 1.7.2 7.206 7.206 0 0 1 5.284 8.667zm1.631-10.567-2.227 2.229a9.636 9.636 0 0 0-3.615-2.168l2.548-3.355z" transform="translate(-8.917 -6.727)" style="fill:#544ec8"/>
                <path data-name="Path 9869" d="M68.816 72.746a5.458 5.458 0 0 0-.88.072 5.811 5.811 0 0 0-3.788 2.277 5.644 5.644 0 0 0-1.037 4.28 5.729 5.729 0 0 0 5.64 4.9 5.889 5.889 0 0 0 .916-.073 5.7 5.7 0 0 0 4.825-6.558 5.837 5.837 0 0 0-5.676-4.898zm3.024 8.084a3.708 3.708 0 0 1-2.53 1.454 3.812 3.812 0 0 1-4.353-3.269 3.751 3.751 0 0 1 .72-2.846 3.941 3.941 0 0 1 3.127-1.55 3.878 3.878 0 0 1 3.036 6.211z" transform="translate(-25.598 -29.635)" style="fill:#544ec8"/>
                <path data-name="Path 9870" d="M34.436 72.852a5.665 5.665 0 0 0-1.312 11.176 5.836 5.836 0 0 0 1.316.152 5.618 5.618 0 0 0 5.508-4.342 5.409 5.409 0 0 0-.593-4.141A5.891 5.891 0 0 0 35.751 73a5.8 5.8 0 0 0-1.315-.148zm3.7 6.579a3.78 3.78 0 0 1-3.648 2.894 3.713 3.713 0 0 1-.9-.111 3.774 3.774 0 0 1 .866-7.441 3.71 3.71 0 0 1 .9.111 3.775 3.775 0 0 1 2.782 4.547z" transform="translate(-11.438 -29.678)" style="fill:#544ec8"/>
            </g>
            <g data-name="Group 6198">
                <g data-name="Group 6197">
                    <path data-name="Path 9871" d="M53.283 1.624H14.054a3.565 3.565 0 0 0-3.563 3.557V26.6a3.558 3.558 0 0 0 3.568 3.554h23.8a2.268 2.268 0 0 1-.165-.856 2.217 2.217 0 0 1-.371-1.52H14.059a1.183 1.183 0 0 1-1.192-1.178V5.182A1.189 1.189 0 0 1 14.054 4h39.229a1.184 1.184 0 0 1 1.193 1.18V26.6a1.188 1.188 0 0 1-1.2 1.178h-3.79a1.769 1.769 0 0 1-1.385 1.33c-.057.014-.113.037-.17.053a1.866 1.866 0 0 1-.771.993h6.118a3.565 3.565 0 0 0 3.576-3.554V5.182a3.563 3.563 0 0 0-3.571-3.558z" transform="translate(-3.881 -.241)" style="fill:#544ec8"/>
                    <path data-name="Path 9872" d="M12.515 11.377A7.756 7.756 0 0 0 20.3 3.65h-2.377A5.379 5.379 0 0 1 12.515 9z" transform="translate(-4.717 -1.078)" style="fill:#544ec8"/>
                    <path data-name="Path 9873" d="M74.263 3.6a7.757 7.757 0 0 0 7.728 7.788v-2.38a5.38 5.38 0 0 1-5.35-5.41h-2.378z" transform="translate(-30.237 -1.057)" style="fill:#544ec8"/>
                    <path data-name="Path 9874" d="M20.293 42.792a7.758 7.758 0 0 0-7.727-7.786v2.377a5.38 5.38 0 0 1 5.347 5.41h2.379z" transform="translate(-4.739 -14.037)" style="fill:#544ec8"/>
                    <path data-name="Path 9875" d="M25.959 22.224a2.179 2.179 0 1 1-2.2 2.178 2.19 2.19 0 0 1 2.2-2.178z" transform="translate(-9.365 -8.755)" style="fill:#544ec8"/>
                    <g data-name="Group 6196">
                        <path data-name="Path 9876" d="M42.769 13.45H52.3v.019a14.747 14.747 0 0 1-.952 1.388h-2.543a3.319 3.319 0 0 1 .714 1.5h2.716c.033.006.049.02.049.039q-.912 1.368-.932 1.368h-1.764a4.05 4.05 0 0 1-.674 1.694 4.144 4.144 0 0 1-1.556 1.3 6.15 6.15 0 0 1-2.656.664v.02a3.678 3.678 0 0 0 .624.822l4.708 5.679v.268c0 .026-.017.039-.05.039h-2.07q-5.59-6.511-5.59-6.541v-1.322l.019-.049a8.469 8.469 0 0 0 1.16.069q3.132 0 3.9-2.032a1.644 1.644 0 0 0 .119-.614h-5.674a.035.035 0 0 1-.039-.04q.941-1.368.962-1.368h4.5v-.02a2.636 2.636 0 0 0-1.5-1.219 4.687 4.687 0 0 0-1.427-.257h-2.515v-.05q.91-1.356.94-1.357z" transform="translate(-16.824 -5.128)" style="fill:#544ec8"/>
                    </g>
                </g>
            </g>
        </g>
    </g>
</svg>
