<svg xmlns="http://www.w3.org/2000/svg" width="63.919" height="99.839" viewBox="0 0 63.919 99.839">
    <path data-name="Path 9352" d="M256.992 918.568h50.625c1.663 0 3.023.952 3.023 2.115a2.168 2.168 0 0 1-1.606 1.866h4.629c1.663 0 3.023.951 3.023 2.115 0 1.163-1.361 2.114-3.023 2.114h-1.613a1.789 1.789 0 0 1 .724 1.368v.846c0 1.163-1.361 2.115-3.023 2.115h-49.842c-1.663 0-3.023-.952-3.023-2.115v-.846c0-1.163 1.36-2.114 3.023-2.114l3.521.047a1.551 1.551 0 0 1-1-.445 1.855 1.855 0 0 1-.285-1.973 1.288 1.288 0 0 1 1.067-.891l-6.225.029c-1.663 0-3.023-.952-3.023-2.115.005-1.164 1.365-2.116 3.028-2.116z" transform="translate(-253.969 -831.266)" style="fill:#fff"/>
    <g data-name="Group 5501">
        <path data-name="Path 9353" d="m761.95 569.888.738-.8-.051-.956.2-.114.15.237.185-.806.532-.408.854.261.53.755-.349.82-.847.637-.963 1.133z" transform="translate(-705.191 -538.055)" style="fill:#eacdb0"/>
        <g data-name="Group 5500">
            <path data-name="Path 9354" d="m678.764 585.637-3.083 3.877c-.277.348-.488.744-.768 1.091-.409.507-.531.64-1.115.463-1.691-.514-3.192-1.586-4.862-2.083a16.7 16.7 0 0 0-1 1.627c-.44.963.258 1.191.966 1.591.84.475 1.694.925 2.564 1.344.72.346 3.742 2.067 4.473 1.113.526-.682 4.558-8.156 4.714-8.079z" transform="translate(-621.563 -554.569)" style="fill:#938dff"/>
        </g>
    </g>
    <g data-name="Group 5517">
        <g data-name="Group 5510">
            <g data-name="Group 5502">
                <path data-name="Path 9355" d="m550.65 604.18-.715-.674-.011-.866-.185-.091-.121.223-.215-.716-.506-.336-.755.287-.433.713.365.72.8.524.938.965z" transform="translate(-514.887 -567.901)" style="fill:#eacdb0"/>
            </g>
            <path data-name="Path 9356" d="m563.194 615.12-1.286 1.522 3.448 5.237 1.283.414 5.466-4.359-1.462-2.985-4.077 3.465z" transform="translate(-527.501 -578.278)" style="fill:#aca7fe"/>
            <g data-name="Group 5505">
                <g data-name="Group 5503">
                    <path data-name="Path 9357" d="m709.861 977.54.191.876-1.513 1.247-1.043-.69.661-1.061 1.513-1.247z" transform="translate(-656.821 -882.872)" style="fill:#292949"/>
                    <path data-name="Path 9358" d="m645.5 743.535 1.688 3.892.159 10.951 3.471 11.779-1.614.716-7.082-13.673-.806-4.332-.316-9.128z" transform="translate(-597.75 -675.791)" style="fill:#292949"/>
                </g>
                <g data-name="Group 5504">
                    <path data-name="Path 9359" d="m607.117 743.127-.133 11.477 2.163 14.8h1.663l1.05-13.654 2.276-13.654z" transform="translate(-567.54 -674.51)" style="fill:#292949"/>
                    <path data-name="Path 9360" d="M619.694 984.718v.9l-1.8.9-.9-.9.9-.9z" transform="translate(-576.433 -890.026)" style="fill:#292949"/>
                </g>
            </g>
            <path data-name="Path 9361" d="m592.759 610.959 4.417-.164s2.643 2.319 4.008 8.344c1.391 6.135-.257 14.967-.257 14.967s-11.851-1.579-13.794-1.823l2.965-12.113z" transform="translate(-549.907 -570.775)" style="fill:#938dff"/>
            <g data-name="Group 5506">
                <path data-name="Path 9362" d="m635.3 572.319 1.547-.151a7.77 7.77 0 0 0-.082-1.236c.43-.151.927-.377 1-.826a1.286 1.286 0 0 0-.025-.428l-.3-1.755a1.567 1.567 0 0 0-.181-.584 1.317 1.317 0 0 0-.922-.5 3.2 3.2 0 0 0-2.595.629 1.4 1.4 0 0 0-.439.577 1.9 1.9 0 0 0 .062 1.112l.264 1.01c.1.387.247.828.62.974.2.077.432.055.611.169.323.202.279.672.44 1.009z" transform="translate(-590.869 -539.178)" style="fill:#eacdb0"/>
                <path data-name="Path 9363" d="M606.535 543.726a4.976 4.976 0 0 1 .127-1.172c.138-.628.879-.911 1.52-.955 1.386-.1 2.723-.724 4.076-.24a17.616 17.616 0 0 1 2.512.734 2.067 2.067 0 0 1 .707.7 3.114 3.114 0 0 1 0 3.293 4.46 4.46 0 0 1-.485.61 3.338 3.338 0 0 1-1.305 1.03c-.011-.449.4-1.865.055-2.234-.547-.585-1.785-.383-2.465-.24-.741.156-1.4.68-2.137.791a2.769 2.769 0 0 1-1.652-.454 2.1 2.1 0 0 1-.953-1.863z" transform="translate(-567.14 -516.43)" style="fill:#292949"/>
            </g>
            <g data-name="Group 5509">
                <g data-name="Group 5507">
                    <path data-name="Path 9364" d="M524.162 391.891v-.618l.285-.582a.2.2 0 0 1 .285.006l.238.576v.618c.225 0 .59.176.59.393a.4.4 0 0 1-.406.393h-.184v20.945c0 1.182.625 2.165 1.522 2.144a1.568 1.568 0 0 0 1.4-1.573.426.426 0 0 1 .427-.378h.016a.42.42 0 0 1 .427.464 2.579 2.579 0 0 1-2.3 2.354 2.055 2.055 0 0 1-1.856-1.049 5.137 5.137 0 0 1-.447-2.671v-20.237h-.126a.4.4 0 0 1-.406-.393c.003-.217.311-.392.535-.392z" transform="translate(-493.499 -390.632)" style="fill:#292949"/>
                    <path data-name="Path 9365" d="m528.392 489.089.817-.849v-1.4h-.817z" transform="translate(-497.729 -476.089)" style="opacity:.26;fill:#040504"/>
                </g>
                <g data-name="Group 5508">
                    <path data-name="Path 9366" d="m483.724 505.853-.082.04-.118-.04h.2z" transform="translate(-457.874 -492.979)" style="fill:none"/>
                    <path data-name="Path 9367" d="m538.6 417.312-.125-.772a18.137 18.137 0 0 0-3.006-7.438l-1.952-2.81a12.665 12.665 0 0 1 12.025 11.04 12.293 12.293 0 0 0-3.494-.484 12.582 12.582 0 0 0-3.448.464z" transform="translate(-502.28 -404.544)" style="fill:#2f3a84"/>
                    <path data-name="Path 9368" d="m424.03 415.663-.335 1.656h-.125a12.1 12.1 0 0 0-3.763-.569 12.362 12.362 0 0 0-3.779.565 12.673 12.673 0 0 1 12.582-11.133c.136 0 .271 0 .406.007l-1.56 2.28a17.876 17.876 0 0 0-3.426 7.194z" transform="translate(-397.92 -404.445)" style="fill:#2f3a84"/>
                    <path data-name="Path 9369" d="m495.064 416.5.125.772-.034.01a12.973 12.973 0 0 0-5.111-.921 12.684 12.684 0 0 0-5.324 1.016h-.075l.335-1.656a17.875 17.875 0 0 1 3.427-7.193l1.559-2.28.14.005 1.952 2.81a18.137 18.137 0 0 1 3.006 7.437z" transform="translate(-458.87 -404.501)" style="fill:#5861a5"/>
                    <path data-name="Path 9370" d="M578.742 504.914v.027l-.038-.017z" transform="translate(-542.423 -492.145)" style="fill:#fff"/>
                    <path data-name="Path 9371" d="M579.214 505.23h-.154l-.013-.078z" transform="translate(-542.724 -492.357)" style="fill:#fff"/>
                    <path data-name="Path 9372" d="m576.294 505.019.013.078h-.359l.308-.1z" transform="translate(-539.971 -492.223)" style="fill:#fff"/>
                </g>
            </g>
            <path data-name="Path 9373" d="m608.442 615.331-4.642 18.576-.381 2.436 5.786.761s-.228-8.9-.152-10.081.934-3.751 1.066-6.515c.076-1.6.584-4.47.228-5.405z" transform="translate(-564.371 -574.743)" style="fill:#fff"/>
        </g>
        <g data-name="Group 5516">
            <g data-name="Group 5511">
                <path data-name="Path 9374" d="m493.763 637.751.6-.566.01-.728.155-.076.1.187.181-.6.425-.282.635.242.364.6-.307.6-.676.44-.789.811z" transform="translate(-466.97 -579.991)" style="fill:#eacdb0"/>
                <path data-name="Path 9375" d="M428.365 644.108 425 648.1l-4.393-4.255-.683 5.087 5.347 2.651 4.208-6.309z" transform="translate(-401.381 -587.236)" style="fill:#aeccdc"/>
            </g>
            <g data-name="Group 5512">
                <path data-name="Path 9376" d="m363.785 979.649-.073.719 1.306.9.763-.63-.617-.808-1.306-.9z" transform="translate(-351.449 -884.884)" style="fill:#292949"/>
                <path data-name="Path 9377" d="m362.9 786.683-.221 2.184 1.959 7.5-1.819 12.058 1.339.461 3.531-11.772.56-3.425-.02-7.25z" transform="translate(-350.528 -713.905)" style="fill:#eacdb0"/>
            </g>
            <g data-name="Group 5513">
                <path data-name="Path 9378" d="m403.907 795.772-2.817 20.2h-1.28l-.23-12.951-2.33-9.09z" transform="translate(-381.239 -720.56)" style="fill:#eacdb0"/>
                <path data-name="Path 9379" d="M420.233 989.774v.726l1.385.726.692-.726-.692-.726z" transform="translate(-401.655 -894.517)" style="fill:#292949"/>
            </g>
            <path data-name="Path 9380" d="M348.708 618.744a1.15 1.15 0 0 0-.423-.412c-1.272-.718-3.38-.086-4.761-.086-.408 4.295-1.536 8.388-2.264 12.6q-1.16 6.717-2.612 13.38c-.055.252 3.841.125 4.209.131 3.748.063 7.772.211 11.389-.922-2.308-6.2-2.268-13.025-4.086-19.383-.319-1.116-.7-2.216-.986-3.341a7.52 7.52 0 0 0-.466-1.967z" transform="translate(-329.186 -564.273)" style="fill:#49529a"/>
            <path data-name="Path 9381" d="M411.368 557.623a2.527 2.527 0 0 1 1.8 2.116 2.224 2.224 0 0 0-.49-3.6 2.575 2.575 0 0 0-1.24 1.5z" transform="translate(-393.781 -509.333)" style="fill:#292949"/>
            <path data-name="Path 9382" d="M390.05 566.633c-.49-2.588-3.724-2.141-4.652-.045a3.371 3.371 0 0 0 1.081 3.709c.023.229.052.861.228 1.015s.787.008 1.022-.047a.359.359 0 0 0 .18-.081.672.672 0 0 0 .07-.393 2.153 2.153 0 0 0 .527-.1 2.505 2.505 0 0 0 1.522-1.7 5.017 5.017 0 0 0 .022-2.358z" transform="translate(-370.533 -517.072)" style="fill:#eacdb0"/>
            <g data-name="Group 5514">
                <path data-name="Path 9383" d="M405.327 627.323c-2-.163-4.525.906-5.127 2.617-.6-1.711-3.676-2.764-5.68-2.6-5.288.431-7.078 6.328-4.836 10.294a22.771 22.771 0 0 0 4.833 5.676c1.584 1.4 5.671 4.379 5.683 4.369.013.01 4.1-2.966 5.683-4.369a22.77 22.77 0 0 0 4.833-5.676c2.242-3.966-.101-9.88-5.389-10.311z" transform="translate(-373.678 -572.55)" style="fill:#ff8080"/>
                <path data-name="Path 9384" d="M473.445 703.24a28.756 28.756 0 0 1-4.5 4.37 12.915 12.915 0 0 1-5.546 2.684 7.247 7.247 0 0 1-2.884-.062c1.687 1.3 3.52 2.633 3.528 2.626.012.01 4.1-2.966 5.683-4.369a22.771 22.771 0 0 0 4.833-5.676 6.549 6.549 0 0 0 .763-2.21 20.874 20.874 0 0 1-1.877 2.637z" transform="translate(-437.435 -637.655)" style="opacity:.12;mix-blend-mode:multiply;isolation:isolate;fill:#040504"/>
                <path data-name="Path 9385" d="m423.043 665.186-4.154.105-1.5-5.454a.291.291 0 0 0-.545 0l-3.216 9.493-.186.55-2.187-6.249-.351-1a.293.293 0 0 0-.517-.064l-1.59 3.036h-4.649a.266.266 0 1 0 0 .532h4.824a.284.284 0 0 0 .244-.132l1.362-2.6 2.244 6.411.351 1a.291.291 0 0 0 .545 0l3.216-9.493.154-.454 1.314 4.767a.285.285 0 0 0 .273.2l4.371-.111a.266.266 0 1 0-.003-.537z" transform="translate(-387.121 -601.277)" style="fill:#fff"/>
            </g>
            <g data-name="Group 5515">
                <path data-name="Path 9386" d="m392.18 704.525.742.4.711-.223.124.127-.15.159.643-.016.41.323-.032.694-.467.545-.686-.105-.643-.516-1.04-.508z" transform="translate(-376.391 -641.14)" style="fill:#eacdb0"/>
                <path data-name="Path 9387" d="M353.9 636.832a1.286 1.286 0 0 1-.4-1.125 5.631 5.631 0 0 1 .387-1.266 10.81 10.81 0 0 0 .664-4.133c-.051-1.4-1.926 0-2.231.573a9.157 9.157 0 0 0-.592 2.057q-.362 1.378-.614 2.781c-.106.591-.508 1.961.052 2.413a1.743 1.743 0 0 0 .522.255 25.528 25.528 0 0 0 3.839 1.035l.773-1.455a7.462 7.462 0 0 1-2.4-1.135z" transform="translate(-340.041 -574.683)" style="fill:#49529a"/>
            </g>
            <path data-name="Path 9388" d="M367.485 565.114a.709.709 0 0 0 .074-.007c.57-.1 1.486-.282 1.751-.883s-.211-1.733-.29-2.373c-.121-.973-.161-1.954-.208-2.932a4.467 4.467 0 0 1 .734-2.5 14.064 14.064 0 0 1 1.66-2.06 2.09 2.09 0 0 0 .579-.922 1.363 1.363 0 0 0-.338-1.128 1.91 1.91 0 0 0-1.492-.73 4.277 4.277 0 0 0-4.354 3.3c-.869 2.993.217 5.849.055 8.828a2.845 2.845 0 0 1-.481 1.431 19.6 19.6 0 0 1 2.31-.024z" transform="translate(-352.749 -505.279)" style="fill:#292949"/>
        </g>
        <path data-name="Path 9389" d="M711.668 457h-4.724v-4.81a.531.531 0 0 0-.521-.527h-2.789a.531.531 0 0 0-.521.527V457h-4.723a.531.531 0 0 0-.521.527v2.838a.5.5 0 0 0 .148.368.5.5 0 0 0 .373.159h4.724v4.81a.531.531 0 0 0 .521.527h2.789a.5.5 0 0 0 .366-.152.506.506 0 0 0 .155-.375v-4.81h4.724a.531.531 0 0 0 .521-.527v-2.838a.531.531 0 0 0-.522-.527z" transform="translate(-648.269 -444.842)" style="fill:#ff8080"/>
    </g>
</svg>
