<svg xmlns="http://www.w3.org/2000/svg" width="25" height="29" viewBox="0 0 25 29">
    <g data-name="Group 6044">
        <g data-name="Group 5951">
            <g data-name="Group 5840">
                <g data-name="Group 5838">
                    <path data-name="Path 9751" d="M40.347 23.128a1.293 1.293 0 0 0-.643.916 4.961 4.961 0 0 0-.095 1.289q.022 1.092.1 2.179a4.357 4.357 0 0 0 .405 1.8.83.83 0 0 0 1.253.4 2.373 2.373 0 0 0 .372-1.74c-.059-1.4-.106-2.808-.18-4.213-.409-.146-.724-.826-1.212-.631z" transform="translate(-37.22 -10.454)" style="fill:#fbd2ab"/>
                    <path data-name="Path 9829" d="m48.46 16.064 2.97 12.366-2.97 11.17c-.111 0-.22-.015-.313-.015a9.854 9.854 0 0 1-1.02-.118 1.962 1.962 0 0 1-.266-.044 4.732 4.732 0 0 1-2.257-.938A6.72 6.72 0 0 1 43.4 37.05c-.282-.411-.565-.88-.909-1.379a24.979 24.979 0 0 1-1.676-4.208 25.258 25.258 0 0 1-.94-4.562v-.044c-.016-.234-.047-.469-.047-.7-.031-.191-.031-.4-.047-.6 0-3.578 1.082-5.984 2.82-7.465a9.6 9.6 0 0 1 5.859-2.028z" transform="translate(-37.136 -12.381)" style="fill:#fbd2ab"/>
                    <path data-name="Path 9830" d="M48.578 14.919v10.168c-.033.018-.047.018-.064 0a4.546 4.546 0 0 1-.846-.14 11.762 11.762 0 0 1-2.539-.8 2.487 2.487 0 0 0-.439-.211 4.621 4.621 0 0 0-.956-.262 2.169 2.169 0 0 0-.47-.051.32.32 0 0 0-.124.035 2.825 2.825 0 0 0-2.117 2.24 8.725 8.725 0 0 0-.157 2.625c.033.333.064.647.126.962.095.683.627 3.027-.157 3.2a23 23 0 0 1-.846-2.94v-.053c-.047-.226-.095-.454-.126-.682a20.49 20.49 0 0 1-.3-4.392 12.289 12.289 0 0 1 .581-4.779c.767-1.994 2.507-3.009 2.742-2.625 1.037-1.614 3.497-2.208 5.692-2.295z" transform="translate(-37.254 -13.126)" style="fill:#682c25"/>
                    <path data-name="Path 9831" d="M47.556 14.919V24.9c-.033.017-.047.21-.064.191a4.546 4.546 0 0 1-.846-.14 13.194 13.194 0 0 1-2.556-.787c-.14-.087-.281-.157-.423-.228a4.621 4.621 0 0 0-.956-.262 4.787 4.787 0 0 0-.485-.035.232.232 0 0 0-.109.018.418.418 0 0 0-.142.017 19.3 19.3 0 0 1-.282-4.445 17.122 17.122 0 0 1 .173-2.012c1.034-1.617 3.495-2.211 5.69-2.298z" transform="translate(-36.232 -13.126)" style="fill:#682c25"/>
                </g>
            </g>
            <path data-name="Path 9832" d="M57.209 39.377s-6.365-2.008-11.53-.223h-.028V15.661c4.587.15 7.352 3.655 9.015 7.924.17.429.328.87.469 1.316a31.38 31.38 0 0 1 .881 3.246c.118.505.217 1.007.306 1.5.03.132.053.258.071.391l.087.505a55.652 55.652 0 0 1 .729 8.834z" transform="translate(-34.327 -12.643)" style="fill:#682c25"/>
            <path data-name="Path 9833" d="M45.629 15.237v24.85c.111 0 .22-.015.313-.015a9.724 9.724 0 0 0 1.02-.124 1.965 1.965 0 0 0 .266-.046 4.606 4.606 0 0 0 2.257-.992 6.993 6.993 0 0 0 1.206-1.517c.282-.434.565-.929.909-1.455a27.289 27.289 0 0 0 1.676-4.443 27.956 27.956 0 0 0 .94-4.816v-.046c.016-.247.047-.5.047-.744.031-.2.031-.417.047-.635 0-3.777-1.082-6.316-2.82-7.88a9.277 9.277 0 0 0-5.861-2.137z" transform="translate(-34.338 -12.919)" style="fill:#fbd2ab"/>
            <g data-name="Group 5870">
                <path data-name="Path 9834" d="M48.615 30.2a1.801 1.801 0 0 1-.05.105 3.491 3.491 0 0 1-1.612 1.741 3.015 3.015 0 0 1-1.3.343v-2.223a23.55 23.55 0 0 1 2.962.034z" transform="translate(-34.499 -8.127)" style="fill:#ff7584"/>
                <path data-name="Path 9835" d="M49.109 30.384c-.032.168-.306.291-.723.4-.565.147-1.385.291-2.173.511a3.078 3.078 0 0 1-.563.156V30.3c.119-.061.322-.159.514-.257.951-.486 2.269.791 2.945.341z" transform="translate(-34.499 -8.262)" style="fill:#ff8290"/>
            </g>
            <g data-name="Group 5950">
                <path data-name="Path 9836" d="M55.593 30.165v8.478c-.276-2.674-.587-5.029-.981-7.092a39.593 39.593 0 0 0-.587-2.6c-.041-.159-.087-.314-.129-.462a16.288 16.288 0 0 0-3.16-6.376 12.2 12.2 0 0 0-2.748-2.393c-.018-.011-.03-.022-.047-.033a.263.263 0 0 1 .012.065 3.139 3.139 0 0 1-.071 1.613c-.34 1.182-.617 1.245-1.644 2.05-.238.185-1.438-.715-1.682-.539l.289-7.869a9.029 9.029 0 0 1 4.881.788 10.166 10.166 0 0 1 5.033 6.321 23.7 23.7 0 0 1 .816 6.558v.011c.006.132.006.264.006.39.006.27.006.54.006.809.006.094.006.187.006.281z" transform="translate(-34.85 -13.105)" style="fill:#682c25"/>
                <path data-name="Path 9789" d="M50.24 32.661a20.962 20.962 0 0 0-1.83-15.114 14.819 14.819 0 0 0-1.729 1.379c-.276.526 0 .863.321 1.321a19.746 19.746 0 0 1 2.154 3.9 16.872 16.872 0 0 1 1.084 8.514z" transform="translate(-33.888 -11.416)" style="fill:#682c25"/>
            </g>
        </g>
    </g>
</svg>
