<svg xmlns="http://www.w3.org/2000/svg" width="65.628" height="86.377" viewBox="0 0 65.628 86.377">
    <g data-name="Group 5640" style="opacity:.63">
        <g data-name="Group 5629">
            <g data-name="Group 5616">
                <path data-name="Path 9469" d="M5.761 2.243 11.506 0l-3.56 3.657a12.475 12.475 0 0 1-3.633 2.476L0 7.827z" style="fill:#a3cedf" transform="rotate(14.98 -46.055 109.132)"/>
            </g>
            <g data-name="Group 5617">
                <path data-name="Path 9470" d="M30.659 3.807a21.273 21.273 0 0 0 1.073-1.93 1.267 1.267 0 0 0-1.11-1.833L28.438 0A12.872 12.872 0 0 0 21 2.109L5.14 13.481a15.952 15.952 0 0 0-4.329 4.665l-.636 1.045a1.2 1.2 0 0 0 1.291 1.795l3.434-.909c1.987-1.09 4.481-2.167 6.469-3.257l10.18-5.584 2.944-1.615a18.427 18.427 0 0 0 5-4.235 13.731 13.731 0 0 0 1.166-1.579z" transform="rotate(14.98 17.357 132.271)" style="fill:#a3cedf"/>
            </g>
            <g data-name="Group 5621">
                <g data-name="Group 5618">
                    <path data-name="Path 9471" d="m2.347.071-2 1.03a.623.623 0 0 0-.289.808l.273.609a.624.624 0 0 0 .795.323l2.143-.823a.619.619 0 0 0 .4-.505 1.576 1.576 0 0 0-.64-1.374.624.624 0 0 0-.682-.068z" transform="rotate(14.98 -38.953 195.636)" style="fill:#a3cedf"/>
                </g>
                <g data-name="Group 5619" style="opacity:.05">
                    <path data-name="Path 9472" d="m50.683 17.656-.901 2.109 2.366-.264s-1.461.095-1.271-1.887z"/>
                </g>
                <g data-name="Group 5620">
                    <path data-name="Path 9473" d="M.387.705a3.709 3.709 0 0 1 .482 1.323c0 .018 0 .035.005.053L1.078 2a.557.557 0 0 0 .36-.485A1.69 1.69 0 0 0 .8.149.576.576 0 0 0 .156.061L0 .141a5.05 5.05 0 0 1 .387.564z" transform="rotate(14.98 -40.017 204.15)" style="fill:#066598"/>
                </g>
            </g>
            <g data-name="Group 5625">
                <g data-name="Group 5622">
                    <path data-name="Path 9474" d="M2.472.049.389.909a.624.624 0 0 0-.355.781l.221.63a.624.624 0 0 0 .765.388l2.2-.643a.62.62 0 0 0 .44-.471A1.576 1.576 0 0 0 3.147.173a.624.624 0 0 0-.675-.124z" transform="rotate(14.98 -54.619 186.447)" style="fill:#a3cedf"/>
                </g>
                <g data-name="Group 5623">
                    <path data-name="Path 9475" d="M.339.7A3.711 3.711 0 0 1 .71 2.061v.053l.21-.059a.556.556 0 0 0 .4-.454A1.69 1.69 0 0 0 .8.183.576.576 0 0 0 .162.042L0 .109A5.024 5.024 0 0 1 .339.7z" transform="rotate(14.98 -55.635 195.856)" style="fill:#066598"/>
                </g>
                <g data-name="Group 5624" style="opacity:.05">
                    <path data-name="Path 9476" d="m47.87 21.315-1.073 2.028 2.382-.068s-1.466-.027-1.107-1.984z"/>
                </g>
            </g>
            <g data-name="Group 5626">
                <path data-name="Path 9477" d="M11.245.4 4.734 16.029a5.343 5.343 0 0 1-4.05 3.215L0 19.358 1.778 4.8 11.225 0z" style="fill:#a3cedf" transform="rotate(14.98 -17.207 171.48)"/>
            </g>
            <g data-name="Group 5627" style="opacity:.57">
                <path data-name="Path 9478" d="M2.038 0S1.778.961 0 1.814l.8.994S2.975 1.649 3.537.027z" style="fill:#fff" transform="rotate(14.98 4.22 231.655)"/>
            </g>
            <g data-name="Group 5628">
                <path data-name="Path 9479" d="m13.614 3.016-.154-.165L3.42 0 0 2.438l7.806 5.85z" style="fill:#a3cedf" transform="rotate(14.98 -28.512 97.286)"/>
            </g>
        </g>
        <g data-name="Group 5633" style="opacity:.1">
            <g data-name="Group 5630" transform="rotate(14.98 -19.267 200.822)">
                <rect data-name="Rectangle 3557" width=".876" height="1.531" rx=".438" transform="rotate(-34.689 .797 .249)"/>
            </g>
            <g data-name="Group 5631" transform="rotate(14.98 -16.616 205.984)">
                <rect data-name="Rectangle 3558" width=".876" height="1.531" rx=".438" transform="rotate(-34.7 .797 .25)"/>
            </g>
            <g data-name="Group 5632" transform="rotate(14.98 -13.662 211.743)">
                <rect data-name="Rectangle 3559" width=".876" height="1.531" rx=".438" transform="rotate(-34.689 .797 .249)"/>
            </g>
        </g>
        <g data-name="Group 5634" style="opacity:.04">
            <path data-name="Path 9480" d="M40.101 19.037c2.578-.67 5.156-1.34 7.697-2.14 4.348-1.371 9.165-2.44 13.205-4.551a31.852 31.852 0 0 0 4.176-2.627.012.012 0 0 1 .02.01 11.753 11.753 0 0 1-1.721 1.89 13.989 13.989 0 0 1-2.64 1.899 14.87 14.87 0 0 1-2.591 1.346c-4.376 1.606-9.137 2.313-13.662 3.454-1.833.462-3.636 1.034-5.483 1.429-.682.147-1.37.27-2.059.38-.416.067-1.254.361-1.613.125 1.527-.479 3.12-.808 4.671-1.215z"/>
        </g>
    </g>
    <g data-name="Group 5639">
        <g data-name="Group 5590">
            <g data-name="Group 5568">
                <path data-name="Path 9441" d="M697.646 548.594h-.846v-17.209h-7.264v17.208h-.846v-18.054h8.957z" transform="translate(-636.462 -487.184)" style="fill:#41413f"/>
            </g>
            <g data-name="Group 5569" transform="translate(48.066 59.647)">
                <rect data-name="Rectangle 3550" width="17.561" height="24.754" rx="8.78" style="fill:#fca235"/>
            </g>
            <g data-name="Group 5570">
                <path data-name="Rectangle 3551" style="fill:#41413f" d="M0 0h2.398v.423H0z" transform="translate(50.393 84.401)"/>
            </g>
            <g data-name="Group 5571">
                <path data-name="Rectangle 3552" style="fill:#70706d" d="M0 0h2.398v.423H0z" transform="translate(51.451 59.223)"/>
            </g>
            <g data-name="Group 5572">
                <path data-name="Rectangle 3553" style="fill:#41413f" d="M0 0h2.398v.423H0z" transform="translate(55.471 42.932)"/>
            </g>
            <g data-name="Group 5574">
                <g data-name="Group 5573">
                    <path data-name="Path 9442" d="m673.054 975.364.259 1.551h1.257l.259-1.552z" transform="translate(-622.285 -890.54)" style="fill:#70706d"/>
                </g>
            </g>
            <g data-name="Group 5575">
                <path data-name="Rectangle 3554" transform="rotate(-180 31.474 42.412)" style="fill:#41413f" d="M0 0h2.398v.423H0z"/>
            </g>
            <g data-name="Group 5576">
                <path data-name="Rectangle 3555" transform="rotate(-180 31.015 29.823)" style="fill:#70706d" d="M0 0h2.398v.423H0z"/>
            </g>
            <g data-name="Group 5578">
                <g data-name="Group 5577">
                    <path data-name="Path 9443" d="m783.637 975.364-.259 1.551h-1.128l-.259-1.551z" transform="translate(-721.066 -890.54)" style="fill:#70706d"/>
                </g>
            </g>
            <g data-name="Group 5579">
                <path data-name="Rectangle 3556" style="fill:#70706d" d="M0 0h9.662v1.481H0z" transform="translate(51.874 43.355)"/>
            </g>
            <g data-name="Group 5581">
                <g data-name="Group 5580">
                    <path data-name="Path 9444" d="M710.628 689.4v1.481h.71v-.773h3.445v.773h.71V689.4z" transform="translate(-656.356 -631.239)" style="fill:#70706d"/>
                </g>
            </g>
            <g data-name="Group 5582">
                <path data-name="Path 9445" d="M759.076 712.1h-4.585a8.607 8.607 0 0 1 6.7 8.393v-6.277a2.116 2.116 0 0 0-2.115-2.116z" transform="translate(-696.13 -651.819)" style="fill:#fcb662"/>
            </g>
            <g data-name="Group 5583">
                <path data-name="Path 9446" d="M667.59 718.5a.423.423 0 0 0-.834 0h-.006v21.8a.423.423 0 1 0 .846 0v-21.8z" transform="translate(-616.568 -657.307)" style="fill:#d68a2d"/>
            </g>
            <g data-name="Group 5584">
                <path data-name="Path 9447" d="M689.529 718.5a.423.423 0 0 0-.834 0h-.006v21.8a.423.423 0 1 0 .846 0v-21.8z" transform="translate(-636.462 -657.307)" style="fill:#d68a2d"/>
            </g>
            <g data-name="Group 5585">
                <path data-name="Path 9448" d="M711.467 718.5a.423.423 0 0 0-.833 0h-.006v21.8a.423.423 0 0 0 .846 0v-21.8z" transform="translate(-656.355 -657.307)" style="fill:#d68a2d"/>
            </g>
            <g data-name="Group 5586">
                <path data-name="Path 9449" d="M733.406 718.5a.423.423 0 0 0-.834 0h-.006v21.8a.423.423 0 1 0 .846 0v-21.8z" transform="translate(-676.249 -657.307)" style="fill:#d68a2d"/>
            </g>
            <g data-name="Group 5587">
                <path data-name="Path 9450" d="M755.345 718.5a.423.423 0 0 0-.834 0h-.006v21.8a.423.423 0 1 0 .846 0v-21.8z" transform="translate(-696.142 -657.307)" style="fill:#d68a2d"/>
            </g>
            <g data-name="Group 5588">
                <path data-name="Path 9451" d="M777.283 718.5a.423.423 0 0 0-.834 0h-.006v21.8a.423.423 0 1 0 .846 0v-21.8z" transform="translate(-716.035 -657.307)" style="fill:#d68a2d"/>
            </g>
            <g data-name="Group 5589">
                <path data-name="Path 9452" d="M799.222 718.5a.423.423 0 0 0-.834 0h-.006v21.8a.423.423 0 1 0 .846 0v-21.8z" transform="translate(-735.929 -657.307)" style="fill:#d68a2d"/>
            </g>
        </g>
        <g data-name="scientist 2">
            <path data-name="Path 9481" d="M5392.741 442.177c1.315-1.3 1.146-11.439 1.16-12.058a4.075 4.075 0 0 1 .721-2.538c2.268-1.342 6-1.43 7.416 2.187.91 2.321 3.236 6.833 3.236 6.833 9.507 13.191 5.729 19.7 5.729 19.7l-.405-.045a2.152 2.152 0 0 0 .107-1.3l-.388 1.292-7.022-.9a21.188 21.188 0 0 0-.6-3.454l-.032 3.572-.943.05c.374-7.532-1.226-11.231-1.7-12.147.407 4.187-1.621 11.016-1.621 11.016l-.289-.065.658-3.414-.843 3.373-.815-.186q.193-.682.358-1.33l-.358 1.33c-1.75-1.9-4.955-1.735-4.955-1.735-1.741-2.458.586-10.181.586-10.181z" transform="translate(-5360.951 -411.875)" style="fill:#c4541c"/>
            <path data-name="Path 9482" d="m5348.118 1376.432-2.049 4.089-1.669-.644.384-4.174z" transform="translate(-5317.096 -1295.298)" style="fill:#dcabb0"/>
            <path data-name="Path 9483" d="m5296.821 1433.973-.559 1.847h-5.541s1.419-2.492 6.1-1.847z" transform="translate(-5267.126 -1349.442)" style="fill:#c4541c"/>
            <path data-name="Path 9484" d="m5341.892 866.974-4.377 35.854h4.642s6.056-15.506 6.925-31.664c.332-6.174-7.19-4.19-7.19-4.19z" transform="translate(-5310.687 -821.426)" style="fill:#373482"/>
            <path data-name="Path 9485" d="m5520.689 1364.272-.952 3.335-1.774-.215-.393-5.1z" transform="translate(-5478.304 -1282.815)" style="fill:#dcabb0"/>
            <path data-name="Path 9486" d="m5469.161 1433.973-.559 1.847h-5.541s1.418-2.492 6.1-1.847z" transform="translate(-5427.56 -1349.442)" style="fill:#c4541c"/>
            <path data-name="Path 9487" d="M5454.9 871.166h3.438l3.688-.516s2.36 5.155 1.146 20.431a98.875 98.875 0 0 1-2.915 16.021l-4.758-.1-2.055-28.491c-.062-.78-.97-1.061-.97-1.061l.133-6.374z" transform="translate(-5417.704 -825.131)" style="fill:#575ba3"/>
            <g data-name="Group 5641">
                <path data-name="Path 9488" d="M5539.469 915.78c.642-3.445 1.2-7.532 1.565-11.794.057-.652.11-1.322.158-1.993.054-.74.1-1.489.148-2.226a3.145 3.145 0 0 0-.114-.828 3.1 3.1 0 0 1-.108-.753c.149-2.8.155-5.372.162-7.637q0-.891.008-1.746c.038-5.151.077-8.07.078-8.1 0 .029-.213 2.934-.251 8.092q0 .856-.007 1.747c-.008 2.263-.016 4.828-.162 7.628a3.185 3.185 0 0 0 .112.8 2.993 2.993 0 0 1 .109.776 156.763 156.763 0 0 1-.303 4.214c-.362 4.256-.806 8.379-1.444 11.818z" transform="translate(-5498.645 -834.49)" style="fill:#373482"/>
            </g>
            <path data-name="Path 9489" d="M5448.5 523.283s.545 3.166-1.426 4.66c0 0 .848 1.838 1.418 2.125a3.6 3.6 0 0 0 2.849-.14c.562-.477 1.062-2.748 1.062-2.748a22.483 22.483 0 0 1-.342-4.981z" transform="translate(-5412.679 -500.75)" style="fill:#cb7f83"/>
            <path data-name="Path 9490" d="M5440.059 452.773s4.343.2 4.426-2.508.7-4.5-2.072-4.745-3.34.775-3.587 1.672.106 5.46 1.233 5.581z" transform="translate(-5404.929 -429.335)" style="fill:#dcabb0"/>
            <path data-name="Path 9491" d="M5400.879 609.9s.576.475 6.329.76q.561.028 1.067.039a20.555 20.555 0 0 0 4.366-.276 3.949 3.949 0 0 0 1.6-.553s-1.8-4.333-1.8-6.392c0-1.422-3.212-12.954-3.212-12.954a2.874 2.874 0 0 1-2.5 1.932c-2.915.022-1.778-1.937-1.778-1.937l-3.283 1.319a6.176 6.176 0 0 1 .255 2.4 2.973 2.973 0 0 1-.249.887 2.042 2.042 0 0 1-.095.179c-.794 1.356-.25 3.708.331 6.434s-1.031 8.162-1.031 8.162z" transform="translate(-5369.675 -564.348)" style="fill:#575ba3"/>
            <path data-name="Path 9492" d="M5200.844 609.615a85.582 85.582 0 0 0-5.17 10.218s-4.186-1.737-6.579-2.745l-.367-.155-.778-.331a2.369 2.369 0 0 0-2.17-2.045s-.823-.033-.59.535.223.325.533 1.129a2.227 2.227 0 0 0 1.569 1.5s.269.208.71.54c.132.1.279.209.44.327 1.991 1.469 5.981 4.275 7.229 4.135 1.684-.188 6.457-7.036 6.457-7.036z" transform="translate(-5168.845 -582.128)" style="fill:#dcabb0"/>
            <path data-name="Path 9493" d="M5295.209 616.008a16.532 16.532 0 0 0 2.723 1.141c.45 0 1.675-.594 2.962-2.129a87.95 87.95 0 0 0 2.131-2.692c.966-1.261 1.807-2.4 1.8-2.434-.021-.063-.471-6.366-.471-6.366a10.3 10.3 0 0 0-1.153.367 106.172 106.172 0 0 0-5.057 9.894l-2.519-.756z" transform="translate(-5271.303 -576.46)" style="fill:#dce1f1"/>
            <path data-name="Path 9494" d="m5378.659 604.068-.541 24.248h-6.19s1.352-13.758 2-18.061c.741-4.93.69-14.951.69-14.951s2.541-1.035 2.734-1 1.307 9.764 1.307 9.764z" transform="translate(-5342.722 -567.871)" style="fill:#dce1f1"/>
            <path data-name="Path 9495" d="M5442.771 590.516s1.03 8.041.654 10.03l-1.624-5.425.366-.648-.669-.209.419-3.413a1.124 1.124 0 0 1 .854-.335z" transform="translate(-5407.488 -564.348)" style="fill:#cdd2ea"/>
            <path data-name="Path 9496" d="M5478 604.333v24s3.938-.071 6.978-.17a26.786 26.786 0 0 0 3.472-.207 125.776 125.776 0 0 0-3.053-17.09 13.642 13.642 0 0 1-.448-4.859 30.447 30.447 0 0 1 .6-4.35c0-.008 0-.015.007-.023a45.633 45.633 0 0 1 3.628 3.141c-.095.141-1.015 2.638-1.015 2.638s1.748 1.267 2.1 1.445c0 0 3.245-4.376 2.795-5.073 0 0-5.656-9.618-6.941-9.215-.364.115-4.167-.254-4.167-.254z" transform="translate(-5441.47 -567.885)" style="fill:#dce1f1"/>
            <path data-name="Path 9497" d="M5481.2 592.75c-.159.159-3.191 10.019-3.191 10.019s2.785-4.753 2.993-4.858l-.311-.586.667-.335.607-4.239s-.509-.261-.765-.001z" transform="translate(-5441.472 -566.32)" style="fill:#cdd2ea"/>
            <path data-name="Path 9498" d="M5440.412 436.89s5.327 4.105 4.855 7.137c-.44 2.848.4 3.1 1.021 3.374 1.608.7 4.231-.69 5.067-.648.595.029-1.449-.577-2.421-1.874-2.584-3.452-2.331-8.115-2.848-8.451-3.513-2.288-5.674.462-5.674.462z" transform="translate(-5406.476 -420.057)" style="fill:#c4541c"/>
            <path data-name="Path 9499" d="M5285.271 736.184a31.255 31.255 0 0 1-.67 3.359l.784.4a23.311 23.311 0 0 0 .347-3.532z" transform="translate(-5261.428 -699.954)" style="fill:#cdd2ea"/>
            <path data-name="Path 9500" d="M5552.126 709.4c.416 1.573 1.361 10.052 1.762 13.761a26.743 26.743 0 0 0 3.472-.207 125.607 125.607 0 0 0-3.053-17.09 13.643 13.643 0 0 1-.448-4.859 30.734 30.734 0 0 1 .6-4.35c-.272-.238-.587-.378-.766-.227-.398.339-2.101 10.948-1.567 12.972z" transform="translate(-5510.378 -662.888)" style="fill:#cdd2ea"/>
            <path data-name="Path 9501" d="M5548.633 783.905c-.056.313-1.738 3.3-2.054 3.862l-.05.089-.3.23a2.368 2.368 0 0 0-2.981-.008s-.623.539-.064.793.385.084 1.162.459a2.227 2.227 0 0 0 2.169.02l.546-.419c.094-.072.263-.226.481-.43 1.047-.984 3.193-3.152 3.193-3.152z" transform="translate(-5501.933 -744.378)" style="fill:#dcabb0"/>
            <path data-name="Path 9502" d="M5295.209 719.506a16.532 16.532 0 0 0 2.723 1.141c.45 0 1.675-.594 2.962-2.129a86.9 86.9 0 0 0 2.131-2.693c.1-.515.144-1.085-.207-1.12-.628-.063-4.02 5.088-4.869 5.057s-2.74-.256-2.74-.256z" transform="translate(-5271.303 -679.958)" style="fill:#cdd2ea"/>
            <path data-name="Path 9503" d="m5624.739 781.878 2.416 1.506a3.137 3.137 0 0 1-.326.325 217.33 217.33 0 0 0-2.178-1.582z" transform="translate(-5577.989 -742.491)" style="fill:#cdd2ea"/>
        </g>
    </g>
    <g data-name="Group 5642">
        <path data-name="Path 9349" d="M1720.857 471.1s13.152-2.354 22.679.027c0 0 2.571 21.33-11.322 27.224 0 .001-13.647-5.042-11.357-27.251z" transform="translate(-1720.598 -450.81)" style="fill:#f4f5f6"/>
        <path data-name="Path 9350" d="M1777.3 527.255s12.062-1.548 19.427 0c0 0 2.459 17.324-9.448 23.728.004 0-10.904-3.091-9.979-23.728z" transform="translate(-1775.532 -505.603)" style="fill:#544ec8"/>
        <path data-name="Path 9351" d="M1941.689 683.211h-3.615v-3.525h-3.31v3.525h-3.436v3.31h3.436v3.525h3.31v-3.525h3.615z" transform="translate(-1924.946 -654.084)" style="fill:#fff"/>
    </g>
</svg>
