<svg xmlns="http://www.w3.org/2000/svg" width="23.35" height="36.35" viewBox="0 0 23.35 36.35">
    <path data-name="Union 4" d="M9.627 36a6.51 6.51 0 0 1-5.612-3.234l-.033-.058-.01-.018-.022-.04-.013-.024-.018-.033-.019-.027-.014-.027-.018-.033-.011-.021-.02-.038-.006-.012a6.948 6.948 0 0 1-.158-5.988v-.007l.007-.016.02-.024.014-.03.016-.035.01-.021.02-.041.007-.015.023-.047v-.009l.025-.05v-.007l.027-.053.03-.057q.133-.252.288-.494l.008-.013.02-.031.017-.027.016-.024.021-.032.014-.021.024-.036.012-.018.026-.038.012-.017.028-.04.01-.014.03-.041.01-.014.032-.043.008-.011.032-.043.01-.012.033-.043.008-.01.035-.044.008-.01.036-.045.006-.008.037-.045.007-.009.039-.046.005-.006.04-.047v-.006l.045-.052.032-.034a14.445 14.445 0 0 0 2.111-2.378.893.893 0 0 0 .043-.117 3.77 3.77 0 0 0 .095-.4l.006-.034a1.849 1.849 0 0 1-.5-3.512l-1.345-1.13a1.31 1.31 0 0 1-.217-1.79l.606-.817a1.286 1.286 0 0 1 1.016-.519H6.7a1.273 1.273 0 0 1 .356.063l.036.012.061.024.034.015.02.009 1.507.723a.407.407 0 0 0 .174.039.4.4 0 0 0 .31-.145l.993-1.188q.049-.059.1-.112a1.7 1.7 0 0 1 .681-.418v-2.577a3.928 3.928 0 0 0-2.857 1.874.868.868 0 0 1-1.425.09 3.951 3.951 0 0 0-5.329-.811.871.871 0 0 1-.941.03l-.031-.02A.86.86 0 0 1 0 10.85a.869.869 0 0 1 .015-.161l.011-.059.007-.036v-.024l.007-.035v-.024l.007-.035.005-.026.006-.029.007-.033.005-.024.009-.039v-.017l.011-.05v-.006a11.572 11.572 0 0 1 2.145-4.513l.024-.032A11.742 11.742 0 0 1 5.6 2.778l.031-.02a11.57 11.57 0 0 1 1.934-.9l.057-.02a11.64 11.64 0 0 1 3.354-.651v-.66a.535.535 0 0 1 0-.054A.527.527 0 0 1 11.5 0a.527.527 0 0 1 .526.527v.661a11.645 11.645 0 0 1 3.353.651l.056.02a11.571 11.571 0 0 1 1.934.9l.031.02A11.744 11.744 0 0 1 20.738 5.7l.005.007.019.025a11.575 11.575 0 0 1 2.13 4.517l.012.053v.017l.009.04.005.025.006.03.007.032.005.026.007.034v.024l.007.036v.024l.007.036.011.059a.869.869 0 0 1 .032.165.86.86 0 0 1-.391.723l-.036.022a.871.871 0 0 1-.936-.033 3.928 3.928 0 0 0-2.229-.689h-.114a3.936 3.936 0 0 0-2.986 1.5.868.868 0 0 1-1.425-.09 3.928 3.928 0 0 0-2.857-1.874v2.583a1.7 1.7 0 0 1 .681.418q.054.054.1.112l.993 1.188a.4.4 0 0 0 .31.145.407.407 0 0 0 .174-.039l1.507-.723a1.274 1.274 0 0 1 .5-.124h.09a1.286 1.286 0 0 1 1 .519l.606.817a1.309 1.309 0 0 1-.217 1.786l-1.36 1.124a1.849 1.849 0 0 1-.5 3.512 3.933 3.933 0 0 0 .1.432.885.885 0 0 0 .042.115 2.862 2.862 0 0 0 .33.485 19.666 19.666 0 0 0 1.349 1.47c.126.126.247.245.358.351l.075.071a.391.391 0 0 1 .032.034l.046.052.042.049v.005l.04.047.006.007.038.046.006.008.036.045.007.009.036.045.007.009.035.045.008.01.033.044.008.011.032.044.009.012.031.042.01.013.029.041.011.015.027.039.013.018.024.035.014.021.022.034.015.023.02.031.017.026.012.019q.17.266.314.545l.027.053v.006l.025.049.006.012.022.045.008.016.02.041.01.022.016.034.014.031.011.025.008.017v.007a6.947 6.947 0 0 1-.158 5.987l-.007.013-.019.038-.012.022-.017.032-.015.028-.015.028-.018.033-.013.024-.022.04-.01.018-.033.058A6.51 6.51 0 0 1 13.373 36zm0-1.054h3.747a5.387 5.387 0 0 0 .849-.067 5.457 5.457 0 0 0 3.852-2.642 5.906 5.906 0 0 0 .583-1.384l.009-.033v-.015a5.9 5.9 0 0 0 .2-1.739v-.027a5.9 5.9 0 0 0-.5-2.16v-.008q-.088-.2-.19-.387l-.007-.013-.016-.029-.018-.032-.006-.011a5.913 5.913 0 0 0-.7-1 15.138 15.138 0 0 1-2.33-2.669 3.5 3.5 0 0 1-.259-.984H8.157l-.011.062a3.337 3.337 0 0 1-.249.921A15.138 15.138 0 0 1 5.579 25.4a5.923 5.923 0 0 0-.556.75l-.013.021L5 26.2l-.026.043a5.9 5.9 0 0 0-.328.63v.008a5.9 5.9 0 0 0-.5 2.146v.041a5.877 5.877 0 0 0 .793 3.172 5.455 5.455 0 0 0 4.3 2.694q.184.012.388.012zM7.355 20.692h8.29a.795.795 0 0 0 0-1.589h-8.29a.795.795 0 0 0 0 1.589zm.687-2.644h6.917l2.141-1.771.018-.016a.252.252 0 0 0 .024-.327l-.6-.816a.234.234 0 0 0-.212-.093.226.226 0 0 0-.06.015l-.012.005-1.507.723a1.456 1.456 0 0 1-1.748-.382L12 14.2a.655.655 0 0 0-.969-.04q-.019.019-.037.04l-.992 1.188a1.456 1.456 0 0 1-1.748.382l-1.507-.723a.232.232 0 0 0-.285.072l-.6.816a.252.252 0 0 0 .024.327l.018.016zm6.6-13.574a26.43 26.43 0 0 1 1.481 6.574 5 5 0 0 1 5.737-.589 10.578 10.578 0 0 0-1.673-3.73 10.756 10.756 0 0 0-1.47-1.671l-.028-.028a10.6 10.6 0 0 0-5.139-2.6q.08.107.156.219a9.432 9.432 0 0 1 .936 1.825zm-7.765 6.574a26.662 26.662 0 0 1 1.449-6.493l.032-.081a9.472 9.472 0 0 1 .925-1.808l.009-.013q.077-.114.159-.222a10.6 10.6 0 0 0-5.139 2.6l-.028.028a10.759 10.759 0 0 0-1.475 1.675 10.577 10.577 0 0 0-1.67 3.725 5 5 0 0 1 5.695.552zm8.153-.274c-.682-5.56-2.273-8.541-3.53-8.542-1.085 0-2.419 2.223-3.2 6.407q-.186.994-.328 2.135A4.964 4.964 0 0 1 11.5 9.319a4.967 4.967 0 0 1 3.53 1.454z" style="stroke:#544ec8;stroke-width:.35px;fill:#544ec8" transform="translate(.175 .175)"/>
    <text data-name="₹" transform="translate(8.675 32.875)" style="font-size:12px;font-family:Roboto-Regular,Roboto;fill:#544ec8"><tspan x="0" y="0">₹</tspan></text>
</svg>
