<svg xmlns="http://www.w3.org/2000/svg" width="163.581" height="69.381" viewBox="0 0 163.581 69.381">
    <g data-name="Group 5443">
        <g data-name="Group 5442">
            <path data-name="Path 9014" d="M162.22 413.639H54.64a1.311 1.311 0 0 1-1.307-1.307 1.311 1.311 0 0 1 1.307-1.307h107.58a1.311 1.311 0 0 1 1.307 1.307 1.311 1.311 0 0 1-1.307 1.307z" transform="translate(.053 -347.925)" style="fill:#4b4d82"/>
            <g data-name="Group 5391">
                <path data-name="Line 123" transform="translate(67.171 41.565)" style="stroke:#4b4d82;stroke-width:.5px;fill:none;stroke-linecap:round;stroke-linejoin:round" d="M0 0v22.842"/>
                <g data-name="Group 5389" transform="translate(54.703 20.79)">
                    <circle data-name="Ellipse 458" cx="10.254" cy="10.254" r="10.254" transform="rotate(-76.415 12.662 9.966)" style="fill:#fdec9d"/>
                    <circle data-name="Ellipse 459" cx="9.608" cy="9.608" r="9.608" transform="rotate(-77.008 12.731 9.252)" style="fill:#f7be35"/>
                    <g data-name="Group 5381">
                        <path data-name="Path 9015" d="M77.52 270.192a9.606 9.606 0 0 1 9.6 9.452v-.156a9.608 9.608 0 1 0-19.215 0v.156a9.606 9.606 0 0 1 9.615-9.452z" transform="translate(-65.145 -267.113)" style="fill:#b58a2c"/>
                    </g>
                    <g data-name="Group 5382">
                        <path data-name="Path 9016" d="M96.286 295.6h.932c.453-.076.705-.882.705-.882h-4.685l-.771.89h2.117a1.743 1.743 0 0 1 .569.484h-2.111l-.575.85h2.8a1.174 1.174 0 0 1-.074.157c-.427.754-2.361.562-2.361.562v.989l2.746 2.746h1.386l-2.645-3.023c1.43-.134 1.934-.79 2.075-1.43h.828c.418-.144.628-.85.628-.85h-1.439a2.576 2.576 0 0 0-.125-.493z" transform="translate(-82.82 -284.995)" style="fill:#b58a2c"/>
                        <path data-name="Path 9017" d="M96.286 294.977h.932c.453-.076.705-.882.705-.882h-4.685l-.771.89h2.117a1.74 1.74 0 0 1 .569.484h-2.111l-.575.849h2.8a1.15 1.15 0 0 1-.074.157c-.427.754-2.361.562-2.361.562v.988l2.746 2.746h1.386l-2.645-3.023c1.43-.134 1.934-.79 2.075-1.43h.828c.418-.144.628-.849.628-.849h-1.439a2.583 2.583 0 0 0-.125-.492z" transform="translate(-82.82 -284.544)" style="fill:#fdec9d"/>
                    </g>
                    <g data-name="Group 5383">
                        <path data-name="Path 9018" d="M97.1 334.249a.08.08 0 0 1-.059.077 6.451 6.451 0 0 1-3.271.11 4.293 4.293 0 0 1-1.235-.477.08.08 0 1 1 .087-.135 5.681 5.681 0 0 0 4.375.347.081.081 0 0 1 .1.055.086.086 0 0 1 .003.023z" transform="translate(-82.846 -313.134)" style="fill:#b58a2c"/>
                        <path data-name="Path 9019" d="M94.357 329.691a.077.077 0 0 1-.007.033l-.6 1.336a.08.08 0 0 1-.147-.066l.6-1.336a.08.08 0 0 1 .154.033z" transform="translate(-83.63 -310.11)" style="fill:#b58a2c"/>
                        <path data-name="Path 9020" d="M95.909 330.478a.994.994 0 0 1-.007.117.157.157 0 0 1-.038.142c-.068.072-.2.076-.406.012a3.831 3.831 0 0 1-.747-.32.08.08 0 0 1 .082-.139 3.757 3.757 0 0 0 .713.305c.2.061.243.031.244.031a.067.067 0 0 1-.008-.036 1.1 1.1 0 0 0-.315-.841.08.08 0 0 1 .111-.116 1.281 1.281 0 0 1 .371.845z" transform="translate(-84.406 -310.11)" style="fill:#b58a2c"/>
                        <path data-name="Path 9021" d="M100.914 333.672a.08.08 0 0 1-.08.08h-.434l.048.589a.08.08 0 0 1-.073.087.081.081 0 0 1-.087-.073l-.055-.676a.084.084 0 0 1 .021-.061.081.081 0 0 1 .059-.026h.524a.08.08 0 0 1 .077.08z" transform="translate(-88.408 -312.976)" style="fill:#b58a2c"/>
                        <path data-name="Path 9022" d="M101.047 331.793a.08.08 0 0 1-.157.024 3.191 3.191 0 0 0-.638-1.007.08.08 0 1 1 .116-.111 3.3 3.3 0 0 1 .675 1.069.078.078 0 0 1 .004.025z" transform="translate(-88.408 -310.876)" style="fill:#b58a2c"/>
                        <path data-name="Path 9023" d="M104.368 332.2a.08.08 0 0 1-.16.011l-.2-1.448a.08.08 0 0 1 .159-.022l.2 1.448a.076.076 0 0 1 .001.011z" transform="translate(-91.126 -310.876)" style="fill:#b58a2c"/>
                        <path data-name="Path 9024" d="M106.459 332.07a.08.08 0 0 1-.158.022l-.379-1.315a.08.08 0 0 1 .155-.044l.379 1.315a.088.088 0 0 1 .003.022z" transform="translate(-92.503 -310.876)" style="fill:#b58a2c"/>
                        <path data-name="Path 9025" d="M107.705 331.807a.081.081 0 0 1-.052.075l-.949.363a.08.08 0 1 1-.057-.15l.949-.362a.08.08 0 0 1 .1.047.078.078 0 0 1 .009.027z" transform="translate(-92.99 -311.633)" style="fill:#b58a2c"/>
                        <path data-name="Path 9026" d="M109.876 332.038a.257.257 0 0 1-.016.1.18.18 0 0 1-.107.106c-.253.1-.351-.133-.437-.335-.107-.251-.269-.654-.269-.654l.149-.06s.161.4.267.651c.119.277.157.277.233.248a.022.022 0 0 0 .014-.014.448.448 0 0 0-.058-.255.08.08 0 0 1 .144-.072.74.74 0 0 1 .08.285z" transform="translate(-94.755 -311.247)" style="fill:#b58a2c"/>
                    </g>
                    <g data-name="Group 5384">
                        <path data-name="Path 9027" d="M97.056 333.656a.08.08 0 0 1-.058.077 6.448 6.448 0 0 1-3.271.11 4.3 4.3 0 0 1-1.235-.477.08.08 0 0 1 .087-.135 5.68 5.68 0 0 0 4.375.347.08.08 0 0 1 .1.055.075.075 0 0 1 .002.023z" transform="translate(-82.812 -312.707)" style="fill:#fdec9d"/>
                        <path data-name="Path 9028" d="M94.309 329.1a.082.082 0 0 1-.007.033l-.6 1.336a.08.08 0 1 1-.147-.066l.6-1.336a.08.08 0 0 1 .154.033z" transform="translate(-83.596 -309.683)" style="fill:#fdec9d"/>
                        <path data-name="Path 9029" d="M95.86 329.885a1 1 0 0 1-.007.118.158.158 0 0 1-.038.142c-.068.072-.2.075-.406.012a3.808 3.808 0 0 1-.747-.321.08.08 0 1 1 .081-.138 3.762 3.762 0 0 0 .713.305c.2.061.243.031.244.031a.069.069 0 0 1-.008-.036 1.1 1.1 0 0 0-.315-.84.08.08 0 0 1 .111-.116 1.282 1.282 0 0 1 .372.843z" transform="translate(-84.372 -309.683)" style="fill:#fdec9d"/>
                        <path data-name="Path 9030" d="M100.866 333.078a.08.08 0 0 1-.08.08h-.437l.048.589a.081.081 0 1 1-.161.013l-.055-.675a.082.082 0 0 1 .021-.061.081.081 0 0 1 .059-.026h.524a.08.08 0 0 1 .081.08z" transform="translate(-88.374 -312.548)" style="fill:#fdec9d"/>
                        <path data-name="Path 9031" d="M101 331.2a.08.08 0 0 1-.157.024 3.187 3.187 0 0 0-.638-1.006.08.08 0 0 1 .117-.111 3.3 3.3 0 0 1 .675 1.069.08.08 0 0 1 .003.024z" transform="translate(-88.373 -310.448)" style="fill:#fdec9d"/>
                        <path data-name="Path 9032" d="M104.32 331.609a.08.08 0 0 1-.16.011l-.2-1.448a.08.08 0 0 1 .068-.091.081.081 0 0 1 .091.069l.2 1.448a.072.072 0 0 1 .001.011z" transform="translate(-91.092 -310.448)" style="fill:#fdec9d"/>
                        <path data-name="Path 9033" d="M106.41 331.477a.08.08 0 0 1-.157.022l-.379-1.315a.08.08 0 0 1 .154-.045l.379 1.315a.087.087 0 0 1 .003.023z" transform="translate(-92.469 -310.449)" style="fill:#fdec9d"/>
                        <path data-name="Path 9034" d="M107.656 331.214a.08.08 0 0 1-.052.075l-.949.363a.08.08 0 1 1-.057-.15l.949-.363a.081.081 0 0 1 .1.047.078.078 0 0 1 .009.028z" transform="translate(-92.955 -311.206)" style="fill:#fdec9d"/>
                        <path data-name="Path 9035" d="M109.828 331.445a.263.263 0 0 1-.016.1.181.181 0 0 1-.107.106c-.253.1-.351-.133-.437-.335-.108-.251-.269-.654-.269-.654l.149-.06s.16.4.267.651c.118.277.157.276.232.248a.02.02 0 0 0 .014-.014.449.449 0 0 0-.057-.255.08.08 0 1 1 .143-.072.734.734 0 0 1 .081.285z" transform="translate(-94.721 -310.82)" style="fill:#fdec9d"/>
                    </g>
                    <g data-name="Group 5387">
                        <g data-name="Group 5385">
                            <path data-name="Path 9036" d="m86.5 278.94.259-.141 1.035 1.908-.259.14z" transform="translate(-78.522 -273.533)" style="fill:#b58a2c"/>
                            <path data-name="Path 9037" d="m91.874 275.6.615 2.12-.039.011-1.8-1.068.415 1.432-.28.081-.614-2.117.039-.011 1.812 1.095-.424-1.462z" transform="translate(-81.165 -271.227)" style="fill:#b58a2c"/>
                            <path data-name="Path 9038" d="M101.4 276.286a1.042 1.042 0 0 1-1.109 1.07l-.57-.011.041-2.169.57.011a1.034 1.034 0 0 1 1.068 1.099zm-.3-.006a.749.749 0 0 0-.772-.805l-.279-.005-.031 1.593.279.005a.764.764 0 0 0 .803-.787z" transform="translate(-88.041 -270.925)" style="fill:#b58a2c"/>
                            <path data-name="Path 9039" d="m107.271 275.86.288.064-.472 2.12-.288-.064z" transform="translate(-93.137 -271.417)" style="fill:#b58a2c"/>
                            <path data-name="Path 9040" d="m109.924 279.492-.853-.37-.36.347-.3-.129 1.755-1.638.04.017.005 2.4-.3-.128zm.005-.308.015-.906-.652.63z" transform="translate(-94.298 -272.743)" style="fill:#b58a2c"/>
                        </g>
                        <g data-name="Group 5386">
                            <path data-name="Path 9041" d="m86.5 278.377.259-.141 1.035 1.908-.259.14z" transform="translate(-78.522 -273.128)" style="fill:#fdec9d"/>
                            <path data-name="Path 9042" d="m91.874 275.032.615 2.12-.039.011-1.8-1.068.415 1.432-.28.081-.614-2.117.039-.011 1.812 1.095-.424-1.462z" transform="translate(-81.165 -270.822)" style="fill:#fdec9d"/>
                            <path data-name="Path 9043" d="M101.4 275.723a1.042 1.042 0 0 1-1.109 1.07l-.57-.011.041-2.17.57.011a1.034 1.034 0 0 1 1.068 1.1zm-.3-.006a.749.749 0 0 0-.772-.805l-.279-.005-.031 1.593.279.005a.764.764 0 0 0 .803-.787z" transform="translate(-88.041 -270.52)" style="fill:#fdec9d"/>
                            <path data-name="Path 9044" d="m107.271 275.3.288.064-.472 2.12-.288-.064z" transform="translate(-93.137 -271.013)" style="fill:#fdec9d"/>
                            <path data-name="Path 9045" d="m109.924 278.929-.853-.37-.36.347-.3-.129 1.755-1.638.04.017.005 2.4-.3-.129zm.005-.308.015-.906-.652.629z" transform="translate(-94.298 -272.338)" style="fill:#fdec9d"/>
                        </g>
                    </g>
                    <g data-name="Group 5388" style="opacity:.2">
                        <path data-name="Path 9046" d="m84.43 272.755-12.268 13.436a9.654 9.654 0 0 0 1.908 2.432l12.955-14.189a9.62 9.62 0 0 0-2.595-1.679z" transform="translate(-68.204 -269.182)" style="fill:#fff"/>
                        <path data-name="Path 9047" d="m95.642 282.293-12.831 14.053q.4.272.818.5l12.59-13.788q-.27-.395-.577-.765z" transform="translate(-75.87 -276.048)" style="fill:#fff"/>
                    </g>
                </g>
                <g data-name="Group 5390">
                    <path data-name="Path 9048" d="M109.943 356.826s-8.267 1.4-7.078 6.871c5.435 1.351 7.078-6.871 7.078-6.871z" transform="translate(-35.518 -308.91)" style="fill:#4b4d82"/>
                    <path data-name="Path 9049" d="M103.5 366.132a54.268 54.268 0 0 1 5.97-5.8" transform="translate(-36.062 -311.437)" style="stroke:#272a4c;stroke-width:.567px;fill:none;stroke-linecap:round;stroke-linejoin:round"/>
                    <path data-name="Line 124" transform="translate(71.652 49.189)" style="stroke:#272a4c;stroke-width:.567px;fill:none;stroke-linecap:round;stroke-linejoin:round" d="m0 0 .064 1.135"/>
                    <path data-name="Line 125" transform="translate(71.067 50.933)" style="stroke:#272a4c;stroke-width:.567px;fill:none;stroke-linecap:round;stroke-linejoin:round" d="m0 0 1.596.461"/>
                    <path data-name="Line 126" transform="translate(70.307 51.674)" style="stroke:#272a4c;stroke-width:.567px;fill:none;stroke-linecap:round;stroke-linejoin:round" d="m0 0 .804.221"/>
                    <path data-name="Line 127" transform="translate(69.679 50.419)" style="stroke:#272a4c;stroke-width:.567px;fill:none;stroke-linecap:round;stroke-linejoin:round" d="M.198 1.673 0 0"/>
                    <path data-name="Line 128" transform="translate(68.966 52.204)" style="stroke:#272a4c;stroke-width:.567px;fill:none;stroke-linecap:round;stroke-linejoin:round" d="M.195.64 0 0"/>
                    <path data-name="Line 129" transform="translate(68.675 53.355)" style="stroke:#272a4c;stroke-width:.567px;fill:none;stroke-linecap:round;stroke-linejoin:round" d="m0 0 1.735.337"/>
                    <path data-name="Line 130" transform="translate(68.184 53.974)" style="stroke:#272a4c;stroke-width:.567px;fill:none;stroke-linecap:round;stroke-linejoin:round" d="m0 0 1.042.348"/>
                    <path data-name="Line 131" transform="translate(68.055 52.811)" style="stroke:#272a4c;stroke-width:.567px;fill:none;stroke-linecap:round;stroke-linejoin:round" d="M.257.932 0 0"/>
                </g>
            </g>
            <g data-name="Group 5402">
                <path data-name="Line 132" transform="translate(91.214 28.742)" style="stroke:#4b4d82;stroke-width:.5px;fill:none;stroke-linecap:round;stroke-linejoin:round" d="M0 0v35.033"/>
                <g data-name="Group 5400" transform="translate(76.262 3.667)">
                    <circle data-name="Ellipse 460" cx="11.536" cy="11.536" r="11.536" transform="rotate(-68.6 15.746 10.74)" style="fill:#fdec9d"/>
                    <circle data-name="Ellipse 461" cx="10.809" cy="10.809" r="10.809" transform="translate(4.142 4.142)" style="fill:#f7be35"/>
                    <g data-name="Group 5392">
                        <path data-name="Path 9050" d="M160.581 214.021a10.807 10.807 0 0 1 10.805 10.634v-.175a10.809 10.809 0 0 0-21.619 0v.175a10.807 10.807 0 0 1 10.814-10.634z" transform="translate(-145.63 -209.528)" style="fill:#b58a2c"/>
                    </g>
                    <g data-name="Group 5393">
                        <path data-name="Path 9051" d="M181.695 242.61h1.049c.51-.085.794-.992.794-.992h-5.272l-.867 1h2.382a1.964 1.964 0 0 1 .641.544h-2.376l-.647.956h3.153a1.352 1.352 0 0 1-.083.176c-.481.849-2.656.632-2.656.632v1.112l3.09 3.09h1.559l-2.976-3.4c1.608-.151 2.175-.889 2.334-1.609h.932c.471-.162.706-.956.706-.956h-1.621a2.871 2.871 0 0 0-.142-.553z" transform="translate(-165.516 -229.646)" style="fill:#b58a2c"/>
                        <path data-name="Path 9052" d="M181.695 241.905h1.049c.51-.085.794-.992.794-.992h-5.272l-.867 1h2.382a1.964 1.964 0 0 1 .641.544h-2.376l-.647.956h3.153a1.369 1.369 0 0 1-.083.176c-.481.848-2.656.632-2.656.632v1.112l3.09 3.09h1.559l-2.976-3.4c1.608-.151 2.175-.889 2.334-1.609h.932c.471-.162.706-.956.706-.956h-1.621a2.869 2.869 0 0 0-.142-.553z" transform="translate(-165.516 -229.138)" style="fill:#fdec9d"/>
                    </g>
                    <g data-name="Group 5394">
                        <path data-name="Path 9053" d="M182.615 286.09a.09.09 0 0 1-.066.087 7.255 7.255 0 0 1-3.68.124 4.831 4.831 0 0 1-1.39-.536.09.09 0 0 1 .1-.152 6.39 6.39 0 0 0 4.922.39.091.091 0 0 1 .112.062.1.1 0 0 1 .002.025z" transform="translate(-165.546 -261.305)" style="fill:#b58a2c"/>
                        <path data-name="Path 9054" d="M179.524 280.962a.09.09 0 0 1-.008.037l-.68 1.5a.091.091 0 0 1-.165-.074l.68-1.5a.09.09 0 0 1 .173.038z" transform="translate(-166.427 -257.903)" style="fill:#b58a2c"/>
                        <path data-name="Path 9055" d="M181.27 281.847a1.129 1.129 0 0 1-.008.132.178.178 0 0 1-.043.16c-.076.081-.222.085-.457.013a4.311 4.311 0 0 1-.841-.361.09.09 0 1 1 .092-.156 4.223 4.223 0 0 0 .8.343c.224.068.273.035.274.035a.078.078 0 0 1-.009-.041 1.237 1.237 0 0 0-.354-.946.09.09 0 0 1 .125-.131 1.443 1.443 0 0 1 .421.952z" transform="translate(-167.301 -257.903)" style="fill:#b58a2c"/>
                        <path data-name="Path 9056" d="M186.9 285.441a.091.091 0 0 1-.09.09h-.492l.054.662a.09.09 0 0 1-.083.1.091.091 0 0 1-.1-.083l-.062-.76a.093.093 0 0 1 .024-.069.09.09 0 0 1 .066-.029h.59a.091.091 0 0 1 .093.089z" transform="translate(-171.803 -261.126)" style="fill:#b58a2c"/>
                        <path data-name="Path 9057" d="M187.05 283.327a.09.09 0 0 1-.177.027 3.589 3.589 0 0 0-.717-1.132.09.09 0 0 1 .131-.124 3.712 3.712 0 0 1 .759 1.2.088.088 0 0 1 .004.029z" transform="translate(-171.803 -258.764)" style="fill:#b58a2c"/>
                        <path data-name="Path 9058" d="M190.787 283.788a.09.09 0 0 1-.18.012l-.226-1.628a.09.09 0 1 1 .179-.025l.226 1.629a.1.1 0 0 1 .001.012z" transform="translate(-174.862 -258.764)" style="fill:#b58a2c"/>
                        <path data-name="Path 9059" d="M193.139 283.638a.09.09 0 0 1-.177.025l-.426-1.479a.091.091 0 0 1 .174-.05l.426 1.479a.083.083 0 0 1 .003.025z" transform="translate(-176.411 -258.764)" style="fill:#b58a2c"/>
                        <path data-name="Path 9060" d="M194.542 283.342a.091.091 0 0 1-.058.085l-1.068.408a.091.091 0 0 1-.064-.169l1.068-.408a.091.091 0 0 1 .117.052.094.094 0 0 1 .005.032z" transform="translate(-176.958 -259.616)" style="fill:#b58a2c"/>
                        <path data-name="Path 9061" d="M196.985 283.6a.3.3 0 0 1-.018.107.2.2 0 0 1-.121.119c-.285.108-.395-.15-.492-.377-.121-.283-.3-.736-.3-.736l.168-.067s.18.451.3.732c.133.312.176.311.262.279a.024.024 0 0 0 .016-.016.5.5 0 0 0-.065-.287.09.09 0 0 1 .162-.081.825.825 0 0 1 .088.327z" transform="translate(-178.944 -259.181)" style="fill:#b58a2c"/>
                    </g>
                    <g data-name="Group 5395">
                        <path data-name="Path 9062" d="M182.56 285.423a.09.09 0 0 1-.066.087 7.251 7.251 0 0 1-3.68.124 4.835 4.835 0 0 1-1.39-.536.09.09 0 0 1 .1-.152 6.391 6.391 0 0 0 4.922.39.091.091 0 0 1 .112.062.1.1 0 0 1 .002.025z" transform="translate(-165.506 -260.825)" style="fill:#fdec9d"/>
                        <path data-name="Path 9063" d="M179.47 280.295a.091.091 0 0 1-.008.037l-.68 1.5a.09.09 0 1 1-.165-.075l.68-1.5a.09.09 0 0 1 .173.037z" transform="translate(-166.388 -257.422)" style="fill:#fdec9d"/>
                        <path data-name="Path 9064" d="M181.215 281.18a1.114 1.114 0 0 1-.008.132.177.177 0 0 1-.042.16c-.077.081-.222.085-.457.013a4.335 4.335 0 0 1-.841-.361.091.091 0 0 1 .092-.156 4.235 4.235 0 0 0 .8.344c.224.068.273.035.274.035a.077.077 0 0 1-.009-.041 1.235 1.235 0 0 0-.354-.945.09.09 0 0 1 .125-.131 1.442 1.442 0 0 1 .42.95z" transform="translate(-167.261 -257.422)" style="fill:#fdec9d"/>
                        <path data-name="Path 9065" d="M186.847 284.773a.09.09 0 0 1-.091.091h-.492l.055.662a.091.091 0 0 1-.18.015l-.062-.76a.094.094 0 0 1 .024-.069.089.089 0 0 1 .066-.029h.59a.09.09 0 0 1 .09.09z" transform="translate(-171.763 -260.646)" style="fill:#fdec9d"/>
                        <path data-name="Path 9066" d="M187 282.659a.09.09 0 0 1-.177.027 3.588 3.588 0 0 0-.718-1.132.09.09 0 1 1 .131-.124 3.7 3.7 0 0 1 .759 1.2.093.093 0 0 1 .005.029z" transform="translate(-171.763 -258.284)" style="fill:#fdec9d"/>
                        <path data-name="Path 9067" d="M190.732 283.12a.09.09 0 0 1-.18.012l-.226-1.629a.09.09 0 0 1 .179-.025l.226 1.629a.064.064 0 0 1 .001.013z" transform="translate(-174.822 -258.284)" style="fill:#fdec9d"/>
                        <path data-name="Path 9068" d="M193.085 282.97a.09.09 0 0 1-.177.025l-.426-1.479a.09.09 0 0 1 .174-.05l.426 1.479a.1.1 0 0 1 .003.025z" transform="translate(-176.371 -258.284)" style="fill:#fdec9d"/>
                        <path data-name="Path 9069" d="M194.488 282.675a.09.09 0 0 1-.058.085l-1.068.408a.09.09 0 0 1-.062-.168l1.068-.408a.09.09 0 0 1 .117.052.094.094 0 0 1 .003.031z" transform="translate(-176.919 -259.136)" style="fill:#fdec9d"/>
                        <path data-name="Path 9070" d="M196.93 282.935a.29.29 0 0 1-.018.107.2.2 0 0 1-.12.119c-.285.108-.395-.15-.492-.377-.121-.283-.3-.736-.3-.736l.168-.067s.18.451.3.732c.133.312.176.311.262.279a.023.023 0 0 0 .016-.016.5.5 0 0 0-.065-.287.09.09 0 1 1 .161-.081.824.824 0 0 1 .088.327z" transform="translate(-178.904 -258.701)" style="fill:#fdec9d"/>
                    </g>
                    <g data-name="Group 5398">
                        <g data-name="Group 5396">
                            <path data-name="Path 9071" d="m170.679 223.862.291-.158 1.165 2.146-.291.158z" transform="translate(-160.679 -216.751)" style="fill:#b58a2c"/>
                            <path data-name="Path 9072" d="m176.731 220.1.692 2.385-.043.013-2.03-1.2.467 1.611-.317.091-.691-2.382.043-.013 2.039 1.232-.477-1.645z" transform="translate(-163.653 -214.156)" style="fill:#b58a2c"/>
                            <path data-name="Path 9073" d="M187.446 220.877a1.172 1.172 0 0 1-1.248 1.2l-.642-.012.047-2.441.642.012a1.163 1.163 0 0 1 1.201 1.241zm-.335-.006a.843.843 0 0 0-.869-.906l-.314-.006-.034 1.792.314.006a.859.859 0 0 0 .903-.886z" transform="translate(-171.389 -213.817)" style="fill:#b58a2c"/>
                            <path data-name="Path 9074" d="m194.053 220.4.324.072-.531 2.385-.324-.072z" transform="translate(-177.122 -214.371)" style="fill:#b58a2c"/>
                            <path data-name="Path 9075" d="m197.038 224.484-.96-.417-.405.391-.336-.146 1.975-1.842.044.02.006 2.7-.333-.145zm.006-.347.017-1.019-.733.708z" transform="translate(-178.429 -215.863)" style="fill:#b58a2c"/>
                        </g>
                        <g data-name="Group 5397">
                            <path data-name="Path 9076" d="m170.679 223.229.291-.158 1.165 2.146-.291.158z" transform="translate(-160.679 -216.295)" style="fill:#fdec9d"/>
                            <path data-name="Path 9077" d="m176.731 219.466.692 2.385-.043.013-2.03-1.2.467 1.611-.315.091-.691-2.382.043-.013 2.039 1.232-.477-1.645z" transform="translate(-163.653 -213.7)" style="fill:#fdec9d"/>
                            <path data-name="Path 9078" d="M187.446 220.244a1.172 1.172 0 0 1-1.248 1.2l-.642-.012.044-2.432.642.012a1.163 1.163 0 0 1 1.204 1.232zm-.335-.007a.843.843 0 0 0-.869-.906l-.314-.006-.034 1.792.314.006a.859.859 0 0 0 .903-.885z" transform="translate(-171.389 -213.361)" style="fill:#fdec9d"/>
                            <path data-name="Path 9079" d="m194.053 219.765.324.072-.531 2.385-.324-.072z" transform="translate(-177.122 -213.915)" style="fill:#fdec9d"/>
                            <path data-name="Path 9080" d="m197.038 223.851-.96-.417-.405.391-.336-.146 1.975-1.842.044.019.006 2.7-.333-.145zm.006-.347.017-1.019-.733.708z" transform="translate(-178.429 -215.407)" style="fill:#fdec9d"/>
                        </g>
                    </g>
                    <g data-name="Group 5399" style="opacity:.2">
                        <path data-name="Path 9081" d="m168.356 216.9-13.8 15.116a10.852 10.852 0 0 0 2.147 2.736l14.576-15.963a10.815 10.815 0 0 0-2.923-1.889z" transform="translate(-149.071 -211.856)" style="fill:#fff"/>
                        <path data-name="Path 9082" d="m180.97 227.636-14.436 15.81a10.684 10.684 0 0 0 .92.568l14.164-15.514a10.751 10.751 0 0 0-.648-.864z" transform="translate(-157.695 -219.581)" style="fill:#fff"/>
                    </g>
                </g>
                <g data-name="Group 5401">
                    <path data-name="Path 9083" d="M157.375 315.553s8.365-.573 8.488 5.026c-4.963 2.584-8.488-5.026-8.488-5.026z" transform="translate(-74.841 -279.188)" style="fill:#4b4d82"/>
                    <path data-name="Path 9084" d="M168.872 322.4a54.251 54.251 0 0 0-7.16-4.239" transform="translate(-77.963 -281.079)" style="stroke:#272a4c;stroke-width:.567px;fill:none;stroke-linecap:round;stroke-linejoin:round"/>
                    <path data-name="Line 133" transform="translate(85.528 36.954)" style="stroke:#272a4c;stroke-width:.567px;fill:none;stroke-linecap:round;stroke-linejoin:round" d="m0 0 .203 1.118"/>
                    <path data-name="Line 134" transform="translate(85.06 38.512)" style="stroke:#272a4c;stroke-width:.567px;fill:none;stroke-linecap:round;stroke-linejoin:round" d="M1.444 0 0 .822"/>
                    <path data-name="Line 135" transform="translate(86.686 39.056)" style="stroke:#272a4c;stroke-width:.567px;fill:none;stroke-linecap:round;stroke-linejoin:round" d="M.73 0 0 .402"/>
                    <path data-name="Line 136" transform="translate(87.734 37.689)" style="stroke:#272a4c;stroke-width:.567px;fill:none;stroke-linecap:round;stroke-linejoin:round" d="M.199 1.673 0 0"/>
                    <path data-name="Line 137" transform="translate(88.804 39.257)" style="stroke:#272a4c;stroke-width:.567px;fill:none;stroke-linecap:round;stroke-linejoin:round" d="M0 .667.04 0"/>
                    <path data-name="Line 138" transform="translate(87.788 40.308)" style="stroke:#272a4c;stroke-width:.567px;fill:none;stroke-linecap:round;stroke-linejoin:round" d="M1.608 0 0 .733"/>
                    <path data-name="Line 139" transform="translate(89.087 40.796)" style="stroke:#272a4c;stroke-width:.567px;fill:none;stroke-linecap:round;stroke-linejoin:round" d="M.932 0 0 .582"/>
                    <path data-name="Line 140" transform="translate(89.84 39.634)" style="stroke:#272a4c;stroke-width:.567px;fill:none;stroke-linecap:round;stroke-linejoin:round" d="M0 .967.032 0"/>
                </g>
            </g>
            <g data-name="Group 5413">
                <path data-name="Line 141" transform="translate(111.091 41.708)" style="stroke:#4b4d82;stroke-width:.5px;fill:none;stroke-linecap:round;stroke-linejoin:round" d="M0 0v22.067"/>
                <g data-name="Group 5411" transform="translate(100.146 29.939)">
                    <circle data-name="Ellipse 462" cx="8.415" cy="8.415" r="8.415" transform="rotate(-68.118 11.55 7.809)" style="fill:#fdec9d"/>
                    <circle data-name="Ellipse 463" cx="7.885" cy="7.885" r="7.885" transform="rotate(-80.863 11.21 7.619)" style="fill:#f7be35"/>
                    <g data-name="Group 5403">
                        <path data-name="Path 9085" d="M239.049 303.839a7.883 7.883 0 0 1 7.881 7.757v-.128a7.885 7.885 0 1 0-15.769 0v.128a7.883 7.883 0 0 1 7.888-7.757z" transform="translate(-228.104 -300.523)" style="fill:#b58a2c"/>
                    </g>
                    <g data-name="Group 5404">
                        <path data-name="Path 9086" d="M254.449 324.693h.765c.372-.062.579-.724.579-.724h-3.845l-.633.73h1.738a1.427 1.427 0 0 1 .467.4h-1.733l-.472.7h2.3a.96.96 0 0 1-.061.129c-.351.619-1.937.461-1.937.461v.811l2.254 2.254h1.137l-2.171-2.481c1.173-.11 1.587-.649 1.7-1.174h.68c.343-.118.515-.7.515-.7h-1.182a2.107 2.107 0 0 0-.101-.406z" transform="translate(-242.61 -315.198)" style="fill:#b58a2c"/>
                        <path data-name="Path 9087" d="M254.449 324.179h.765c.372-.062.579-.724.579-.724h-3.845l-.633.73h1.738a1.429 1.429 0 0 1 .467.4h-1.733l-.472.7h2.3a.959.959 0 0 1-.061.129c-.351.619-1.937.461-1.937.461v.811l2.254 2.254h1.137l-2.171-2.481c1.173-.11 1.587-.649 1.7-1.174h.68c.343-.118.515-.7.515-.7h-1.182a2.108 2.108 0 0 0-.101-.406z" transform="translate(-242.61 -314.828)" style="fill:#fdec9d"/>
                    </g>
                    <g data-name="Group 5405">
                        <path data-name="Path 9088" d="M255.12 356.409a.066.066 0 0 1-.048.063 5.293 5.293 0 0 1-2.684.091 3.528 3.528 0 0 1-1.014-.391.066.066 0 1 1 .071-.111 4.663 4.663 0 0 0 3.59.285.066.066 0 0 1 .082.045.068.068 0 0 1 .003.018z" transform="translate(-242.631 -338.291)" style="fill:#b58a2c"/>
                        <path data-name="Path 9089" d="M252.866 352.668a.06.06 0 0 1-.006.027l-.5 1.1a.066.066 0 1 1-.12-.054l.5-1.1a.066.066 0 0 1 .126.027z" transform="translate(-243.274 -335.809)" style="fill:#b58a2c"/>
                        <path data-name="Path 9090" d="M254.139 353.314a.755.755 0 0 1-.006.1.129.129 0 0 1-.031.116c-.056.059-.162.062-.333.01a3.159 3.159 0 0 1-.614-.263.066.066 0 0 1 .067-.114 3.087 3.087 0 0 0 .585.25c.164.05.2.026.2.025a.052.052 0 0 1-.006-.03.9.9 0 0 0-.259-.69.066.066 0 0 1 .091-.1 1.052 1.052 0 0 1 .306.696z" transform="translate(-243.911 -335.809)" style="fill:#b58a2c"/>
                        <path data-name="Path 9091" d="M258.247 355.935a.066.066 0 0 1-.066.066h-.359l.04.483a.066.066 0 0 1-.132.011l-.045-.554a.069.069 0 0 1 .017-.05.066.066 0 0 1 .049-.021h.43a.066.066 0 0 1 .066.065z" transform="translate(-247.195 -338.161)" style="fill:#b58a2c"/>
                        <path data-name="Path 9092" d="M258.356 354.392a.066.066 0 0 1-.129.02 2.619 2.619 0 0 0-.523-.826.066.066 0 0 1 .1-.091 2.71 2.71 0 0 1 .554.878.068.068 0 0 1-.002.019z" transform="translate(-247.195 -336.437)" style="fill:#b58a2c"/>
                        <path data-name="Path 9093" d="M261.081 354.729a.066.066 0 0 1-.131.009l-.165-1.188a.065.065 0 0 1 .056-.074.066.066 0 0 1 .075.056l.165 1.188a.052.052 0 0 1 0 .009z" transform="translate(-249.426 -336.437)" style="fill:#b58a2c"/>
                        <path data-name="Path 9094" d="M262.8 354.619a.066.066 0 0 1-.129.019l-.311-1.079a.066.066 0 1 1 .127-.037l.311 1.079a.068.068 0 0 1 .002.018z" transform="translate(-250.556 -336.437)" style="fill:#b58a2c"/>
                        <path data-name="Path 9095" d="M263.82 354.4a.066.066 0 0 1-.043.062l-.779.3a.066.066 0 1 1-.047-.123l.779-.3a.066.066 0 0 1 .085.038.063.063 0 0 1 .005.023z" transform="translate(-250.956 -337.059)" style="fill:#b58a2c"/>
                        <path data-name="Path 9096" d="M265.6 354.594a.215.215 0 0 1-.013.078.147.147 0 0 1-.088.087c-.208.078-.288-.109-.359-.275a30.83 30.83 0 0 1-.22-.537l.122-.049s.132.329.219.534c.1.228.129.227.191.2a.017.017 0 0 0 .012-.011.37.37 0 0 0-.047-.209.066.066 0 1 1 .118-.06.607.607 0 0 1 .065.242z" transform="translate(-252.404 -336.742)" style="fill:#b58a2c"/>
                    </g>
                    <g data-name="Group 5406">
                        <path data-name="Path 9097" d="M255.08 355.922a.066.066 0 0 1-.048.063 5.294 5.294 0 0 1-2.684.091 3.523 3.523 0 0 1-1.014-.391.066.066 0 1 1 .071-.111 4.663 4.663 0 0 0 3.59.285.066.066 0 0 1 .081.045.068.068 0 0 1 .004.018z" transform="translate(-242.603 -337.941)" style="fill:#fdec9d"/>
                        <path data-name="Path 9098" d="M252.826 352.181a.067.067 0 0 1-.006.027l-.5 1.1a.066.066 0 1 1-.12-.054l.5-1.1a.066.066 0 0 1 .126.027z" transform="translate(-243.246 -335.459)" style="fill:#fdec9d"/>
                        <path data-name="Path 9099" d="M254.1 352.827a.748.748 0 0 1-.006.1.129.129 0 0 1-.031.116c-.056.059-.162.062-.333.01a3.14 3.14 0 0 1-.613-.263.066.066 0 1 1 .067-.114 3.065 3.065 0 0 0 .585.25c.164.05.2.026.2.025a.053.053 0 0 1-.006-.03.9.9 0 0 0-.259-.69.066.066 0 0 1 .091-.1 1.052 1.052 0 0 1 .305.696z" transform="translate(-243.883 -335.459)" style="fill:#fdec9d"/>
                        <path data-name="Path 9100" d="M258.208 355.448a.066.066 0 0 1-.066.066h-.359l.04.483a.066.066 0 1 1-.132.011l-.045-.554a.068.068 0 0 1 .017-.05.065.065 0 0 1 .049-.021h.43a.066.066 0 0 1 .066.065z" transform="translate(-247.167 -337.811)" style="fill:#fdec9d"/>
                        <path data-name="Path 9101" d="M258.316 353.906a.066.066 0 0 1-.129.02 2.616 2.616 0 0 0-.523-.826.066.066 0 0 1 .1-.091 2.705 2.705 0 0 1 .554.878.069.069 0 0 1-.002.019z" transform="translate(-247.167 -336.087)" style="fill:#fdec9d"/>
                        <path data-name="Path 9102" d="M261.042 354.242a.066.066 0 0 1-.131.009l-.165-1.188a.066.066 0 0 1 .131-.018l.165 1.188a.05.05 0 0 1 0 .009z" transform="translate(-249.398 -336.087)" style="fill:#fdec9d"/>
                        <path data-name="Path 9103" d="M262.757 354.133a.066.066 0 0 1-.129.018l-.311-1.079a.066.066 0 1 1 .127-.037l.311 1.079a.064.064 0 0 1 .002.019z" transform="translate(-250.528 -336.087)" style="fill:#fdec9d"/>
                        <path data-name="Path 9104" d="M263.78 353.918a.066.066 0 0 1-.043.062l-.779.3a.066.066 0 1 1-.047-.123l.779-.3a.066.066 0 0 1 .085.038.063.063 0 0 1 .005.023z" transform="translate(-250.928 -336.709)" style="fill:#fdec9d"/>
                        <path data-name="Path 9105" d="M265.563 354.107a.212.212 0 0 1-.013.078.148.148 0 0 1-.088.087c-.208.078-.288-.109-.359-.275a34.573 34.573 0 0 1-.221-.537l.122-.049s.132.329.219.534c.1.228.129.227.191.2a.017.017 0 0 0 .012-.011.365.365 0 0 0-.047-.209.066.066 0 0 1 .118-.059.608.608 0 0 1 .066.241z" transform="translate(-252.376 -336.392)" style="fill:#fdec9d"/>
                    </g>
                    <g data-name="Group 5409">
                        <g data-name="Group 5407">
                            <path data-name="Path 9106" d="m246.414 311.018.213-.115.849 1.565-.212.115z" transform="translate(-239.082 -305.793)" style="fill:#b58a2c"/>
                            <path data-name="Path 9107" d="m250.829 308.273.5 1.74-.032.009-1.481-.876.341 1.175-.23.067-.5-1.737.032-.009 1.487.9-.348-1.2z" transform="translate(-241.252 -303.9)" style="fill:#b58a2c"/>
                            <path data-name="Path 9108" d="M258.645 308.84a.855.855 0 0 1-.91.878l-.468-.009.034-1.781.468.009a.848.848 0 0 1 .876.903zm-.244 0a.615.615 0 0 0-.634-.661h-.229l-.025 1.307h.229a.627.627 0 0 0 .658-.65z" transform="translate(-246.894 -303.652)" style="fill:#b58a2c"/>
                            <path data-name="Path 9109" d="m263.464 308.491.236.053-.388 1.74-.236-.053z" transform="translate(-251.076 -304.057)" style="fill:#b58a2c"/>
                            <path data-name="Path 9110" d="m265.641 311.472-.7-.3-.3.285-.245-.106L265.84 310l.033.014v1.971l-.243-.105zm0-.253.012-.743-.535.516z" transform="translate(-252.029 -305.145)" style="fill:#b58a2c"/>
                        </g>
                        <g data-name="Group 5408">
                            <path data-name="Path 9111" d="m246.414 310.556.213-.115.849 1.565-.212.115z" transform="translate(-239.082 -305.46)" style="fill:#fdec9d"/>
                            <path data-name="Path 9112" d="m250.829 307.811.5 1.74-.032.009-1.481-.877.341 1.175-.23.067-.5-1.737.032-.009 1.487.9-.348-1.2z" transform="translate(-241.252 -303.567)" style="fill:#fdec9d"/>
                            <path data-name="Path 9113" d="M258.645 308.378a.855.855 0 0 1-.91.878l-.468-.009.034-1.781.468.009a.849.849 0 0 1 .876.903zm-.244 0a.615.615 0 0 0-.634-.661h-.229l-.025 1.307h.229a.627.627 0 0 0 .658-.65z" transform="translate(-246.894 -303.319)" style="fill:#fdec9d"/>
                            <path data-name="Path 9114" d="m263.464 308.029.236.053-.388 1.74-.236-.053z" transform="translate(-251.076 -303.724)" style="fill:#fdec9d"/>
                            <path data-name="Path 9115" d="m265.641 311.01-.7-.3-.3.285-.245-.106 1.44-1.344.033.014v1.971l-.243-.106zm0-.253.012-.743-.535.517z" transform="translate(-252.029 -304.812)" style="fill:#fdec9d"/>
                        </g>
                    </g>
                    <g data-name="Group 5410" style="opacity:.2">
                        <path data-name="Path 9116" d="m244.72 305.942-10.068 11.026a7.914 7.914 0 0 0 1.566 2l10.632-11.648a7.9 7.9 0 0 0-2.13-1.378z" transform="translate(-230.615 -302.221)" style="fill:#fff"/>
                        <path data-name="Path 9117" d="m253.92 313.77-10.53 11.53q.325.223.671.414l10.332-11.314q-.22-.326-.473-.63z" transform="translate(-236.905 -307.856)" style="fill:#fff"/>
                    </g>
                </g>
                <g data-name="Group 5412">
                    <path data-name="Path 9118" d="M239.886 367.044s2.291 4.686 5.346 3.013c-.151-3.48-5.346-3.013-5.346-3.013z" transform="translate(-134.237 -316.251)" style="fill:#4b4d82"/>
                    <path data-name="Path 9119" d="M247.127 371.179a33.767 33.767 0 0 1-4.509-2.541" transform="translate(-136.204 -317.414)" style="stroke:#272a4c;stroke-width:.567px;fill:none;stroke-linecap:round;stroke-linejoin:round"/>
                    <path data-name="Line 142" transform="translate(106.897 51.985)" style="stroke:#272a4c;stroke-width:.567px;fill:none;stroke-linecap:round;stroke-linejoin:round" d="M0 .238.666 0"/>
                    <path data-name="Line 143" transform="translate(108.035 51.232)" style="stroke:#272a4c;stroke-width:.567px;fill:none;stroke-linecap:round;stroke-linejoin:round" d="M.006 1.034 0 0"/>
                    <path data-name="Line 144" transform="translate(108.607 52.069)" style="stroke:#272a4c;stroke-width:.567px;fill:none;stroke-linecap:round;stroke-linejoin:round" d="M.01.519 0 0"/>
                    <path data-name="Line 145" transform="translate(107.978 52.771)" style="stroke:#272a4c;stroke-width:.567px;fill:none;stroke-linecap:round;stroke-linejoin:round" d="M.963 0 0 .413"/>
                    <path data-name="Line 146" transform="translate(109.169 53.066)" style="stroke:#272a4c;stroke-width:.567px;fill:none;stroke-linecap:round;stroke-linejoin:round" d="M.347 0 0 .229"/>
                    <path data-name="Line 147" transform="translate(109.802 52.171)" style="stroke:#272a4c;stroke-width:.567px;fill:none;stroke-linecap:round;stroke-linejoin:round" d="M.104 1.095 0 0"/>
                    <path data-name="Line 148" transform="translate(110.363 52.767)" style="stroke:#272a4c;stroke-width:.567px;fill:none;stroke-linecap:round;stroke-linejoin:round" d="M0 .683.024 0"/>
                    <path data-name="Line 149" transform="translate(109.691 53.414)" style="stroke:#272a4c;stroke-width:.567px;fill:none;stroke-linecap:round;stroke-linejoin:round" d="M.511 0 0 .317"/>
                </g>
            </g>
            <g data-name="Group 5426">
                <path data-name="Line 150" transform="translate(127.278 24.56)" style="stroke:#4b4d82;stroke-width:.5px;fill:none;stroke-linecap:round;stroke-linejoin:round" d="M0 0v39.215"/>
                <g data-name="Group 5422" transform="translate(115.947 6.31)">
                    <circle data-name="Ellipse 464" cx="9.439" cy="9.439" r="9.439" transform="rotate(-76.94 11.57 9.195)" style="fill:#fdec9d"/>
                    <circle data-name="Ellipse 465" cx="8.844" cy="8.844" r="8.844" transform="translate(2.487 2.487)" style="fill:#f7be35"/>
                    <g data-name="Group 5414">
                        <path data-name="Path 9120" d="M294.361 217.483a8.843 8.843 0 0 1 8.841 8.7v-.144a8.844 8.844 0 1 0-17.689 0v.144a8.843 8.843 0 0 1 8.848-8.7z" transform="translate(-283.03 -214.709)" style="fill:#b58a2c"/>
                    </g>
                    <g data-name="Group 5415">
                        <path data-name="Path 9121" d="M311.637 240.875h.858c.417-.07.649-.812.649-.812h-4.314l-.71.819h1.949a1.6 1.6 0 0 1 .524.445h-1.943l-.529.782h2.58a1.118 1.118 0 0 1-.068.144c-.393.694-2.173.517-2.173.517v.91l2.528 2.528h1.275l-2.435-2.783c1.316-.124 1.78-.728 1.91-1.317h.762c.385-.132.577-.782.577-.782h-1.326a2.355 2.355 0 0 0-.114-.451z" transform="translate(-299.301 -231.169)" style="fill:#b58a2c"/>
                        <path data-name="Path 9122" d="M311.637 240.3h.858c.417-.069.649-.812.649-.812h-4.314l-.71.819h1.949a1.606 1.606 0 0 1 .524.445h-1.943l-.529.782h2.58a1.122 1.122 0 0 1-.068.144c-.393.694-2.173.517-2.173.517v.91l2.528 2.528h1.275l-2.435-2.783c1.316-.124 1.78-.728 1.91-1.316h.762c.385-.133.577-.782.577-.782h-1.326a2.354 2.354 0 0 0-.114-.452z" transform="translate(-299.301 -230.754)" style="fill:#fdec9d"/>
                    </g>
                    <g data-name="Group 5416">
                        <path data-name="Path 9123" d="M312.389 276.45a.074.074 0 0 1-.054.071 5.934 5.934 0 0 1-3.011.1 3.946 3.946 0 0 1-1.137-.439.074.074 0 0 1 .08-.124 5.229 5.229 0 0 0 4.027.319.074.074 0 0 1 .092.051.082.082 0 0 1 .003.022z" transform="translate(-299.325 -257.074)" style="fill:#b58a2c"/>
                        <path data-name="Path 9124" d="M309.861 272.255a.074.074 0 0 1-.006.031l-.556 1.23a.074.074 0 0 1-.135-.061l.556-1.23a.074.074 0 0 1 .141.031z" transform="translate(-300.047 -254.29)" style="fill:#b58a2c"/>
                        <path data-name="Path 9125" d="M311.288 272.979a.881.881 0 0 1-.006.108.145.145 0 0 1-.035.131c-.062.066-.181.069-.374.011a3.562 3.562 0 0 1-.688-.3.074.074 0 0 1 .075-.128 3.427 3.427 0 0 0 .656.281c.184.056.224.029.224.028a.063.063 0 0 1-.007-.033 1.011 1.011 0 0 0-.29-.774.074.074 0 0 1 .1-.107 1.18 1.18 0 0 1 .345.783z" transform="translate(-300.761 -254.29)" style="fill:#b58a2c"/>
                        <path data-name="Path 9126" d="M315.9 275.919a.074.074 0 0 1-.074.074h-.4l.045.542a.073.073 0 0 1-.068.08.074.074 0 0 1-.08-.068l-.051-.622a.078.078 0 0 1 .019-.056.075.075 0 0 1 .054-.024h.483a.074.074 0 0 1 .072.074z" transform="translate(-304.445 -256.927)" style="fill:#b58a2c"/>
                        <path data-name="Path 9127" d="M316.018 274.189a.074.074 0 0 1-.145.022 2.937 2.937 0 0 0-.587-.926.074.074 0 1 1 .107-.1 3.032 3.032 0 0 1 .621.984.075.075 0 0 1 .004.02z" transform="translate(-304.445 -254.995)" style="fill:#b58a2c"/>
                        <path data-name="Path 9128" d="M319.076 274.567a.074.074 0 0 1-.147.01l-.185-1.332a.074.074 0 0 1 .147-.02l.185 1.332a.056.056 0 0 1 0 .01z" transform="translate(-306.947 -254.995)" style="fill:#b58a2c"/>
                        <path data-name="Path 9129" d="M321 274.445a.074.074 0 0 1-.054.071.073.073 0 0 1-.092-.051l-.349-1.21a.074.074 0 0 1 .142-.041l.349 1.21a.075.075 0 0 1 .004.021z" transform="translate(-308.215 -254.995)" style="fill:#b58a2c"/>
                        <path data-name="Path 9130" d="M322.148 274.2a.075.075 0 0 1-.048.069l-.874.334a.074.074 0 0 1-.053-.138l.874-.334a.074.074 0 0 1 .1.043.073.073 0 0 1 .001.026z" transform="translate(-308.663 -255.692)" style="fill:#b58a2c"/>
                        <path data-name="Path 9131" d="M324.147 274.415a.24.24 0 0 1-.015.088.165.165 0 0 1-.1.1c-.233.088-.323-.122-.4-.309-.1-.231-.247-.6-.247-.6l.137-.055s.148.369.246.6c.109.255.145.254.214.228a.019.019 0 0 0 .013-.013.413.413 0 0 0-.053-.235.074.074 0 1 1 .132-.066.676.676 0 0 1 .073.262z" transform="translate(-310.288 -255.337)" style="fill:#b58a2c"/>
                    </g>
                    <g data-name="Group 5417">
                        <path data-name="Path 9132" d="M312.344 275.9a.074.074 0 0 1-.054.071 5.933 5.933 0 0 1-3.01.1 3.961 3.961 0 0 1-1.137-.439.074.074 0 0 1 .08-.124 5.229 5.229 0 0 0 4.027.319.074.074 0 0 1 .092.051.073.073 0 0 1 .002.022z" transform="translate(-299.293 -256.681)" style="fill:#fdec9d"/>
                        <path data-name="Path 9133" d="M309.816 271.709a.075.075 0 0 1-.006.031l-.556 1.23a.074.074 0 1 1-.135-.061l.556-1.23a.074.074 0 0 1 .141.031z" transform="translate(-300.015 -253.897)" style="fill:#fdec9d"/>
                        <path data-name="Path 9134" d="M311.244 272.433a.892.892 0 0 1-.006.108.143.143 0 0 1-.035.13c-.062.066-.181.07-.374.011a3.538 3.538 0 0 1-.688-.295.074.074 0 0 1 .075-.128 3.448 3.448 0 0 0 .656.281c.184.056.224.029.224.028a.063.063 0 0 1-.007-.033 1.012 1.012 0 0 0-.29-.774.074.074 0 0 1 .1-.107 1.18 1.18 0 0 1 .345.779z" transform="translate(-300.729 -253.897)" style="fill:#fdec9d"/>
                        <path data-name="Path 9135" d="M315.852 275.373a.074.074 0 0 1-.074.074h-.4l.044.542a.074.074 0 0 1-.068.08.075.075 0 0 1-.08-.068l-.051-.622a.076.076 0 0 1 .02-.056.074.074 0 0 1 .054-.024h.482a.074.074 0 0 1 .073.074z" transform="translate(-304.413 -256.534)" style="fill:#fdec9d"/>
                        <path data-name="Path 9136" d="M315.974 273.643a.074.074 0 0 1-.145.022 2.933 2.933 0 0 0-.587-.926.074.074 0 0 1 .107-.1 3.037 3.037 0 0 1 .621.984.073.073 0 0 1 .004.02z" transform="translate(-304.413 -254.602)" style="fill:#fdec9d"/>
                        <path data-name="Path 9137" d="M319.031 274.021a.074.074 0 0 1-.147.01l-.184-1.331a.074.074 0 1 1 .147-.02l.185 1.332a.062.062 0 0 1-.001.009z" transform="translate(-306.915 -254.602)" style="fill:#fdec9d"/>
                        <path data-name="Path 9138" d="M320.956 273.9a.074.074 0 0 1-.145.02l-.349-1.21a.074.074 0 1 1 .142-.041l.349 1.21a.081.081 0 0 1 .003.021z" transform="translate(-308.184 -254.601)" style="fill:#fdec9d"/>
                        <path data-name="Path 9139" d="M322.1 273.657a.074.074 0 0 1-.048.069l-.874.334a.074.074 0 0 1-.053-.138l.874-.334a.074.074 0 0 1 .1.043.072.072 0 0 1 .001.026z" transform="translate(-308.631 -255.299)" style="fill:#fdec9d"/>
                        <path data-name="Path 9140" d="M324.1 273.868a.24.24 0 0 1-.015.088.166.166 0 0 1-.1.1c-.233.088-.323-.122-.4-.308-.1-.231-.247-.6-.247-.6l.137-.055s.148.369.246.6c.109.255.144.254.214.228a.02.02 0 0 0 .013-.013.411.411 0 0 0-.053-.235.074.074 0 1 1 .132-.066.676.676 0 0 1 .073.261z" transform="translate(-310.256 -254.943)" style="fill:#fdec9d"/>
                    </g>
                    <g data-name="Group 5420">
                        <g data-name="Group 5418">
                            <path data-name="Path 9141" d="m302.624 225.535.238-.129.953 1.756-.238.129z" transform="translate(-295.344 -220.619)" style="fill:#b58a2c"/>
                            <path data-name="Path 9142" d="m307.575 222.456.566 1.952-.036.01-1.661-.983.382 1.318-.258.075-.568-1.949.036-.01 1.668 1.008-.39-1.346z" transform="translate(-297.777 -218.495)" style="fill:#b58a2c"/>
                            <path data-name="Path 9143" d="M316.343 223.093a.959.959 0 0 1-1.021.985l-.525-.01.038-2 .525.01a.952.952 0 0 1 .983 1.015zm-.274-.005a.689.689 0 0 0-.711-.741h-.257l-.028 1.466.257.005a.7.7 0 0 0 .739-.73z" transform="translate(-304.107 -218.218)" style="fill:#b58a2c"/>
                            <path data-name="Path 9144" d="m321.749 222.7.265.059-.435 1.952-.265-.059z" transform="translate(-308.798 -218.672)" style="fill:#b58a2c"/>
                            <path data-name="Path 9145" d="m324.19 226.044-.785-.341-.331.319-.275-.119 1.615-1.507.037.016v2.211l-.272-.118zm.005-.284.014-.834-.6.579z" transform="translate(-309.867 -219.892)" style="fill:#b58a2c"/>
                        </g>
                        <g data-name="Group 5419">
                            <path data-name="Path 9146" d="m302.624 225.017.238-.129.953 1.756-.238.129z" transform="translate(-295.344 -220.246)" style="fill:#fdec9d"/>
                            <path data-name="Path 9147" d="m307.575 221.938.566 1.952-.036.01-1.661-.983.382 1.318-.258.075-.568-1.949.036-.01 1.668 1.007-.39-1.346z" transform="translate(-297.777 -218.122)" style="fill:#fdec9d"/>
                            <path data-name="Path 9148" d="M316.343 222.575a.959.959 0 0 1-1.021.985l-.525-.01.038-2 .525.01a.952.952 0 0 1 .983 1.015zm-.274-.005a.689.689 0 0 0-.711-.741h-.257l-.028 1.466.257.005a.7.7 0 0 0 .739-.73z" transform="translate(-304.107 -217.845)" style="fill:#fdec9d"/>
                            <path data-name="Path 9149" d="m321.749 222.183.265.059-.435 1.952-.265-.059z" transform="translate(-308.798 -218.299)" style="fill:#fdec9d"/>
                            <path data-name="Path 9150" d="m324.19 225.526-.785-.341-.331.32-.275-.119 1.615-1.507.037.016v2.211l-.272-.118zm.005-.284.014-.834-.6.579z" transform="translate(-309.867 -219.519)" style="fill:#fdec9d"/>
                        </g>
                    </g>
                    <g data-name="Group 5421" style="opacity:.2">
                        <path data-name="Path 9151" d="m300.722 219.842-11.293 12.368a8.875 8.875 0 0 0 1.757 2.238l11.926-13.061a8.86 8.86 0 0 0-2.39-1.545z" transform="translate(-285.846 -216.614)" style="fill:#fff"/>
                        <path data-name="Path 9152" d="m311.044 228.623-11.812 12.936a8.761 8.761 0 0 0 .753.464l11.589-12.692a8.846 8.846 0 0 0-.53-.708z" transform="translate(-292.903 -222.935)" style="fill:#fff"/>
                    </g>
                </g>
                <g data-name="Group 5423">
                    <path data-name="Path 9153" d="M326.3 367.834s-8.366-.554-8.477 5.044c4.977 2.574 8.477-5.044 8.477-5.044z" transform="translate(-190.338 -316.824)" style="fill:#4b4d82"/>
                    <path data-name="Path 9154" d="M318.228 374.7a54.3 54.3 0 0 1 7.15-4.255" transform="translate(-190.63 -318.718)" style="stroke:#272a4c;stroke-width:.567px;fill:none;stroke-linecap:round;stroke-linejoin:round"/>
                    <path data-name="Line 151" transform="translate(132.769 51.606)" style="stroke:#272a4c;stroke-width:.567px;fill:none;stroke-linecap:round;stroke-linejoin:round" d="M.201 0 0 1.119"/>
                    <path data-name="Line 152" transform="translate(131.996 53.167)" style="stroke:#272a4c;stroke-width:.567px;fill:none;stroke-linecap:round;stroke-linejoin:round" d="m0 0 1.446.819"/>
                    <path data-name="Line 153" transform="translate(131.086 53.712)" style="stroke:#272a4c;stroke-width:.567px;fill:none;stroke-linecap:round;stroke-linejoin:round" d="m0 0 .731.401"/>
                    <path data-name="Line 154" transform="translate(130.57 52.346)" style="stroke:#272a4c;stroke-width:.567px;fill:none;stroke-linecap:round;stroke-linejoin:round" d="M0 1.673.195 0"/>
                    <path data-name="Line 155" transform="translate(129.659 53.917)" style="stroke:#272a4c;stroke-width:.567px;fill:none;stroke-linecap:round;stroke-linejoin:round" d="M.041.667 0 0"/>
                    <path data-name="Line 156" transform="translate(129.109 54.969)" style="stroke:#272a4c;stroke-width:.567px;fill:none;stroke-linecap:round;stroke-linejoin:round" d="m0 0 1.61.73"/>
                    <path data-name="Line 157" transform="translate(128.488 55.458)" style="stroke:#272a4c;stroke-width:.567px;fill:none;stroke-linecap:round;stroke-linejoin:round" d="m0 0 .933.58"/>
                    <path data-name="Line 158" transform="translate(128.631 54.296)" style="stroke:#272a4c;stroke-width:.567px;fill:none;stroke-linecap:round;stroke-linejoin:round" d="M.034.966 0 0"/>
                </g>
                <g data-name="Group 5424">
                    <path data-name="Path 9155" d="M286.469 355.823s8.365-.573 8.488 5.026c-4.968 2.583-8.488-5.026-8.488-5.026z" transform="translate(-167.768 -308.176)" style="fill:#4b4d82"/>
                    <path data-name="Path 9156" d="M297.966 362.672a54.252 54.252 0 0 0-7.16-4.239" transform="translate(-170.89 -310.067)" style="stroke:#272a4c;stroke-width:.567px;fill:none;stroke-linecap:round;stroke-linejoin:round"/>
                    <path data-name="Line 159" transform="translate(121.695 48.236)" style="stroke:#272a4c;stroke-width:.567px;fill:none;stroke-linecap:round;stroke-linejoin:round" d="m0 0 .203 1.118"/>
                    <path data-name="Line 160" transform="translate(121.228 49.794)" style="stroke:#272a4c;stroke-width:.567px;fill:none;stroke-linecap:round;stroke-linejoin:round" d="M1.444 0 0 .822"/>
                    <path data-name="Line 161" transform="translate(122.853 50.338)" style="stroke:#272a4c;stroke-width:.567px;fill:none;stroke-linecap:round;stroke-linejoin:round" d="M.73 0 0 .402"/>
                    <path data-name="Line 162" transform="translate(123.901 48.971)" style="stroke:#272a4c;stroke-width:.567px;fill:none;stroke-linecap:round;stroke-linejoin:round" d="M.199 1.673 0 0"/>
                    <path data-name="Line 163" transform="translate(124.971 50.539)" style="stroke:#272a4c;stroke-width:.567px;fill:none;stroke-linecap:round;stroke-linejoin:round" d="M0 .667.04 0"/>
                    <path data-name="Line 164" transform="translate(123.955 51.59)" style="stroke:#272a4c;stroke-width:.567px;fill:none;stroke-linecap:round;stroke-linejoin:round" d="M1.608 0 0 .733"/>
                    <path data-name="Line 165" transform="translate(125.254 52.078)" style="stroke:#272a4c;stroke-width:.567px;fill:none;stroke-linecap:round;stroke-linejoin:round" d="M.932 0 0 .582"/>
                    <path data-name="Line 166" transform="translate(126.007 50.916)" style="stroke:#272a4c;stroke-width:.567px;fill:none;stroke-linecap:round;stroke-linejoin:round" d="M0 .967.032 0"/>
                </g>
                <g data-name="Group 5425">
                    <path data-name="Path 9157" d="M323.306 290.857s-2.29 4.686-5.346 3.013c.151-3.48 5.346-3.013 5.346-3.013z" transform="translate(-190.437 -261.408)" style="fill:#4b4d82"/>
                    <path data-name="Path 9158" d="M318.215 294.992a33.725 33.725 0 0 0 4.51-2.542" transform="translate(-190.621 -262.57)" style="stroke:#272a4c;stroke-width:.567px;fill:none;stroke-linecap:round;stroke-linejoin:round"/>
                    <path data-name="Line 167" transform="translate(130.955 30.641)" style="stroke:#272a4c;stroke-width:.567px;fill:none;stroke-linecap:round;stroke-linejoin:round" d="M.666.238 0 0"/>
                    <path data-name="Line 168" transform="translate(130.478 29.888)" style="stroke:#272a4c;stroke-width:.567px;fill:none;stroke-linecap:round;stroke-linejoin:round" d="M0 1.034.006 0"/>
                    <path data-name="Line 169" transform="translate(129.902 30.725)" style="stroke:#272a4c;stroke-width:.567px;fill:none;stroke-linecap:round;stroke-linejoin:round" d="M0 .519.01 0"/>
                    <path data-name="Line 170" transform="translate(129.576 31.427)" style="stroke:#272a4c;stroke-width:.567px;fill:none;stroke-linecap:round;stroke-linejoin:round" d="m0 0 .963.413"/>
                    <path data-name="Line 171" transform="translate(129.002 31.722)" style="stroke:#272a4c;stroke-width:.567px;fill:none;stroke-linecap:round;stroke-linejoin:round" d="m0 0 .347.229"/>
                    <path data-name="Line 172" transform="translate(128.612 30.827)" style="stroke:#272a4c;stroke-width:.567px;fill:none;stroke-linecap:round;stroke-linejoin:round" d="M0 1.095.104 0"/>
                    <path data-name="Line 173" transform="translate(128.131 31.423)" style="stroke:#272a4c;stroke-width:.567px;fill:none;stroke-linecap:round;stroke-linejoin:round" d="M.024.683 0 0"/>
                    <path data-name="Line 174" transform="translate(128.316 32.07)" style="stroke:#272a4c;stroke-width:.567px;fill:none;stroke-linecap:round;stroke-linejoin:round" d="m0 0 .511.317"/>
                </g>
            </g>
            <g data-name="Group 5438">
                <path data-name="Line 175" transform="translate(150.122 41.708)" style="stroke:#4b4d82;stroke-width:.5px;fill:none;stroke-linecap:round;stroke-linejoin:round" d="M0 0v22.067"/>
                <g data-name="Group 5435" transform="translate(138.586 20.609)">
                    <circle data-name="Ellipse 466" cx="11.536" cy="11.536" r="11.536" style="fill:#fdec9d"/>
                    <circle data-name="Ellipse 467" cx="10.809" cy="10.809" r="10.809" transform="translate(.727 .727)" style="fill:#f7be35"/>
                    <g data-name="Group 5427">
                        <path data-name="Path 9159" d="M370.854 262.3a10.808 10.808 0 0 1 10.805 10.634v-.176a10.809 10.809 0 1 0-21.618 0v.176a10.807 10.807 0 0 1 10.813-10.634z" transform="translate(-359.318 -261.226)" style="fill:#b58a2c"/>
                    </g>
                    <g data-name="Group 5428">
                        <path data-name="Path 9160" d="M391.968 290.893h1.049c.51-.085.794-.992.794-.992h-5.272l-.867 1h2.382a1.96 1.96 0 0 1 .64.544h-2.376l-.647.956h3.153a1.318 1.318 0 0 1-.083.176c-.481.848-2.656.632-2.656.632v1.112l3.09 3.09h1.559l-2.976-3.4c1.608-.151 2.175-.889 2.334-1.609h.932c.471-.162.706-.956.706-.956h-1.621a2.9 2.9 0 0 0-.141-.553z" transform="translate(-379.205 -281.344)" style="fill:#b58a2c"/>
                        <path data-name="Path 9161" d="M391.968 290.188h1.049c.51-.085.794-.992.794-.992h-5.272l-.867 1h2.382a1.96 1.96 0 0 1 .64.544h-2.376l-.647.956h3.153a1.308 1.308 0 0 1-.083.176c-.481.848-2.656.632-2.656.632v1.112l3.09 3.09h1.559l-2.976-3.4c1.608-.151 2.175-.889 2.334-1.609h.932c.471-.162.706-.956.706-.956h-1.621a2.9 2.9 0 0 0-.141-.553z" transform="translate(-379.205 -280.837)" style="fill:#fdec9d"/>
                    </g>
                    <g data-name="Group 5429">
                        <path data-name="Path 9162" d="M392.887 334.373a.091.091 0 0 1-.066.087 7.253 7.253 0 0 1-3.679.124 4.845 4.845 0 0 1-1.39-.536.09.09 0 1 1 .1-.152 6.392 6.392 0 0 0 4.922.39.09.09 0 0 1 .111.062.082.082 0 0 1 .002.025z" transform="translate(-379.233 -313.003)" style="fill:#b58a2c"/>
                        <path data-name="Path 9163" d="M389.8 329.245a.089.089 0 0 1-.008.037l-.68 1.5a.09.09 0 0 1-.165-.074l.68-1.5a.09.09 0 0 1 .173.037z" transform="translate(-380.115 -309.601)" style="fill:#b58a2c"/>
                        <path data-name="Path 9164" d="M391.543 330.131a1.055 1.055 0 0 1-.008.132.176.176 0 0 1-.042.16c-.077.081-.222.085-.457.013a4.316 4.316 0 0 1-.841-.36.09.09 0 1 1 .092-.156 4.208 4.208 0 0 0 .8.343c.224.068.274.035.274.034a.075.075 0 0 1-.009-.041 1.237 1.237 0 0 0-.354-.946.09.09 0 0 1 .125-.131 1.442 1.442 0 0 1 .42.952z" transform="translate(-380.988 -309.601)" style="fill:#b58a2c"/>
                        <path data-name="Path 9165" d="M397.175 333.723a.09.09 0 0 1-.09.091h-.492l.054.662a.09.09 0 0 1-.083.1.091.091 0 0 1-.1-.083l-.062-.76a.094.094 0 0 1 .023-.069.092.092 0 0 1 .067-.029h.59a.09.09 0 0 1 .093.088z" transform="translate(-385.491 -312.824)" style="fill:#b58a2c"/>
                        <path data-name="Path 9166" d="M397.324 331.61a.09.09 0 0 1-.177.027 3.589 3.589 0 0 0-.717-1.132.09.09 0 0 1 .131-.125 3.715 3.715 0 0 1 .759 1.2.1.1 0 0 1 .004.03z" transform="translate(-385.491 -310.463)" style="fill:#b58a2c"/>
                        <path data-name="Path 9167" d="M401.06 332.071a.09.09 0 0 1-.18.012l-.226-1.629a.09.09 0 0 1 .179-.025l.226 1.629a.1.1 0 0 1 .001.013z" transform="translate(-388.549 -310.463)" style="fill:#b58a2c"/>
                        <path data-name="Path 9168" d="M403.412 331.921a.09.09 0 0 1-.177.025l-.426-1.479a.09.09 0 1 1 .174-.05l.426 1.479a.087.087 0 0 1 .003.025z" transform="translate(-390.099 -310.462)" style="fill:#b58a2c"/>
                        <path data-name="Path 9169" d="M404.815 331.626a.09.09 0 0 1-.058.085l-1.068.408a.09.09 0 0 1-.064-.169l1.068-.408a.09.09 0 0 1 .117.052.085.085 0 0 1 .005.032z" transform="translate(-390.646 -311.314)" style="fill:#b58a2c"/>
                        <path data-name="Path 9170" d="M407.258 331.886a.3.3 0 0 1-.018.107.2.2 0 0 1-.121.119c-.285.108-.395-.15-.492-.377-.121-.283-.3-.736-.3-.736l.168-.067s.18.451.3.732c.133.312.176.311.262.279a.023.023 0 0 0 .016-.016.5.5 0 0 0-.065-.287.09.09 0 0 1 .162-.081.831.831 0 0 1 .088.327z" transform="translate(-392.632 -310.88)" style="fill:#b58a2c"/>
                    </g>
                    <g data-name="Group 5430">
                        <path data-name="Path 9171" d="M392.833 333.706a.09.09 0 0 1-.066.087 7.25 7.25 0 0 1-3.68.124 4.839 4.839 0 0 1-1.39-.536.09.09 0 0 1 .1-.152 6.392 6.392 0 0 0 4.922.39.091.091 0 0 1 .112.062.1.1 0 0 1 .002.025z" transform="translate(-379.195 -312.523)" style="fill:#fdec9d"/>
                        <path data-name="Path 9172" d="M389.742 328.578a.088.088 0 0 1-.008.037l-.68 1.5a.09.09 0 0 1-.165-.075l.68-1.5a.09.09 0 0 1 .173.038z" transform="translate(-380.076 -309.12)" style="fill:#fdec9d"/>
                        <path data-name="Path 9173" d="M391.488 329.463a1.122 1.122 0 0 1-.008.132.177.177 0 0 1-.043.159c-.077.081-.222.085-.457.014a4.339 4.339 0 0 1-.841-.361.09.09 0 0 1 .092-.156 4.2 4.2 0 0 0 .8.343c.224.068.273.035.274.034a.077.077 0 0 1-.009-.041 1.237 1.237 0 0 0-.354-.946.09.09 0 0 1 .125-.131 1.441 1.441 0 0 1 .421.953z" transform="translate(-380.95 -309.121)" style="fill:#fdec9d"/>
                        <path data-name="Path 9174" d="M397.12 333.057a.09.09 0 0 1-.09.09h-.492l.054.662a.09.09 0 1 1-.18.015l-.062-.76a.093.093 0 0 1 .024-.069.091.091 0 0 1 .066-.029h.59a.09.09 0 0 1 .09.091z" transform="translate(-385.452 -312.344)" style="fill:#fdec9d"/>
                        <path data-name="Path 9175" d="M397.268 330.943a.09.09 0 0 1-.177.027 3.587 3.587 0 0 0-.717-1.132.09.09 0 1 1 .131-.124 3.71 3.71 0 0 1 .759 1.2.093.093 0 0 1 .004.029z" transform="translate(-385.452 -309.982)" style="fill:#fdec9d"/>
                        <path data-name="Path 9176" d="M401.005 331.4a.09.09 0 0 1-.18.012l-.226-1.629a.09.09 0 0 1 .179-.025l.226 1.628a.109.109 0 0 1 .001.014z" transform="translate(-388.511 -309.982)" style="fill:#fdec9d"/>
                        <path data-name="Path 9177" d="M403.357 331.254a.09.09 0 0 1-.177.025l-.426-1.479a.09.09 0 0 1 .174-.05l.426 1.479a.084.084 0 0 1 .003.025z" transform="translate(-390.06 -309.982)" style="fill:#fdec9d"/>
                        <path data-name="Path 9178" d="M404.76 330.958a.09.09 0 0 1-.058.084l-1.068.408a.091.091 0 0 1-.064-.169l1.068-.408a.091.091 0 0 1 .117.052.092.092 0 0 1 .005.033z" transform="translate(-390.607 -310.834)" style="fill:#fdec9d"/>
                        <path data-name="Path 9179" d="M407.2 331.218a.3.3 0 0 1-.018.107.2.2 0 0 1-.121.119c-.285.107-.395-.15-.492-.377-.121-.283-.3-.736-.3-.736l.168-.067s.18.451.3.732c.133.312.177.311.262.279a.024.024 0 0 0 .016-.016.5.5 0 0 0-.065-.287.09.09 0 0 1 .162-.081.825.825 0 0 1 .088.327z" transform="translate(-392.593 -310.399)" style="fill:#fdec9d"/>
                    </g>
                    <g data-name="Group 5433">
                        <g data-name="Group 5431">
                            <path data-name="Path 9180" d="m380.952 272.145.291-.158 1.165 2.146-.291.158z" transform="translate(-374.368 -268.449)" style="fill:#b58a2c"/>
                            <path data-name="Path 9181" d="m387 268.382.692 2.385-.043.013-2.03-1.2.467 1.611-.315.091-.691-2.382.044-.013 2.039 1.232-.477-1.645z" transform="translate(-377.342 -265.854)" style="fill:#b58a2c"/>
                            <path data-name="Path 9182" d="M397.719 269.16a1.172 1.172 0 0 1-1.247 1.2l-.642-.012.046-2.441.642.012a1.163 1.163 0 0 1 1.201 1.241zm-.335-.007a.843.843 0 0 0-.869-.906l-.314-.006-.034 1.792.314.006a.859.859 0 0 0 .903-.885z" transform="translate(-385.078 -265.515)" style="fill:#b58a2c"/>
                            <path data-name="Path 9183" d="m404.326 268.681.324.072-.531 2.385-.324-.072z" transform="translate(-390.811 -266.069)" style="fill:#b58a2c"/>
                            <path data-name="Path 9184" d="m407.311 272.767-.96-.417-.405.391-.336-.146 1.974-1.842.045.02.006 2.7-.333-.145zm.006-.347.016-1.019-.733.708z" transform="translate(-392.118 -267.561)" style="fill:#b58a2c"/>
                        </g>
                        <g data-name="Group 5432">
                            <path data-name="Path 9185" d="m380.952 271.512.291-.158 1.165 2.146-.291.158z" transform="translate(-374.368 -267.993)" style="fill:#fdec9d"/>
                            <path data-name="Path 9186" d="m387 267.749.692 2.385-.043.013-2.03-1.2.467 1.611-.315.091-.691-2.382.044-.013 2.039 1.232-.477-1.645z" transform="translate(-377.342 -265.398)" style="fill:#fdec9d"/>
                            <path data-name="Path 9187" d="M397.719 268.527a1.172 1.172 0 0 1-1.247 1.2l-.642-.012.046-2.441.642.012a1.163 1.163 0 0 1 1.201 1.241zm-.335-.006a.843.843 0 0 0-.869-.906l-.314-.006-.034 1.792.314.006a.859.859 0 0 0 .903-.886z" transform="translate(-385.078 -265.059)" style="fill:#fdec9d"/>
                            <path data-name="Path 9188" d="m404.326 268.048.324.072-.531 2.385-.324-.072z" transform="translate(-390.811 -265.613)" style="fill:#fdec9d"/>
                            <path data-name="Path 9189" d="m407.311 272.134-.96-.417-.405.391-.336-.146 1.974-1.842.045.02.006 2.7-.333-.145zm.006-.347.016-1.019-.733.708z" transform="translate(-392.118 -267.105)" style="fill:#fdec9d"/>
                        </g>
                    </g>
                    <g data-name="Group 5434" style="opacity:.2">
                        <path data-name="Path 9190" d="m378.629 265.187-13.8 15.116a10.847 10.847 0 0 0 2.147 2.736l14.576-15.963a10.826 10.826 0 0 0-2.923-1.889z" transform="translate(-362.76 -263.554)" style="fill:#fff"/>
                        <path data-name="Path 9191" d="m391.242 275.919-14.436 15.81q.445.306.92.568l14.164-15.513q-.302-.449-.648-.865z" transform="translate(-371.384 -271.279)" style="fill:#fff"/>
                    </g>
                </g>
                <g data-name="Group 5436">
                    <path data-name="Path 9192" d="M367.768 346.474s8.365-.573 8.488 5.026c-4.967 2.583-8.488-5.026-8.488-5.026z" transform="translate(-226.292 -301.447)" style="fill:#4b4d82"/>
                    <path data-name="Path 9193" d="M379.265 353.323a54.255 54.255 0 0 0-7.16-4.239" transform="translate(-229.414 -303.338)" style="stroke:#272a4c;stroke-width:.567px;fill:none;stroke-linecap:round;stroke-linejoin:round"/>
                    <path data-name="Line 176" transform="translate(144.47 45.616)" style="stroke:#272a4c;stroke-width:.567px;fill:none;stroke-linecap:round;stroke-linejoin:round" d="m0 0 .203 1.118"/>
                    <path data-name="Line 177" transform="translate(144.003 47.175)" style="stroke:#272a4c;stroke-width:.567px;fill:none;stroke-linecap:round;stroke-linejoin:round" d="M1.444 0 0 .822"/>
                    <path data-name="Line 178" transform="translate(145.628 47.718)" style="stroke:#272a4c;stroke-width:.567px;fill:none;stroke-linecap:round;stroke-linejoin:round" d="M.73 0 0 .402"/>
                    <path data-name="Line 179" transform="translate(146.676 46.351)" style="stroke:#272a4c;stroke-width:.567px;fill:none;stroke-linecap:round;stroke-linejoin:round" d="M.199 1.673 0 0"/>
                    <path data-name="Line 180" transform="translate(147.746 47.919)" style="stroke:#272a4c;stroke-width:.567px;fill:none;stroke-linecap:round;stroke-linejoin:round" d="M0 .667.04 0"/>
                    <path data-name="Line 181" transform="translate(146.73 48.97)" style="stroke:#272a4c;stroke-width:.567px;fill:none;stroke-linecap:round;stroke-linejoin:round" d="M1.608 0 0 .733"/>
                    <path data-name="Line 182" transform="translate(148.029 49.458)" style="stroke:#272a4c;stroke-width:.567px;fill:none;stroke-linecap:round;stroke-linejoin:round" d="M.932 0 0 .582"/>
                    <path data-name="Line 183" transform="translate(148.782 48.296)" style="stroke:#272a4c;stroke-width:.567px;fill:none;stroke-linecap:round;stroke-linejoin:round" d="M0 .967.032 0"/>
                </g>
                <g data-name="Group 5437">
                    <path data-name="Path 9194" d="M403.828 368.858s-2.291 4.686-5.346 3.013c.151-3.48 5.346-3.013 5.346-3.013z" transform="translate(-248.401 -317.557)" style="fill:#4b4d82"/>
                    <path data-name="Path 9195" d="M398.737 372.992a33.735 33.735 0 0 0 4.51-2.541" transform="translate(-248.585 -318.719)" style="stroke:#272a4c;stroke-width:.567px;fill:none;stroke-linecap:round;stroke-linejoin:round"/>
                    <path data-name="Line 184" transform="translate(153.514 52.493)" style="stroke:#272a4c;stroke-width:.567px;fill:none;stroke-linecap:round;stroke-linejoin:round" d="M.666.238 0 0"/>
                    <path data-name="Line 185" transform="translate(153.036 51.74)" style="stroke:#272a4c;stroke-width:.567px;fill:none;stroke-linecap:round;stroke-linejoin:round" d="M0 1.034.006 0"/>
                    <path data-name="Line 186" transform="translate(152.46 52.577)" style="stroke:#272a4c;stroke-width:.567px;fill:none;stroke-linecap:round;stroke-linejoin:round" d="M0 .519.01 0"/>
                    <path data-name="Line 187" transform="translate(152.134 53.279)" style="stroke:#272a4c;stroke-width:.567px;fill:none;stroke-linecap:round;stroke-linejoin:round" d="m0 0 .963.413"/>
                    <path data-name="Line 188" transform="translate(151.56 53.574)" style="stroke:#272a4c;stroke-width:.567px;fill:none;stroke-linecap:round;stroke-linejoin:round" d="m0 0 .347.229"/>
                    <path data-name="Line 189" transform="translate(151.17 52.679)" style="stroke:#272a4c;stroke-width:.567px;fill:none;stroke-linecap:round;stroke-linejoin:round" d="M0 1.095.104 0"/>
                    <path data-name="Line 190" transform="translate(150.689 53.275)" style="stroke:#272a4c;stroke-width:.567px;fill:none;stroke-linecap:round;stroke-linejoin:round" d="M.024.683 0 0"/>
                    <path data-name="Line 191" transform="translate(150.874 53.922)" style="stroke:#272a4c;stroke-width:.567px;fill:none;stroke-linecap:round;stroke-linejoin:round" d="m0 0 .511.317"/>
                </g>
            </g>
            <g data-name="Group 5441">
                <g data-name="Group 5439">
                    <path data-name="Path 9196" d="M167.006 395.418s-.661 5.174-4.093 4.573c-.977-3.344 4.093-4.573 4.093-4.573z" transform="translate(-78.738 -336.691)" style="fill:#4b4d82"/>
                    <path data-name="Path 9197" d="M163.43 401.611a33.76 33.76 0 0 0 3.452-3.857" transform="translate(-79.2 -338.373)" style="stroke:#272a4c;stroke-width:.567px;fill:none;stroke-linecap:round;stroke-linejoin:round"/>
                    <path data-name="Line 192" transform="translate(86.839 60.471)" style="stroke:#272a4c;stroke-width:.567px;fill:none;stroke-linecap:round;stroke-linejoin:round" d="M.707.011 0 0"/>
                    <path data-name="Line 193" transform="translate(86.15 59.91)" style="stroke:#272a4c;stroke-width:.567px;fill:none;stroke-linecap:round;stroke-linejoin:round" d="M.327.981 0 0"/>
                    <path data-name="Line 194" transform="translate(85.878 60.887)" style="stroke:#272a4c;stroke-width:.567px;fill:none;stroke-linecap:round;stroke-linejoin:round" d="M.157.494 0 0"/>
                    <path data-name="Line 195" transform="translate(85.786 61.66)" style="stroke:#272a4c;stroke-width:.567px;fill:none;stroke-linecap:round;stroke-linejoin:round" d="m0 0 1.045.081"/>
                    <path data-name="Line 196" transform="translate(85.337 62.123)" style="stroke:#272a4c;stroke-width:.567px;fill:none;stroke-linecap:round;stroke-linejoin:round" d="m0 0 .402.105"/>
                    <path data-name="Line 197" transform="translate(84.779 61.368)" style="stroke:#272a4c;stroke-width:.567px;fill:none;stroke-linecap:round;stroke-linejoin:round" d="M.253 1.07 0 0"/>
                    <path data-name="Line 198" transform="translate(84.416 62.12)" style="stroke:#272a4c;stroke-width:.567px;fill:none;stroke-linecap:round;stroke-linejoin:round" d="M.243.639 0 0"/>
                    <path data-name="Line 199" transform="translate(84.8 62.674)" style="stroke:#272a4c;stroke-width:.567px;fill:none;stroke-linecap:round;stroke-linejoin:round" d="m0 0 .586.136"/>
                </g>
                <g data-name="Group 5440">
                    <path data-name="Path 9198" d="M142.98 389.046s.927 7.254 5.738 6.411c1.369-4.688-5.738-6.411-5.738-6.411z" transform="translate(-64.479 -332.104)" style="fill:#4b4d82"/>
                    <path data-name="Path 9199" d="M150.751 397.73a47.346 47.346 0 0 1-4.84-5.408" transform="translate(-66.589 -334.462)" style="stroke:#272a4c;stroke-width:.567px;fill:none;stroke-linecap:round;stroke-linejoin:round"/>
                    <path data-name="Line 200" transform="translate(79.512 59.388)" style="stroke:#272a4c;stroke-width:.567px;fill:none;stroke-linecap:round;stroke-linejoin:round" d="M0 .016.991 0"/>
                    <path data-name="Line 201" transform="translate(81.011 58.601)" style="stroke:#272a4c;stroke-width:.567px;fill:none;stroke-linecap:round;stroke-linejoin:round" d="M0 1.375.458 0"/>
                    <path data-name="Line 202" transform="translate(81.631 59.971)" style="stroke:#272a4c;stroke-width:.567px;fill:none;stroke-linecap:round;stroke-linejoin:round" d="M0 .693.221 0"/>
                    <path data-name="Line 203" transform="translate(80.515 61.053)" style="stroke:#272a4c;stroke-width:.567px;fill:none;stroke-linecap:round;stroke-linejoin:round" d="M1.465 0 0 .113"/>
                    <path data-name="Line 204" transform="translate(82.045 61.704)" style="stroke:#272a4c;stroke-width:.567px;fill:none;stroke-linecap:round;stroke-linejoin:round" d="M.564 0 0 .147"/>
                    <path data-name="Line 205" transform="translate(83.038 60.645)" style="stroke:#272a4c;stroke-width:.567px;fill:none;stroke-linecap:round;stroke-linejoin:round" d="M0 1.5.355 0"/>
                    <path data-name="Line 206" transform="translate(83.56 61.699)" style="stroke:#272a4c;stroke-width:.567px;fill:none;stroke-linecap:round;stroke-linejoin:round" d="M0 .896.34 0"/>
                    <path data-name="Line 207" transform="translate(82.542 62.476)" style="stroke:#272a4c;stroke-width:.567px;fill:none;stroke-linecap:round;stroke-linejoin:round" d="M.822 0 0 .191"/>
                </g>
            </g>
        </g>
    </g>
    <g data-name="Group 5750">
        <g data-name="Group 5749">
            <g data-name="Group 5511">
                <path data-name="Path 9374" d="m493.763 638.529.827-.78.014-1 .214-.1.14.258.25-.828.585-.388.873.332.5.825-.422.832-.93.606-1.086 1.116z" transform="translate(-469.911 -622.75)" style="fill:#eacdb0"/>
                <path data-name="Path 9375" d="m431.54 644.209-4.63 5.488-6.045-5.856-.94 7 7.359 3.649 5.792-8.682z" transform="translate(-407.426 -629.652)" style="fill:#aeccdc"/>
            </g>
            <g data-name="Group 5512">
                <path data-name="Path 9376" d="m363.812 979.919-.1.99 1.8 1.234 1.049-.868-.849-1.112-1.8-1.234z" transform="translate(-359.858 -913.213)" style="fill:#292949"/>
                <path data-name="Path 9377" d="m362.98 786.773-.3 3.006 2.7 10.327-2.5 16.595 1.843.635 4.86-16.2.771-4.714-.028-9.978z" transform="translate(-358.98 -750.326)" style="fill:#eacdb0"/>
            </g>
            <g data-name="Group 5513">
                <path data-name="Path 9378" d="m406.412 796.463-3.877 27.807h-1.762l-.317-17.824-3.207-12.511z" transform="translate(-388.238 -756.666)" style="fill:#eacdb0"/>
                <path data-name="Path 9379" d="M420.233 989.774v1l1.905 1 .953-1-.953-1z" transform="translate(-407.688 -922.39)" style="fill:#292949"/>
            </g>
            <path data-name="Path 9380" d="M352.493 619.028a1.583 1.583 0 0 0-.582-.567c-1.751-.988-4.652-.118-6.552-.118-.561 5.911-2.113 11.544-3.116 17.347q-1.6 9.245-3.595 18.415c-.075.346 5.287.171 5.792.18 5.159.087 10.7.291 15.674-1.269-3.177-8.528-3.121-17.926-5.623-26.676-.439-1.536-.961-3.049-1.356-4.6a10.35 10.35 0 0 0-.642-2.712z" transform="translate(-338.648 -607.776)" style="fill:#64dbff"/>
            <path data-name="Path 9381" d="M411.368 558.181a3.478 3.478 0 0 1 2.477 2.912 3.061 3.061 0 0 0-.674-4.955 3.543 3.543 0 0 0-1.706 2.066z" transform="translate(-400.186 -555.436)" style="fill:#292949"/>
            <path data-name="Path 9382" d="M391.877 567.3c-.675-3.562-5.125-2.947-6.4-.062a4.64 4.64 0 0 0 1.487 5.1c.031.315.072 1.185.313 1.4.261.228 1.084.011 1.406-.064a.5.5 0 0 0 .247-.111.926.926 0 0 0 .1-.54 2.963 2.963 0 0 0 .726-.143 3.448 3.448 0 0 0 2.095-2.343 6.9 6.9 0 0 0 .026-3.237z" transform="translate(-378.038 -562.809)" style="fill:#eacdb0"/>
            <g data-name="Group 5515">
                <path data-name="Path 9386" d="m392.326 704.525 1.022.555.979-.306.17.174-.206.218.885-.022.565.444-.044.955-.643.75-.944-.145-.885-.711-1.432-.7z" transform="translate(-383.62 -681.005)" style="fill:#eacdb0"/>
                <path data-name="Path 9387" d="M355.04 639.513a1.769 1.769 0 0 1-.557-1.548 7.744 7.744 0 0 1 .532-1.742 14.877 14.877 0 0 0 .913-5.688c-.07-1.922-2.65 0-3.071.789a12.6 12.6 0 0 0-.815 2.831q-.5 1.9-.845 3.828c-.146.814-.7 2.7.072 3.321a2.389 2.389 0 0 0 .719.351c.4.141 5.163 1.652 5.284 1.425l1.064-2a10.267 10.267 0 0 1-3.296-1.567z" transform="translate(-348.99 -617.694)" style="fill:#47ccf5"/>
            </g>
            <path data-name="Path 9388" d="M368.354 570.208a.979.979 0 0 0 .1-.01c.785-.135 2.045-.388 2.409-1.216.374-.847-.29-2.385-.4-3.266-.167-1.339-.222-2.689-.286-4.036a6.147 6.147 0 0 1 1.011-3.447 19.353 19.353 0 0 1 2.284-2.835 2.875 2.875 0 0 0 .8-1.268 1.875 1.875 0 0 0-.465-1.552 2.629 2.629 0 0 0-2.053-1 5.885 5.885 0 0 0-5.991 4.546c-1.2 4.119.3 8.05.076 12.149a3.916 3.916 0 0 1-.662 1.969 26.972 26.972 0 0 1 3.177-.034z" transform="translate(-361.096 -551.574)" style="fill:#292949"/>
        </g>
        <g data-name="Group 5748">
            <path data-name="Path 9349" d="M1720.99 471.633s19.89-3.56 34.3.04c0 0 3.887 32.257-17.121 41.17-.005.001-20.642-7.626-17.179-41.21z" transform="translate(-1706.97 -461.778)" style="fill:#f4f5f6"/>
            <path data-name="Path 9350" d="M1777.333 527.608s18.241-2.341 29.379 0c0 0 3.72 26.2-14.288 35.883 0 0-16.496-4.675-15.091-35.883z" transform="translate(-1761.025 -515.694)" style="fill:#fc8a53"/>
            <path data-name="Path 9351" d="M1947 685.016h-5.466v-5.331h-5.006v5.331h-5.2v5.006h5.2v5.331h5.006v-5.331H1947z" transform="translate(-1908.048 -661.799)" style="fill:#fff"/>
        </g>
    </g>
</svg>
