<svg data-name="Group 5565" xmlns="http://www.w3.org/2000/svg" width="102.822" height="88.068" viewBox="0 0 102.822 88.068">
    <g data-name="Group 5520">
        <g data-name="Group 5518">
            <path data-name="Path 9390" d="m210.411 315.7-1.592-1.282.529-.691 1.289.641.1-.441 1.226 1.26-.451.792z" transform="translate(-189.847 -279.712)" style="fill:#eac1a4"/>
        </g>
        <g data-name="Group 5519">
            <path data-name="Path 9391" d="m239.638 320.186-7.137 3.662-8.395-3.808-.813 1.615 8.9 6.651 9.76-2.555z" transform="translate(-202.263 -285.124)" style="fill:#8c9498"/>
        </g>
    </g>
    <g data-name="Group 5523">
        <g data-name="Group 5521">
            <path data-name="Path 9392" d="M561.271 76.169q0-.437-.01-.875l.4-.829a.29.29 0 0 1 .414 0l.356.812.011.875c.326 0 .859.239.863.546a.573.573 0 0 1-.583.563h-.266l.357 29.643c.02 1.673.944 3.053 2.246 3.008a2.242 2.242 0 0 0 2.011-2.249.613.613 0 0 1 .614-.542h.024a.6.6 0 0 1 .626.649 3.7 3.7 0 0 1-3.3 3.371 3 3 0 0 1-2.712-1.454 7.11 7.11 0 0 1-.695-3.773l-.044-3.688-.062-5.149-.071-5.871-.071-5.854-.061-5.1-.036-2.98h-.182a.574.574 0 0 1-.6-.549c0-.296.446-.55.771-.554z" transform="translate(-491.548 -74.381)" style="fill:#3b455a"/>
            <path data-name="Path 9393" d="m567.07 184.57 1.171-1.215-.024-1.984-1.185.014z" transform="translate(-497.146 -166.164)" style="opacity:.26"/>
        </g>
        <g data-name="Group 5522">
            <path data-name="Path 9394" d="m516.384 203.193-.118.058-.172-.055h.182z" transform="translate(-453.448 -184.884)" style="fill:none"/>
            <path data-name="Path 9395" d="m579.363 107.3-.2-1.09a25.322 25.322 0 0 0-4.49-10.475l-2.873-3.948a18.436 18.436 0 0 1 15.826 9.8 17.5 17.5 0 0 1 1.815 5.626 18.278 18.278 0 0 0-5.079-.626 18.688 18.688 0 0 0-4.999.713z" transform="translate(-501.234 -89.313)" style="fill:#d7e8f4"/>
            <path data-name="Path 9396" d="m450.666 105.216-.457 2.35h-.182a17.983 17.983 0 0 0-5.471-.741 18.364 18.364 0 0 0-5.475.863 17.531 17.531 0 0 1 2.408-7.091 18.476 18.476 0 0 1 15.663-8.877h.589l-2.224 3.253a25.017 25.017 0 0 0-4.851 10.243z" transform="translate(-387.381 -89.256)" style="fill:#d7e8f4"/>
            <path data-name="Path 9397" d="m532.478 106.176.2 1.09-.049.014a19.258 19.258 0 0 0-7.434-1.217 18.811 18.811 0 0 0-7.71 1.527h-.108l.457-2.35A25.017 25.017 0 0 1 522.68 95l2.224-3.253.2.005 2.881 3.944a25.325 25.325 0 0 1 4.493 10.48z" transform="translate(-454.544 -89.282)" style="fill:#7db5db"/>
        </g>
    </g>
    <g data-name="Group 5531">
        <g data-name="Group 5530">
            <g data-name="Group 5525">
                <g data-name="Group 5524">
                    <path data-name="Path 9398" d="m591.064 317.974-.863-.8-.014-1.026-.223-.108-.146.264-.26-.848-.61-.4-.912.34-.523.845.44.852.97.621 1.133 1.143z" transform="translate(-514.716 -280.851)" style="fill:#eac1a4"/>
                </g>
                <path data-name="Path 9399" d="m602.543 327.579-1.552 1.8 4.163 6.2 1.549.49 6.6-5.162-1.765-3.534-4.922 4.1z" transform="translate(-526.279 -291.419)" style="fill:#3b455a"/>
            </g>
            <g data-name="Group 5528">
                <g data-name="Group 5526">
                    <path data-name="Path 9400" d="m742.029 665.141.23 1.037-1.826 1.477-1.259-.817.8-1.257 1.826-1.481z" transform="translate(-644.821 -580.284)" style="fill:#3b455a"/>
                    <path data-name="Path 9401" d="m681.495 447.079 2.038 4.609.192 12.968 4.19 13.949-1.948.847-8.551-16.2-.973-5.13-.387-10.8z" transform="translate(-590.674 -394.106)" style="fill:#8c9295"/>
                </g>
                <g data-name="Group 5527">
                    <path data-name="Path 9402" d="m643.935 446.961-.16 13.591 2.611 17.523h2.008l1.268-16.169 2.747-16.169z" transform="translate(-562.981 -392.955)" style="fill:#8c9295"/>
                    <path data-name="Path 9403" d="M656.534 671.6v1.065l-2.171 1.065-1.086-1.065 1.086-1.065z" transform="translate(-571.133 -586.716)" style="fill:#3b455a"/>
                </g>
            </g>
            <path data-name="Path 9404" d="m631.725 323.7 5.334-.194s3.191 2.746 4.84 9.881c1.679 7.265-.31 17.724-.31 17.724s-14.309-1.87-16.655-2.159l3.579-14.344z" transform="translate(-546.818 -288.1)" style="fill:#3b455a"/>
            <g data-name="Group 5529">
                <path data-name="Path 9405" d="m671.184 289.092 1.869-.179a9.035 9.035 0 0 0-.1-1.464c.519-.178 1.119-.446 1.211-.978a1.491 1.491 0 0 0-.03-.507l-.363-2.078a1.832 1.832 0 0 0-.219-.691 1.6 1.6 0 0 0-1.113-.592 3.925 3.925 0 0 0-3.133.744 1.665 1.665 0 0 0-.53.683 2.211 2.211 0 0 0 .075 1.316l.319 1.2c.122.459.3.98.749 1.153a4.068 4.068 0 0 1 .738.2c.382.237.329.794.527 1.193z" transform="translate(-584.365 -252.954)" style="fill:#eac1a4"/>
                <path data-name="Path 9406" d="M643.349 261.718a5.763 5.763 0 0 1 .153-1.388c.166-.744 1.061-1.078 1.836-1.131 1.673-.114 3.288-.858 4.921-.284a21.638 21.638 0 0 1 3.033.87 2.473 2.473 0 0 1 .853.828 3.628 3.628 0 0 1 .005 3.9 5.3 5.3 0 0 1-.586.723 4.016 4.016 0 0 1-1.576 1.22c-.014-.532.483-2.209.067-2.646-.66-.693-2.155-.453-2.976-.284-.895.185-1.693.8-2.58.937a3.393 3.393 0 0 1-1.995-.538 2.474 2.474 0 0 1-1.155-2.207z" transform="translate(-562.614 -232.502)" style="fill:#3b455a"/>
            </g>
            <path data-name="Path 9407" d="m646.455 327.79-5.607 22-.46 2.885 6.985.9s-.276-10.533-.184-11.938 1.128-4.442 1.287-7.715c.092-1.893.7-5.293.276-6.4z" transform="translate(-560.077 -291.541)" style="fill:#fff"/>
        </g>
    </g>
    <g data-name="Group 5532">
        <path data-name="Path 9408" d="m420.836 368.654 1.5-1-.41-.647-1.182.465-.049-.394-1.176 1.013.333.729z" transform="translate(-370.598 -325.412)" style="fill:#ebceb1"/>
        <path data-name="Path 9409" d="m330.293 371.142.586 1.48c.08.243-5.6 3.387-6.105 3.613-1.113.5-3.133 1.67-3.133 1.67a19.08 19.08 0 0 1-5.438-1.17c-.393-.166-.672-1.018-.91-1.357-.3-.43.083-1.187.341-1.538a3.673 3.673 0 0 1 2.233-1.4 2.14 2.14 0 0 1 .966 0c.323.088.736-1.37 1.009-1.181.487.336.756 2.556 1.335 2.749.729.246 8.944-3.214 9.116-2.866z" transform="translate(-281.092 -328.942)" style="fill:#8c9498"/>
    </g>
    <path data-name="Path 9410" d="M247.835 323.526h-.1c-1.593.076-3.523 2.127-4.64 3.338a32.11 32.11 0 0 0-6.408 10.711c-.812 2.156-1.529 4.347-2.2 6.551-.186.609-1.49 6.177-1.806 6.216a50.859 50.859 0 0 1 9.738-.5 20.428 20.428 0 0 1 9.212 2.667 149.4 149.4 0 0 0 2.81-21.785 18.509 18.509 0 0 0 .092-2.62 3.985 3.985 0 0 0-1.159-2.191 5 5 0 0 0-.626-.731 7.4 7.4 0 0 0-4.913-1.656z" transform="translate(-210.316 -288.111)" style="fill:#8c9498"/>
    <g data-name="Group 5534">
        <g data-name="Group 5533">
            <path data-name="Path 9411" d="m259.7 479.9 3.375 13.435.075 9.9 1.639.348.64-9.21 1.609-16.866z" transform="translate(-233.501 -420.21)" style="fill:#ebceb1"/>
        </g>
        <path data-name="Path 9412" d="m284.834 660.824.265 1-.232 1.971h-1.328l-.5-2.848.154-.476z" transform="translate(-253.52 -577.174)" style="fill:#3b455a"/>
    </g>
    <g data-name="Group 5535">
        <path data-name="Path 9413" d="m309.469 480.65.3 11.609-1.58 16.4-1.618.116-.581-15.031-3.294-13.627z" transform="translate(-270.379 -422.445)" style="fill:#ebceb1"/>
        <path data-name="Path 9414" d="m329.86 678.993 2.179 1.135-.173 1-3.849-.462.185-1.437z" transform="translate(-292.104 -593.058)" style="fill:#3b455a"/>
    </g>
    <path data-name="Path 9415" d="m310.986 486.782 1.1 13.412-1.115 9.2-4.382-.244-.781-10.458-1.895-11.4.294-1.775 6.315.091z" transform="translate(-271.422 -427.08)" style="fill:#3b455a"/>
    <path data-name="Path 9416" d="m266.836 495.281-.515 9.62-3.809-.192.078-9.124-2.4-11.458.548-3.2 6.406.391z" transform="translate(-233.915 -423.142)" style="fill:#3b455a"/>
    <path data-name="Path 9417" d="M273.895 349.5c-3.908-.661-10.241-2.263-14.149-2.924a83.172 83.172 0 0 1 9.1-19.908 4.861 4.861 0 0 1 2.78-2.42c1.32-.27 3.634.584 3.89 2.031.375 2.118-.4 5.04-.644 7.182-.547 4.847-.032 11.252-.977 16.039z" transform="translate(-233.536 -288.692)" style="fill:#fff"/>
    <g data-name="Group 5538">
        <path data-name="Path 9418" d="M349.425 284.1c1.47-2.509 4.726-.879 4.937 1.63a3.687 3.687 0 0 1-3.193 3.6q-.052.6-.155 1.187l-1.284-.344c-.132-.036-.284-.088-.327-.216a.4.4 0 0 1 .02-.24l.232-.793a4.543 4.543 0 0 1-.086-.061 2.726 2.726 0 0 1-.985-2.314 5.442 5.442 0 0 1 .841-2.449z" transform="translate(-309.745 -253.219)" style="fill:#eac1a4"/>
        <g data-name="Group 5537">
            <g data-name="Group 5536">
                <path data-name="Path 9419" d="M334.119 278.435a3.774 3.774 0 0 0-.822 2.656c-.042.815-.165 1.3-1.047 1.072-.5-.129-1.383-.35-1.593-.884-.159-.4.425-1.1.734-1.333.236-.18.59-.15.821-.336a.943.943 0 0 0 .219-.289 4.849 4.849 0 0 0 .512-1.387 4.9 4.9 0 0 1 .233-.977c.192-.448.769-.788 1.143-1.1.7-.577 2.274-1.016 2.846.013a1.4 1.4 0 0 1 .11.782 1.164 1.164 0 0 1-.1.464c-.3.566-.87.39-1.375.471a3.268 3.268 0 0 0-1.681.848z" transform="translate(-294.345 -246.702)" style="fill:#3b455a"/>
                <path data-name="Path 9420" d="M369.651 274.26c-.181.415-.632.748-.588 1.2a1.931 1.931 0 0 0 .219.56 1.572 1.572 0 0 1-.195 1.561l2.488 1.167a.839.839 0 0 0 .4.111c.3-.018.474-.32.6-.585a2.774 2.774 0 0 0 .383-1.646c-.05-.261-.175-.5-.225-.764-.237-1.255 1.3-2.452.827-3.642-.209-.531-.758-.846-1.129-1.284-.648-.763-.74-1.886-1.436-2.606a2.194 2.194 0 0 0-3.7 1.644c.157 1.539 3.085 2.613 2.356 4.284z" transform="translate(-325.785 -240.246)" style="fill:#3b455a"/>
            </g>
        </g>
    </g>
    <path data-name="Path 9421" d="M256.769 326.324s-6.759 15.986-5.266 20.064 2.187 5.657 2.187 5.657l-10.349.424s6.606-23.354 13.428-26.145z" transform="translate(-219.462 -290.515)" style="fill:#8c9498"/>
    <g data-name="Group 5549">
        <g data-name="Group 5548">
            <path data-name="Path 9422" d="m274.67 374.236-4.586-4.779-.145-.007-.734-1.716-3.876-9.058c-1.137-2.656-2.041-7.143-5.6-7.342l-33.807-1.894a9.746 9.746 0 0 0-9.119 5.249l-6.318 11.895-.563-.027-11.53 2.869a11.41 11.41 0 0 0-7.09 9.857l-.38 6.53 85.837 4.809.541-9.29a9.451 9.451 0 0 0-2.63-7.096z" transform="translate(-174.496 -310.333)" style="fill:#4b7bec"/>
            <path data-name="Path 9423" d="M550.1 391.731 572.654 393l-4.4-12.677a1.619 1.619 0 0 0-1.431-1.1l-15.942-.893z" transform="translate(-482.62 -335.124)" style="fill:#d7e8f4"/>
            <path data-name="Path 9424" d="m381.529 372.37-12.92-.724a7.107 7.107 0 0 0-6.649 3.827l-4.772 8.984 23.561 1.32z" transform="translate(-317.128 -329.385)" style="fill:#d7e8f4"/>
            <g data-name="Group 5539" style="opacity:.2">
                <path data-name="Path 9425" d="m636.977 387.4.872.524-1.2-3.469a1.619 1.619 0 0 0-1.431-1.1l-5.523-.309c2.414 1.469 4.855 2.903 7.282 4.354z" transform="translate(-550.899 -339.177)" style="fill:#fffdf1"/>
                <path data-name="Path 9426" d="M577.97 387.064c-4.012-2.432-8.221-5.172-12.186-7.677l-5.186-.209a95.783 95.783 0 0 0 11.534 8.715c2.3 1.572 4.653 3.068 7.072 4.456.793.455 1.626.874 2.462 1.3l-1.905-5.488q-.894-.553-1.791-1.097z" transform="translate(-491.627 -335.856)" style="fill:#fffdf1"/>
                <path data-name="Path 9427" d="M405.515 386.829c-1.677-1.2-3.422-2.323-5.18-3.407-1.781-1.1-3.586-2.2-5.465-3.132-.619-.307-1.247-.595-1.873-.886a7.3 7.3 0 0 0-2.519 2.734l-.046.087c1.872 1.447 3.757 2.878 5.615 4.335a83 83 0 0 0 8.819 5.635l4.4.247.141-2.43c-1.295-1.062-2.527-2.203-3.892-3.183z" transform="translate(-345.647 -336.05)" style="fill:#fffdf1"/>
            </g>
            <g data-name="Group 5540">
                <path data-name="Path 9428" d="M341.84 565.653a5.966 5.966 0 0 0 .182-1.157c.227-3.9-3.387-7.277-8.073-7.54a9.671 9.671 0 0 0-4.984 1.029 16.211 16.211 0 0 1 7.288 4.294 12.8 12.8 0 0 1 2.341 3.172z" transform="translate(-292.917 -488.352)" style="fill:#000100;opacity:.1"/>
            </g>
            <g data-name="Group 5541">
                <path data-name="Path 9429" d="M656.456 583.243a6.113 6.113 0 0 0 .18-1.157c.227-3.9-3.3-7.272-7.872-7.528a9.275 9.275 0 0 0-4.868 1.036 15.7 15.7 0 0 1 7.11 4.284 12.736 12.736 0 0 1 2.282 3.168z" transform="translate(-563.085 -503.453)" style="fill:#000100;opacity:.1"/>
            </g>
            <g data-name="Group 5544" transform="translate(31.263 68.468)">
                <ellipse data-name="Ellipse 511" cx="7.559" cy="7.423" rx="7.559" ry="7.423" transform="rotate(-.19 15.078 .025)" style="fill:#3b455a"/>
                <g data-name="Group 5543">
                    <g data-name="Group 5542" transform="translate(3.279 3.221)">
                        <ellipse data-name="Ellipse 512" cx="4.29" cy="4.213" rx="4.29" ry="4.213" transform="rotate(-.188 8.533 .014)" style="fill:#fffdf1"/>
                    </g>
                    <path data-name="Path 9430" d="M335.418 624.638a3.537 3.537 0 0 0 2.275-.792 2.466 2.466 0 0 1-1.745 1.441 4.079 4.079 0 0 1-.8.07 4.146 4.146 0 0 1-.85-.061 2.518 2.518 0 0 1-1.749-1.34c.108.22.939.418 1.146.466a6.97 6.97 0 0 0 1.723.216z" transform="translate(-327.253 -614.218)" style="fill:#000100;opacity:.1"/>
                </g>
            </g>
            <g data-name="Group 5547" transform="translate(75.854 70.966)">
                <ellipse data-name="Ellipse 513" cx="7.559" cy="7.423" rx="7.559" ry="7.423" transform="rotate(-.19 15.078 .025)" style="fill:#3b455a"/>
                <g data-name="Group 5546">
                    <g data-name="Group 5545" transform="translate(3.279 3.221)">
                        <ellipse data-name="Ellipse 514" cx="4.29" cy="4.213" rx="4.29" ry="4.213" transform="rotate(-.185 8.672 .014)" style="fill:#fffdf1"/>
                    </g>
                    <path data-name="Path 9431" d="M649.145 642.214a3.54 3.54 0 0 0 2.275-.791 2.466 2.466 0 0 1-1.745 1.441 4.077 4.077 0 0 1-.8.07 4.156 4.156 0 0 1-.85-.061 2.518 2.518 0 0 1-1.748-1.34c.108.22.939.417 1.146.466a6.969 6.969 0 0 0 1.722.215z" transform="translate(-640.981 -631.793)" style="fill:#000100;opacity:.1"/>
                </g>
            </g>
        </g>
        <path data-name="Path 9432" d="m481.769 497.617-2.338-.131a.873.873 0 0 1-.832-.915.878.878 0 0 1 .933-.816l2.338.131a.873.873 0 0 1 .832.915.878.878 0 0 1-.933.816z" transform="translate(-421.282 -435.862)" style="fill:#29313f;opacity:.5"/>
    </g>
    <g data-name="Group 5550">
        <path data-name="Path 9433" d="m659.428 425.439-.97.865-1.154-.071-.14.232.284.18-.975.21-.5.626.305 1.014.905.636.994-.4.779-1 1.379-1.128z" transform="translate(-573.448 -375.542)" style="fill:#eac1a4"/>
        <path data-name="Path 9434" d="m673.727 351.095 4.717-3.607c.423-.324.9-.57 1.326-.9.616-.478.779-.622.572-1.315-.6-2.009-1.877-3.8-2.458-5.781a20.277 20.277 0 0 1 1.975-1.16c1.168-.51 1.435.319 1.91 1.162.564 1 1.1 2.017 1.592 3.051.41.857 2.452 4.455 1.292 5.31-.83.615-9.9 5.3-9.808 5.49z" transform="translate(-588.676 -300.685)" style="fill:#3b455a"/>
    </g>
    <g data-name="Group 5553">
        <g data-name="Group 5552">
            <path data-name="Path 9435" d="M105.251 215.12c-8.942 4.379-14.87 1.269-15.683.794 0 0-.03-.06-.048-.029-.032-.019-.028.048-.028.048-.482.8-4.165 6.315-14.153 6.675 0 0 2.893 17.066 10.183 22.5 7.787 5.8 13.333 6.758 13.353 6.733.03.013 4.485-3.4 8.43-12.185 3.695-8.221-2.054-24.536-2.054-24.536z" transform="translate(-75.339 -195.116)" style="fill:#3b455a"/>
            <path data-name="Path 9436" d="M115.365 229.646c-8.124 3.939-13.483 1.191-14.218.771 0 0-.027-.054-.044-.025-.029-.017-.026.043-.026.043-.44.714-3.8 5.645-12.856 6.006 0 0 2.551 15.2 9.136 20.012 7.033 5.14 12.156 6.369 12.174 6.346.027.011 3.98-3.449 7.594-11.294 3.375-7.34-1.76-21.859-1.76-21.859z" transform="translate(-86.39 -207.577)" style="fill:#4b7bec"/>
            <g data-name="Group 5551" style="opacity:.06">
                <path data-name="Path 9437" d="M15.065 24.324s0-.063.027-.045c.018-.03.046.027.046.027.755.431 6.167 3.206 14.4-.575-.436-1.5-.765-2.433-.765-2.433-8.124 3.939-13.483 1.19-14.218.771 0 0-.027-.054-.044-.025-.029-.017-.026.043-.026.043-.44.714-3.8 5.645-12.856 6.006 0 0 .163.969.512 2.5 9.076-.554 12.472-5.536 12.924-6.269z"/>
            </g>
        </g>
        <path data-name="Path 9438" d="M135.974 263.2c-6.131 3-11.007.911-11.565.585 0 0-.02-.041-.033-.02-.022-.013-.019.033-.019.033-.33.548-3.549 4.657-10.4 4.9 0 0 2.677 11.373 7.676 15.1 5.339 3.978 9.141 4.633 9.155 4.616.021.009 3.075-2.332 5.78-8.354 2.532-5.633-.594-16.86-.594-16.86z" transform="translate(-108.471 -236.362)" style="opacity:.19;fill:#fff"/>
    </g>
</svg>
