<svg xmlns="http://www.w3.org/2000/svg" xmlns:xlink="http://www.w3.org/1999/xlink" width="115.023" height="116.577" viewBox="0 0 115.023 116.577">
    <defs>
        <linearGradient id="yewkpdnszb" x1="1.708" y1="-.178" x2="-.674" y2="1.155" gradientUnits="objectBoundingBox">
            <stop offset="0" stop-color="#bdd9a9"/>
            <stop offset=".143" stop-color="#98cfa7"/>
            <stop offset=".335" stop-color="#6dc4a6"/>
            <stop offset=".522" stop-color="#4bbba5"/>
            <stop offset=".7" stop-color="#33b5a4"/>
            <stop offset=".863" stop-color="#25b1a4"/>
            <stop offset="1" stop-color="#20b0a4"/>
        </linearGradient>
        <linearGradient id="hkxhtqsowc" y1=".5" x2="1" y2=".5" gradientUnits="objectBoundingBox">
            <stop offset="0" stop-color="#bdd9a9"/>
            <stop offset=".064" stop-color="#afd5a8"/>
            <stop offset=".389" stop-color="#72c5a6"/>
            <stop offset=".664" stop-color="#45b9a5"/>
            <stop offset=".876" stop-color="#2ab2a4"/>
            <stop offset="1" stop-color="#20b0a4"/>
        </linearGradient>
        <linearGradient id="svbzd2x0ha" x1="-2.38" y1="1.764" x2="-1.511" y2="1.764" gradientUnits="objectBoundingBox">
            <stop offset="0" stop-color="#c980b2"/>
            <stop offset="1" stop-color="#ea6e56"/>
        </linearGradient>
        <linearGradient id="uc51vw9nhd" x1="0" y1=".5" x2="1" y2=".5" xlink:href="#svbzd2x0ha"/>
        <linearGradient id="xkzvh7h8pe" x1="-.691" y1=".745" x2="1.179" y2=".335" gradientUnits="objectBoundingBox">
            <stop offset="0" stop-color="#bdd9a9"/>
            <stop offset=".094" stop-color="#a5d2a8"/>
            <stop offset=".309" stop-color="#76c6a6"/>
            <stop offset=".514" stop-color="#50bca5"/>
            <stop offset=".703" stop-color="#36b5a4"/>
            <stop offset=".871" stop-color="#25b1a4"/>
            <stop offset="1" stop-color="#20b0a4"/>
        </linearGradient>
    </defs>
    <g data-name="Group 4712">
        <path data-name="Path 7685" d="m3837.541 435.734-.9 1.963h2.2l-.687-1.92z" transform="translate(-3829.966 -414.264)" style="fill:#f2a8ab"/>
        <path data-name="Path 7686" d="M3845.931 450.653c.616 2.367 1.607 4.8 1.884 7.231a24.663 24.663 0 0 1-.765 7.9 48.138 48.138 0 0 0-1.291 8.048 14.215 14.215 0 0 0 1.684 7.887" transform="translate(-3838.125 -427.635)" style="stroke:#d5858e;fill:none;stroke-miterlimit:10"/>
        <path data-name="Path 7687" d="M3779.915 250.306a2.229 2.229 0 0 1-.116-.036 2.817 2.817 0 0 1-.813-.518 23.386 23.386 0 0 1-4.646-4.779c-3.167-4.625-2.668-11.745 2.2-14.858 4.917-3.146 11.813-.137 13.685 5.5a10.414 10.414 0 0 1-1.722 9.867 13.418 13.418 0 0 1-3.744 3.2c-1.176.683-3.434 2.005-4.844 1.624z" transform="translate(-3772.341 -228.843)" style="fill:#ffc440"/>
        <ellipse data-name="Ellipse 367" cx="3.659" cy="4.769" rx="3.659" ry="4.769" transform="rotate(-30 70.541 -69.459)" style="fill:#d5b8a2"/>
        <path data-name="Path 7688" d="M4481.641 848.311a6.569 6.569 0 0 1 1.021 1.626c0 .349.089 1.286.075 1.364a1.817 1.817 0 0 1-.622.907c-.222.143-.947.63-1.167.4a19.926 19.926 0 0 1-.293-2.549s.721.839.391 1.093c-.16.122-.831-.263-.916-.462s-.231-1.849.041-2.011a8.249 8.249 0 0 1 1.47-.368z" transform="translate(-4406.577 -784.026)" style="fill:#d5b8a2"/>
        <path data-name="Path 7689" d="M4471.545 837.227s0 .636.534.769a4.727 4.727 0 0 0 1.965-.754c.4-.332-.2-1.127-.2-1.127l-2.3.693z" transform="translate(-4398.986 -773.095)" style="fill:url(#yewkpdnszb)"/>
        <path data-name="Path 7690" d="M4022.014 866.357s-3.114.8-3.246.9-2.012 1.426-1.913 1.69a5.674 5.674 0 0 0 2.523.456c.528-.209 1.1-.693 1.272-.693.45 0 1.8-.783 1.59-.973s-.226-1.38-.226-1.38z" transform="translate(-3991.478 -800.199)" style="fill:#d5b8a2"/>
        <path data-name="Path 7691" d="M4066.667 858.47s-.859.192-.949.695.231 2.208.809 2.455c.455.194 1.872-.676 1.872-.676z" transform="translate(-4035.26 -793.13)" style="fill:url(#hkxhtqsowc)"/>
        <path data-name="Path 7692" d="M4322.841 554.438s7.753.177 12.662 9.279 5.863 15.437 5.505 19.576c-.1 1.112-1.566 1.732-2.679 1.815-4.506.338-15.548-26.339-15.488-30.67z" transform="translate(-4265.712 -520.649)" style="fill:#525ba8"/>
        <path data-name="Path 7693" d="M4364.534 833.839c-.354-2.541-4.653-19.378-5.98-21.172 0 0-5.24 1.211-9.944 2.433a36.669 36.669 0 0 0 2.309 8.873 72.215 72.215 0 0 0 6.209 11.714c1.477 2.095.808 5.369.77 9.06s.9 7.914 1.535 11.4h1.993s3.495-19.534 3.108-22.308z" transform="translate(-4288.807 -752.081)" style="fill:#c2cacc"/>
        <path data-name="Path 7694" d="M4247.775 830.344s1.26 20.841 1.406 22.592 3.536 22.824 4.97 26.295h2.037s1.835-16.988 1.835-19.822c0-1.8-.417-5.159-.318-6.877.215-3.737 2.641-14.737 2.641-14.737s.07.172.2.479c-.023-2.538.423-6.814 0-9.37-5.273-.786-12.554.202-12.771 1.44z" transform="translate(-4198.436 -766.382)" style="fill:#c2cacc"/>
        <path data-name="Path 7695" d="M4095.908 553.3c-6.506 0-13.081 6.1-14.988 13.182-.84 3.119-.984 9.318-3.954 12.3-.436.438-3.747 3.047-4.715 5.13-.549 1.182-.565 3.687.688 4.441 4.613 2.775 12.865-6.737 15.127-13.681.431 4.984-.037 10.478 3.717 10.478 5.526 0 18.262-1.581 19.675-3.378 1.437-1.83-1.824-13.227-2.331-15.09-2.549-9.36-6.007-13.382-13.219-13.382z" transform="translate(-4040.809 -519.629)" style="fill:#525ba8"/>
        <path data-name="Path 7697" d="M4450.2 1235.886h1.745a.556.556 0 0 1 .44.217l3.125 4.081a.553.553 0 0 1-.706.821l-4.554-2.5a.555.555 0 0 1-.277-.376l-.315-1.58a.553.553 0 0 1 .542-.663z" transform="translate(-4379.362 -1131.38)" style="fill:#9b7a9e"/>
        <path data-name="Path 7698" d="M4304.172 1322.369h1.975a.212.212 0 0 1 .192.19l.441 2.419a.455.455 0 0 1-.484.487h-2.311a.419.419 0 0 1-.4-.347l.378-2.527a.236.236 0 0 1 .209-.222z" transform="translate(-4248.451 -1208.888)" style="fill:#9b7a9e"/>
        <path data-name="Path 7699" d="M4202.989 435.614a13.012 13.012 0 0 1-1.4-1.263s.472-.788-.065-1.087a.75.75 0 0 0-.975.2s-.723-3.139-2.167-3.052a3.875 3.875 0 0 0-1.444 2.106 2.659 2.659 0 0 1-1.446 2.023 1.479 1.479 0 0 1-1.126.173s-1.878-5.548 2.485-8l2.789-1.091s5.584 2.616 4.194 9.7c-.017.093-.845.291-.845.291z" transform="translate(-4150.21 -405.203)" style="fill:#45378b"/>
        <path data-name="Path 7700" d="M4052.641 941a.269.269 0 0 1 .013.321c-.158.232-.441.607-.566.508s-.631-.578-.913-.846a.268.268 0 0 1-.011-.378c.122-.13.285-.3.42-.436a.268.268 0 0 1 .4.021z" transform="translate(-4022.165 -866.285)" style="fill:url(#svbzd2x0ha)"/>
        <path data-name="Path 7701" d="M3843.99 897.68a.268.268 0 0 1-.272-.171c-.1-.261-.25-.708-.1-.755s.834-.192 1.215-.271a.268.268 0 0 1 .317.205c.038.175.086.406.12.593a.268.268 0 0 1-.242.314z" transform="translate(-3836.165 -827.194)" style="fill:url(#uc51vw9nhd)"/>
        <path data-name="Path 7702" d="M3851.852 909.775a22.278 22.278 0 0 0 3.226.26c.682-.1 7.826-3.758 8.767-3.525a1.616 1.616 0 0 1 1.387 1.756c-.042.924-6.022 5.188-6.081 6.072s2.533 4.953 1.271 8.075c-.678 1.677-2.985 2.071-4.553 2.271-1.175.15-2.358.2-3.54.246a9.747 9.747 0 0 1-3.139-.116 3.621 3.621 0 0 1-1.632-1.1 10.152 10.152 0 0 1-1.917-4.671c-.425-1.814-.785-3.642-1.142-5.47-.647-3.312-1.411-6.521-1.674-7.979s-.931-2.884.631-3.217 2.1.044 3 2.673a7.47 7.47 0 0 0 5.396 4.725z" transform="translate(-3835.181 -832.393)" style="fill:#e37125"/>
        <ellipse data-name="Ellipse 368" cx="3.316" cy="3.271" rx="3.316" ry="3.271" transform="rotate(-45 95.654 20.245)" style="fill:#d5b8a2"/>
        <path data-name="Path 7703" d="M3899.835 1095.226s3.146 9.681 3.19 10.288c.034.475-1.154 7.832-1.039 8.525l1.625.389s3.012-7.191 3.149-7.844c.141-.672.846-7.1.846-7.1s.941 4.767 1.062 6.361c.17 2.267.13 9.391.13 9.391h1.517s2.393-7.457 2.564-10.006c.21-3.1-.859-12.407-.859-12.407s-10.499 3.369-12.185 2.403z" transform="translate(-3886.604 -1003.166)" style="fill:#e0504d"/>
        <path data-name="Path 7704" d="M3836.474 876.713a8.5 8.5 0 0 1-1.062-1.406c.021-.173.109-1.127.3-1.149s1.018 1.409 1.018 1.409a1.41 1.41 0 0 0 .32-.567.241.241 0 0 1 .464-.041 8.088 8.088 0 0 1-.285 1.515c-.104.196-.755.239-.755.239z" transform="translate(-3828.867 -807.191)" style="fill:#d5b8a2"/>
        <path data-name="Path 7705" d="m4060.4 928.356.525-.891s.341-.118.4 0 1.242-.95 1.317-.917.575.241-.562 1.583c0 0-1.155.825-1.325.877s-.355-.652-.355-.652z" transform="translate(-4030.509 -854.142)" style="fill:#d5b8a2"/>
        <path data-name="Path 7706" d="M3914.665 1325.493s1.377.086 1.173-.852a.253.253 0 0 0-.177-.186l-1.69-.5a.515.515 0 0 0-.565.153l-.033.039a.538.538 0 0 0 .208.852l.835.316a.553.553 0 0 1 .188.1.363.363 0 0 1 .061.078z" transform="translate(-3898.62 -1210.284)" style="fill:#7ba7a9"/>
        <path data-name="Path 7707" d="m3989.9 1333.132.069-.046c.364-.241.5-.757.092-.9l-1.332-.456a.514.514 0 0 0-.565.153l-.033.039a.538.538 0 0 0 .209.852l1.1.415a.511.511 0 0 0 .46-.057z" transform="translate(-3965.623 -1217.248)" style="fill:#7ba7a9"/>
        <path data-name="Path 7708" d="m3910.81 1305.323.873.318a.513.513 0 0 1 .335.532l-.21 2.156a.513.513 0 0 1-.651.444l-1.375-.391a.514.514 0 0 1-.345-.66l.712-2.083a.513.513 0 0 1 .661-.316z" transform="translate(-3895.186 -1193.583)" style="fill:#7ba7a9"/>
        <path data-name="Path 7709" d="m3985.421 1316.226.714.022a.632.632 0 0 1 .6.493l.425 1.883a.632.632 0 0 1-.59.771l-1.158.049a.633.633 0 0 1-.66-.638l.02-1.954a.632.632 0 0 1 .649-.626z" transform="translate(-3962.708 -1203.383)" style="fill:#7ba7a9"/>
        <g data-name="Group 4709">
            <path data-name="Path 7710" d="M4713.438 1336.253s-1.6-.274-1.114-1.294a.3.3 0 0 1 .253-.165l2.072-.114a.607.607 0 0 1 .607.328l.026.053a.634.634 0 0 1-.469.92l-1.043.136a.649.649 0 0 0-.243.066.411.411 0 0 0-.089.07z" transform="translate(-4614.693 -1219.918)" style="fill:#7ba7a9"/>
            <path data-name="Path 7711" d="m4720.59 1312.613-1.086.128a.6.6 0 0 0-.528.519l-.343 2.528a.6.6 0 0 0 .626.685l1.682-.076a.6.6 0 0 0 .574-.662l-.252-2.581a.6.6 0 0 0-.673-.541z" transform="translate(-4620.426 -1200.141)" style="fill:#7ba7a9"/>
        </g>
        <g data-name="Group 4710">
            <path data-name="Path 7712" d="m4639.7 1326.22-.094-.028c-.494-.147-.822-.682-.413-.987l1.346-.969a.605.605 0 0 1 .688-.021l.051.032a.634.634 0 0 1 .056 1.031l-1.094.842a.6.6 0 0 1-.54.1z" transform="translate(-4549.073 -1210.457)" style="fill:#7ba7a9"/>
            <path data-name="Path 7713" d="m4641.4 1305.862-.8.268a.746.746 0 0 0-.505.76l.163 2.267a.746.746 0 0 0 .929.668l1.323-.34a.745.745 0 0 0 .525-.945l-.689-2.2a.744.744 0 0 0-.946-.478z" transform="translate(-4550.045 -1194.059)" style="fill:#7ba7a9"/>
        </g>
        <path data-name="Path 7715" d="M3909.577 901.678a2.009 2.009 0 0 0-1.781.2 3.212 3.212 0 0 0-1.174 1.409 3.7 3.7 0 0 0 .847 4.4 5.909 5.909 0 0 0 1.7.8 4.769 4.769 0 0 0 1.319.32 2.429 2.429 0 0 0 2.172-1.189 4.78 4.78 0 0 0 .43-2.375 6.98 6.98 0 0 0-.162-1.922 2.358 2.358 0 0 0-1.121-1.509 2.818 2.818 0 0 0-2.073-.021" transform="translate(-3892.357 -831.743)" style="fill:#45378b"/>
        <path data-name="Path 7716" d="M3966.141 939.118a2.26 2.26 0 0 1 2.134 2.284c-.042.8-.523 1.554-.455 2.354a3.436 3.436 0 0 0 .687 1.546 2.532 2.532 0 0 1-2.234-2.939c.1-.575.388-1.1.5-1.672a2.781 2.781 0 0 0-.129-1.526" transform="translate(-3946.03 -865.409)" style="fill:#45378b"/>
        <path data-name="Path 7717" d="M3889.933 941.316c-.441.027-.744.474-.84.906s-.06.888-.185 1.313-.5.836-.938.775a1.811 1.811 0 0 0 1.535.879 1.575 1.575 0 0 0 1.433-.989 2.41 2.41 0 0 0-.172-1.713 2.06 2.06 0 0 0-.847-1.105" transform="translate(-3875.97 -867.379)" style="fill:#45378b"/>
        <path data-name="Path 7718" d="m4594.753 821 17.406 1.568s3.934-2.357-2.92 24.181c-1.612 6.245-1 18.117-2.283 24.856l-1.912.13s-2.53-19.37-2.536-26.041l.274-13.742s-1.9 9.48-4.312 16.816c-1.655 5.035 1.225 3.659-.371 21.781l-1.888.634a124.544 124.544 0 0 1-4.74-23.068s-.847-25.401 3.282-27.115z" transform="translate(-4506.402 -759.549)" style="fill:url(#xkzvh7h8pe)"/>
        <path data-name="Path 7719" d="M4588.708 571.4c1.438-.141 9.066-3.667 9.066-3.667l-4.959-1.213-8.887 3.4c1.51.577 3 1.147 4.514 1.691a.383.383 0 0 1 .266-.211z" transform="translate(-4499.706 -531.482)" style="fill:#d5b8a2"/>
        <path data-name="Path 7720" d="m4582.585 569.974 4.652 1.636 9-3.872-4.627-1.213z" transform="translate(-4498.502 -531.482)" style="fill:#a08a80"/>
        <g data-name="Group 4711">
            <path data-name="Path 7721" d="M4598.908 545.08h-.006c-.6-.43-2.388-2.036-1.785-2.846a1.127 1.127 0 0 1 1.244-.38 1.887 1.887 0 0 0 .582.183c.908.016.048-1.313-.126-1.625-.412-.74-.1-1.94.924-1.424.215.108.48.343.721.351.595.018.76-1.968 1.913-2.4 2.787-1.036.212 2.167.6 3.033.1.235 2.9-.322 1.817 1.119-.537.713-3 1.69-1.56 2.131.349.107 1.926-.824 1.531.87-.1.425-1.9 1.455-2.411 1.681a3.711 3.711 0 0 1-3.444-.693z" transform="translate(-4511.417 -504.783)" style="fill:#3d8486"/>
            <path data-name="Path 7722" d="M4627.559 563.183a6.239 6.239 0 0 1 .549-3.222c.425-1.018.994-1.968 1.468-2.964" transform="translate(-4538.771 -522.942)" style="stroke:#fff;stroke-width:.25px;opacity:.35;fill:none;stroke-miterlimit:10"/>
            <path data-name="Path 7723" d="M4627.68 574.49a3.541 3.541 0 0 0 .4 1.2" transform="translate(-4538.917 -538.621)" style="stroke:#fff;stroke-width:.25px;opacity:.35;fill:none;stroke-miterlimit:10"/>
            <path data-name="Path 7724" d="M4637.1 575.566a5.073 5.073 0 0 0 1.4-.567" transform="translate(-4547.361 -539.077)" style="stroke:#fff;stroke-width:.25px;opacity:.35;fill:none;stroke-miterlimit:10"/>
            <path data-name="Path 7725" d="M4614.042 595.521a3.306 3.306 0 0 0 1.353 1.766" transform="translate(-4526.695 -557.469)" style="stroke:#fff;stroke-width:.25px;opacity:.35;fill:none;stroke-miterlimit:10"/>
            <path data-name="Path 7726" d="M4629.095 600.1a4.3 4.3 0 0 0 1.351-.619" transform="translate(-4540.186 -561.022)" style="stroke:#fff;stroke-width:.25px;opacity:.35;fill:none;stroke-miterlimit:10"/>
        </g>
        <path data-name="Path 7727" d="m4582.725 599.246-.14.053 1.651 14.652h2.6s-.671-11.338.4-13.014a250.365 250.365 0 0 1-4.511-1.691z" transform="translate(-4498.502 -560.807)" style="fill:#b8a397"/>
        <path data-name="Path 7728" d="M4610.734 574.156s-6.092.839-6.628 12.019c0 0-4.637 15.068 1.825 16.045 0 0 12.535 1.461 16.034.942 1.39-.206 1.931-1.174 2.253-3.3 2.935-19.387-6.018-26.589-13.484-25.706z" transform="translate(-4516.346 -538.257)" style="fill:#ffc440"/>
        <path data-name="Path 7729" d="M4571.025 584.1c.977-.15 3.45 17.206 1.759 19.37-1.278 1.633-1.954 3.434-7.456 2.658s-6.194-5.679-3.987-8.82c.261-.373 2.195-2.377 2.195-2.377a4.794 4.794 0 0 1 .217 1.17c.257 1.9 1.5 1.2 1.477.808-.149-2.248.545-7.386 1.86-9.3 2.721-3.971 3.935-3.509 3.935-3.509z" transform="translate(-4478.414 -547.221)" style="fill:#ffc440"/>
        <ellipse data-name="Ellipse 369" cx="3.556" cy="5.215" rx="3.556" ry="5.215" transform="rotate(-13.975 148.654 -359.568)" style="fill:#d5b8a2"/>
        <path data-name="Path 7730" d="M4663.376 446.684c-.307 1.057.156 4.128 2.425 4a2.806 2.806 0 0 1 3.1 2.99c-.183 1.17-.511 5.622 1.676 7.057 1.647 1.082 4.7-.378 6.442 3.35 1.266 2.707 11.242 1.777 8.295-2.181-2.02-2.711 1.118-4.271-1.474-6.79-1.041-1.011-3.089-.835-2.687-2.745.347-1.647 1.127-2.572-1.387-3.9-2.887-1.525-5.246.293-4.74-1.781.636-2.611-9.797-6.384-11.65 0z" transform="translate(-4570.833 -420.931)" style="fill:#45378b"/>
    </g>
</svg>
