<svg xmlns="http://www.w3.org/2000/svg" width="296.513" height="296.513" viewBox="0 0 296.513 296.513">
    <g style="opacity:.064">
        <path data-name="Path 7046" d="M333.287 198.28c-33.435 0-50.183 40.431-26.53 64.083l182.529 182.53c23.653 23.652 64.084 6.9 64.084-26.531V239.68a41.4 41.4 0 0 0-41.4-41.4z" transform="translate(-256.857 -198.28)" style="fill:#777"/>
        <path data-name="Path 7047" d="m372.255 249.824-25.894-25.894h-25.893c-33.436 0-50.184 40.431-26.531 64.084l26.531 26.53 90.613 90.614 26.53 26.53c23.653 23.653 64.084 6.9 64.084-26.53v-25.895L475.8 353.369z" transform="translate(-282.863 -146.249)" style="fill:#3e3e3e"/>
        <path data-name="Path 7048" d="M218.83 108.724a31.046 31.046 0 0 0-31.043-31.043H63.497l25.893 25.894 103.577 103.576 25.894 25.894V108.724z"/>
    </g>
</svg>
