<svg xmlns="http://www.w3.org/2000/svg" width="20" height="20" viewBox="0 0 20 20">
    <path data-name="Path 7770" d="M0 0h20v20H0z" style="fill:none"/>
    <path data-name="Path 7771" d="M16 12.333V5.667A1.672 1.672 0 0 0 14.333 4H2.667A1.672 1.672 0 0 0 1 5.667v6.667A1.672 1.672 0 0 0 2.667 14h11.666A1.672 1.672 0 0 0 16 12.333zM8.5 11.5A2.5 2.5 0 1 1 11 9a2.5 2.5 0 0 1-2.5 2.5zm10.833-5v9.167a1.672 1.672 0 0 1-1.667 1.667H3.5v-1.667h14.167V6.5z" transform="translate(-.167 -.667)" style="fill:#544ec8"/>
</svg>
