<svg xmlns="http://www.w3.org/2000/svg" width="176" height="32.93" viewBox="0 0 176 32.93">
  <defs>
    <style>
      .cls-1 {
        fill: #23db7b;
      }

      .cls-2 {
        fill: #64dbff;
      }

      .cls-3 {
        fill: #00a551;
      }

      .cls-4 {
        fill: #383838;
      }

      .cls-5 {
        fill: #9099a5;
      }

      .cls-6 {
        fill: #202020;
      }
    </style>
  </defs>
  <g id="sprintMoney_tm" transform="translate(-3798.999 -3636)">
    <g id="sprint-money-logo" transform="translate(3798.999 3636)">
      <g id="Group_5416" data-name="Group 5416" transform="translate(0 0)">
        <g id="Group_5415" data-name="Group 5415" transform="translate(0 0)">
          <path id="Path_8763" data-name="Path 8763" class="cls-1" d="M11.484,3.786A3.284,3.284,0,0,0,8.2,7.071a3,3,0,0,0,.951,2.247l15.99,15.99a3.284,3.284,0,0,0,4.667,0,3.138,3.138,0,0,0,.951-2.247V7.33a3.652,3.652,0,0,0-3.63-3.63h0Z" transform="translate(-4.742 -3.7)"/>
          <g id="Group_5414" data-name="Group 5414" transform="translate(0 6.854)">
            <path id="Path_8764" data-name="Path 8764" class="cls-2" d="M12.065,5.247,9.818,3H7.571A3.358,3.358,0,0,0,4.2,6.284a3,3,0,0,0,.951,2.247l2.334,2.334,7.952,7.865,2.247,2.334a3.284,3.284,0,0,0,4.667,0A3.34,3.34,0,0,0,23.3,18.73h0V16.483l-2.247-2.247Z" transform="translate(-4.199 -3)"/>
            <path id="Path_8765" data-name="Path 8765" class="cls-3" d="M24.269,5.779A2.693,2.693,0,0,0,21.59,3.1H10.7l2.247,2.247,9.075,9.075,2.247,2.247Z" transform="translate(-5.082 -3.014)"/>
          </g>
        </g>
        <path id="Path_8766" data-name="Path 8766" class="cls-4" d="M42.342,19.018a4.055,4.055,0,0,1-1.642-3.2h4.062a1.431,1.431,0,0,0,.432,1.037,1.562,1.562,0,0,0,1.815.086.786.786,0,0,0,.346-.691,1.317,1.317,0,0,0-.519-.951,6.575,6.575,0,0,0-1.815-.691c-.691-.259-1.383-.519-2.161-.864a4.659,4.659,0,0,1-1.383-1.21,3.445,3.445,0,0,1-.605-2.074,5.133,5.133,0,0,1,.605-2.247,4.1,4.1,0,0,1,1.815-1.383A6.817,6.817,0,0,1,45.886,6.4a6.137,6.137,0,0,1,3.8,1.124,3.976,3.976,0,0,1,1.469,3.111H47.009a1.388,1.388,0,0,0-.432-.951,1.181,1.181,0,0,0-.951-.346,1.15,1.15,0,0,0-.691.259.717.717,0,0,0-.259.691.653.653,0,0,0,.346.605c.259.259.432.432.691.432a3.773,3.773,0,0,0,1.3.432c.691.259,1.383.519,2.161.864a4.659,4.659,0,0,1,1.383,1.21,3.19,3.19,0,0,1,.605,1.988,5.466,5.466,0,0,1-.605,2.247,4.062,4.062,0,0,1-1.729,1.469,5.716,5.716,0,0,1-2.679.519,6.2,6.2,0,0,1-3.8-1.037Z" transform="translate(-9.153 -4.066)"/>
        <path id="Path_8767" data-name="Path 8767" class="cls-4" d="M60.013,9.831a3.624,3.624,0,0,1,1.9-.432,4.347,4.347,0,0,1,2.334.691,4.408,4.408,0,0,1,1.642,1.9,7.475,7.475,0,0,1,0,5.791,7.207,7.207,0,0,1-1.642,1.988,3.716,3.716,0,0,1-2.334.691,5.058,5.058,0,0,1-1.9-.432,4.336,4.336,0,0,1-1.3-1.21v6.655H55V9.572h3.8v1.469A4.028,4.028,0,0,1,60.013,9.831Zm2.161,3.544a1.5,1.5,0,0,0-1.383-.519,2.04,2.04,0,0,0-1.383.605,1.911,1.911,0,0,0-.519,1.642,2.659,2.659,0,0,0,.519,1.642,1.907,1.907,0,0,0,2.679.086l.086-.086a1.911,1.911,0,0,0,.519-1.642,2.432,2.432,0,0,0-.519-1.729Z" transform="translate(-11.093 -4.473)"/>
        <path id="Path_8768" data-name="Path 8768" class="cls-4" d="M75.459,10.017A3.132,3.132,0,0,1,77.447,9.5v3.976H76.323a3.323,3.323,0,0,0-1.815.432,2.282,2.282,0,0,0-.6,1.642V20.3H70.1V9.585h3.8v1.9a4.235,4.235,0,0,1,1.556-1.469Z" transform="translate(-13.142 -4.486)"/>
        <path id="Path_8769" data-name="Path 8769" class="cls-4" d="M80.305,7.37a1.67,1.67,0,0,1-.605-1.3,2.04,2.04,0,0,1,.605-1.383A1.833,1.833,0,0,1,81.861,4a2.413,2.413,0,0,1,1.556.519A2.04,2.04,0,0,1,84.021,5.9a1.69,1.69,0,0,1-.605,1.3,2.364,2.364,0,0,1-3.111.173Zm3.457,1.469v10.8h-3.8V8.839Z" transform="translate(-14.445 -3.74)"/>
        <path id="Path_8770" data-name="Path 8770" class="cls-4" d="M96.939,10.7a4.835,4.835,0,0,1,1.124,3.371v6.309h-3.8V14.585a2.392,2.392,0,0,0-.432-1.383,1.631,1.631,0,0,0-1.3-.519,1.657,1.657,0,0,0-1.729,1.9v5.7H87V9.572h3.8v1.469a5.816,5.816,0,0,1,1.3-1.21A3.939,3.939,0,0,1,94.087,9.4a3.824,3.824,0,0,1,2.852,1.3Z" transform="translate(-15.436 -4.473)"/>
        <path id="Path_8771" data-name="Path 8771" class="cls-4" d="M108.487,16.712v3.2h-1.642c-2.766,0-4.062-1.3-4.149-4.062V12.3h-1.3V9.193h1.3V6.6h3.8V9.193h1.988V12.3H106.5v3.63a.785.785,0,0,0,.259.605.672.672,0,0,0,.691.173Z" transform="translate(-17.39 -4.094)"/>
        <path id="Path_8772" data-name="Path 8772" class="cls-4" d="M127.4,6.4V19.969h-3.8V12.45l-2.593,7.519H117.9L115.3,12.45v7.519h-3.8V6.4h4.581l3.371,8.816L122.736,6.4Z" transform="translate(-18.76 -4.066)"/>
        <path id="Path_8773" data-name="Path 8773" class="cls-4" d="M134.379,19.778a5.252,5.252,0,0,1-1.988-1.9,5.682,5.682,0,0,1-.691-2.939A6.685,6.685,0,0,1,132.391,12a4.927,4.927,0,0,1,2.074-1.9,6.791,6.791,0,0,1,5.791,0A5.5,5.5,0,0,1,142.33,12a5.576,5.576,0,0,1-2.074,7.779,6.684,6.684,0,0,1-2.939.691,5.888,5.888,0,0,1-2.939-.691Zm4.235-3.111a2.334,2.334,0,0,0,.519-1.642,2.216,2.216,0,0,0-.519-1.642,1.484,1.484,0,0,0-1.3-.519,2.433,2.433,0,0,0-1.3.519,2.334,2.334,0,0,0-.519,1.642,2.608,2.608,0,0,0,.432,1.642,1.484,1.484,0,0,0,1.3.519A1.963,1.963,0,0,0,138.614,16.667Z" transform="translate(-21.501 -4.48)"/>
        <path id="Path_8774" data-name="Path 8774" class="cls-4" d="M156.539,10.7a4.835,4.835,0,0,1,1.124,3.371v6.309h-3.8V14.585a2.392,2.392,0,0,0-.432-1.383,1.484,1.484,0,0,0-1.3-.519,1.631,1.631,0,0,0-1.3.519,2.612,2.612,0,0,0-.432,1.383v5.7h-3.8V9.572h3.8v1.469a5.817,5.817,0,0,1,1.3-1.21,3.94,3.94,0,0,1,1.988-.432,3.825,3.825,0,0,1,2.852,1.3Z" transform="translate(-23.524 -4.473)"/>
        <path id="Path_8775" data-name="Path 8775" class="cls-4" d="M171.86,15.689h-7.174a2.329,2.329,0,0,0,.432,1.3,1.431,1.431,0,0,0,1.124.432,1.416,1.416,0,0,0,1.3-.864h3.976a4.7,4.7,0,0,1-.951,1.988,3.919,3.919,0,0,1-1.815,1.3,5.732,5.732,0,0,1-2.42.432,6.316,6.316,0,0,1-2.852-.691,5.958,5.958,0,0,1-1.988-1.9,6.411,6.411,0,0,1,0-5.877,4.7,4.7,0,0,1,1.988-1.9,6.6,6.6,0,0,1,5.7,0,5.022,5.022,0,0,1,1.9,1.9,6.684,6.684,0,0,1,.691,2.939,1.929,1.929,0,0,1,.086.951Zm-3.716-1.815a1.82,1.82,0,0,0-.432-1.124,1.815,1.815,0,0,0-2.247,0,1.521,1.521,0,0,0-.519,1.124Z" transform="translate(-25.447 -4.453)"/>
        <path id="Path_8776" data-name="Path 8776" class="cls-4" d="M186.905,9.6l-6.828,15.9h-4.062l2.593-5.618L174.2,9.6h4.149l2.247,6.137L182.843,9.6Z" transform="translate(-27.269 -4.501)"/>
      </g>
      <g id="Group_5417" data-name="Group 5417" transform="translate(32.649 23.855)">
        <path id="Path_8777" data-name="Path 8777" class="cls-5" d="M259.364,276.862v2.593H258.5V272.8h2.42a2.743,2.743,0,0,1,1.729.519,1.78,1.78,0,0,1,.605,1.469,1.936,1.936,0,0,1-.6,1.469,3.153,3.153,0,0,1-1.729.519l-1.556.086Zm0-.778h1.556a1.594,1.594,0,0,0,1.124-.346,1.262,1.262,0,0,0,0-1.9,1.432,1.432,0,0,0-1.037-.432h-1.642v2.679Z" transform="translate(-258.5 -272.367)"/>
        <path id="Path_8778" data-name="Path 8778" class="cls-5" d="M264.8,277.206a2.247,2.247,0,0,1,.346-1.3,1.928,1.928,0,0,1,.778-.864,2.5,2.5,0,0,1,1.21-.346,2.08,2.08,0,0,1,1.642.691,2.653,2.653,0,0,1,.605,1.9v.086a2.247,2.247,0,0,1-.346,1.3,1.927,1.927,0,0,1-.778.864,2.5,2.5,0,0,1-1.21.346,2.081,2.081,0,0,1-1.642-.691A3.61,3.61,0,0,1,264.8,277.206Zm.864,0a1.946,1.946,0,0,0,.432,1.3,1.461,1.461,0,0,0,2.074,0,2.029,2.029,0,0,0,.432-1.383,1.946,1.946,0,0,0-.432-1.3,1.461,1.461,0,0,0-2.074,0A2.03,2.03,0,0,0,265.664,277.206Z" transform="translate(-259.355 -272.625)"/>
        <path id="Path_8779" data-name="Path 8779" class="cls-5" d="M275.727,278.5l.951-3.8h.864l-1.383,4.927h-.864l-1.21-3.8-1.21,3.8h-.691L270.8,274.7h.864l.951,3.716,1.21-3.716h.691Z" transform="translate(-260.169 -272.626)"/>
        <path id="Path_8780" data-name="Path 8780" class="cls-5" d="M281.646,279.786a2.366,2.366,0,0,1-1.642-.6,2.435,2.435,0,0,1-.6-1.815v-.173a2.247,2.247,0,0,1,.346-1.3,2.879,2.879,0,0,1,.778-.951,1.737,1.737,0,0,1,1.124-.346,1.936,1.936,0,0,1,1.469.6,2.836,2.836,0,0,1,.519,1.815v.432h-3.371a2.064,2.064,0,0,0,.432,1.21,1.163,1.163,0,0,0,1.037.432,2.066,2.066,0,0,0,.778-.173,1.365,1.365,0,0,0,.519-.432l.519.432a2.348,2.348,0,0,1-1.9.864Zm-.086-4.494a1.2,1.2,0,0,0-.864.432,1.431,1.431,0,0,0-.432,1.037h2.506v-.086a1.853,1.853,0,0,0-.346-1.037A1.11,1.11,0,0,0,281.559,275.291Z" transform="translate(-261.335 -272.612)"/>
        <path id="Path_8781" data-name="Path 8781" class="cls-5" d="M287.82,275.477h-.432a1.158,1.158,0,0,0-1.124.691v3.544H285.4v-4.927h.864v.519a1.4,1.4,0,0,1,1.21-.6.647.647,0,0,1,.432.086l-.086.691Z" transform="translate(-262.15 -272.625)"/>
        <path id="Path_8782" data-name="Path 8782" class="cls-5" d="M289.1,273.119a.449.449,0,0,1,.173-.346.519.519,0,1,1,0,.691A.449.449,0,0,1,289.1,273.119Zm.951,6.309h-.864V274.5h.864Z" transform="translate(-262.653 -272.341)"/>
        <path id="Path_8783" data-name="Path 8783" class="cls-5" d="M292.464,274.686v.605a1.979,1.979,0,0,1,1.469-.691q1.556,0,1.556,1.815V279.7h-.864v-3.284a.932.932,0,0,0-.259-.778,1.056,1.056,0,0,0-.778-.259.851.851,0,0,0-.691.259c-.173.173-.432.346-.432.519V279.7H291.6v-4.927l.864-.086Z" transform="translate(-262.992 -272.612)"/>
        <path id="Path_8784" data-name="Path 8784" class="cls-5" d="M297.6,277.193a3.285,3.285,0,0,1,.519-1.9,1.948,1.948,0,0,1,1.383-.691,1.741,1.741,0,0,1,1.383.605l.086-.519h.778v4.84a1.9,1.9,0,0,1-.519,1.469,2.255,2.255,0,0,1-1.556.519,2.054,2.054,0,0,1-1.037-.259,3.036,3.036,0,0,1-.778-.605l.432-.519a1.778,1.778,0,0,0,1.3.691,1.181,1.181,0,0,0,.951-.346,1.262,1.262,0,0,0,.346-1.037v-.432a1.612,1.612,0,0,1-1.383.605,1.8,1.8,0,0,1-1.383-.691A2.093,2.093,0,0,1,297.6,277.193Zm.864,0a1.931,1.931,0,0,0,.346,1.3,1.014,1.014,0,0,0,.951.432,1.383,1.383,0,0,0,1.21-.691v-2.247a1.284,1.284,0,0,0-1.21-.691,1.238,1.238,0,0,0-.951.432A2.085,2.085,0,0,0,298.46,277.193Z" transform="translate(-263.802 -272.612)"/>
        <path id="Path_8785" data-name="Path 8785" class="cls-5" d="M308.174,278.4l1.21-3.8h.951l-1.988,5.791c-.346.864-.778,1.3-1.469,1.3h-.173l-.346-.086v-.691h.259a1.339,1.339,0,0,0,.691-.173,1.1,1.1,0,0,0,.432-.605l.173-.432-1.815-4.927h.951Z" transform="translate(-264.959 -272.612)"/>
        <path id="Path_8786" data-name="Path 8786" class="cls-5" d="M311.4,277.206a2.247,2.247,0,0,1,.346-1.3,1.927,1.927,0,0,1,.778-.864,2.5,2.5,0,0,1,1.21-.346,2.08,2.08,0,0,1,1.642.691,2.653,2.653,0,0,1,.605,1.9v.086a2.247,2.247,0,0,1-.346,1.3,1.927,1.927,0,0,1-.778.864,2.5,2.5,0,0,1-1.21.346,2.08,2.08,0,0,1-1.642-.691A3.609,3.609,0,0,1,311.4,277.206Zm.864,0a1.946,1.946,0,0,0,.432,1.3,1.461,1.461,0,0,0,2.074,0,2.03,2.03,0,0,0,.432-1.383,1.946,1.946,0,0,0-.432-1.3,1.461,1.461,0,0,0-2.074,0A2.03,2.03,0,0,0,312.264,277.206Z" transform="translate(-265.678 -272.625)"/>
        <path id="Path_8787" data-name="Path 8787" class="cls-5" d="M321.011,279.208a1.636,1.636,0,0,1-1.469.519,1.71,1.71,0,0,1-1.21-.432,2.123,2.123,0,0,1-.432-1.3v-3.2h.864V278c0,.778.346,1.124.951,1.124a1.332,1.332,0,0,0,1.3-.691V274.8h.864v4.927H321.1Z" transform="translate(-266.561 -272.639)"/>
        <path id="Path_8788" data-name="Path 8788" class="cls-5" d="M326.32,275.477h-.432a1.158,1.158,0,0,0-1.124.691v3.544H323.9v-4.927h.864v.519a1.4,1.4,0,0,1,1.21-.6.647.647,0,0,1,.432.086l-.086.691Z" transform="translate(-267.375 -272.625)"/>
        <path id="Path_8789" data-name="Path 8789" class="cls-5" d="M334.217,276.43h-2.852v3.025H330.5V272.8h4.149v.691h-3.284v2.247h2.852v.691Z" transform="translate(-268.271 -272.368)"/>
        <path id="Path_8790" data-name="Path 8790" class="cls-5" d="M336.4,273.119a.449.449,0,0,1,.173-.346.519.519,0,1,1,0,.691A.449.449,0,0,1,336.4,273.119Zm.951,6.309h-.864V274.5h.864Z" transform="translate(-269.071 -272.341)"/>
        <path id="Path_8791" data-name="Path 8791" class="cls-5" d="M339.864,274.686v.605a1.978,1.978,0,0,1,1.469-.691q1.556,0,1.556,1.815V279.7h-.864v-3.284a.932.932,0,0,0-.259-.778,1.056,1.056,0,0,0-.778-.259.85.85,0,0,0-.691.259c-.173.173-.432.346-.432.519V279.7H339v-4.927Z" transform="translate(-269.424 -272.612)"/>
        <path id="Path_8792" data-name="Path 8792" class="cls-5" d="M348.2,279.7c-.086-.086-.086-.259-.173-.519a1.841,1.841,0,0,1-1.383.605,2.065,2.065,0,0,1-1.21-.432,1.163,1.163,0,0,1-.432-1.037,1.513,1.513,0,0,1,.605-1.21,2.864,2.864,0,0,1,1.642-.432h.864v-.432a.85.85,0,0,0-.259-.691,1.056,1.056,0,0,0-.778-.259,1.21,1.21,0,0,0-.778.259.625.625,0,0,0-.346.519h-.864a1.149,1.149,0,0,1,.259-.691,1.344,1.344,0,0,1,.691-.519,2.053,2.053,0,0,1,1.037-.259,1.945,1.945,0,0,1,1.3.432,1.71,1.71,0,0,1,.432,1.21v2.247a4.382,4.382,0,0,0,.173,1.124v.086Zm-1.469-.691a1.4,1.4,0,0,0,.778-.259,1.47,1.47,0,0,0,.519-.519v-1.037h-.605c-1.037,0-1.556.346-1.556.951a.785.785,0,0,0,.259.605C346.3,279.008,346.468,279.008,346.728,279.008Z" transform="translate(-270.237 -272.612)"/>
        <path id="Path_8793" data-name="Path 8793" class="cls-5" d="M351.864,274.686v.605a1.978,1.978,0,0,1,1.469-.691q1.556,0,1.556,1.815V279.7h-.864v-3.284a.932.932,0,0,0-.259-.778,1.056,1.056,0,0,0-.778-.259.851.851,0,0,0-.691.259c-.173.173-.432.346-.432.519V279.7H351v-4.927l.864-.086Z" transform="translate(-271.053 -272.612)"/>
        <path id="Path_8794" data-name="Path 8794" class="cls-5" d="M359.046,278.967a.939.939,0,0,0,.778-.346,1.529,1.529,0,0,0,.432-.691h.778a.939.939,0,0,1-.346.778,4.332,4.332,0,0,1-.691.6,1.97,1.97,0,0,1-.951.259,2.213,2.213,0,0,1-1.642-.691,2.653,2.653,0,0,1-.6-1.9v-.173a3.157,3.157,0,0,1,.259-1.3,1.892,1.892,0,0,1,.778-.864,2.5,2.5,0,0,1,1.21-.346,2.391,2.391,0,0,1,1.383.432,1.838,1.838,0,0,1,.605,1.3h-.778c0-.346-.173-.519-.432-.778a.939.939,0,0,0-.778-.346,1.431,1.431,0,0,0-1.037.432,1.945,1.945,0,0,0-.432,1.3v.173a1.945,1.945,0,0,0,.432,1.3C358.268,278.362,358.614,278.967,359.046,278.967Z" transform="translate(-271.838 -272.571)"/>
        <path id="Path_8795" data-name="Path 8795" class="cls-5" d="M362.8,273.119a.449.449,0,0,1,.173-.346.519.519,0,1,1,0,.691.449.449,0,0,1-.173-.346Zm.951,6.309h-.864V274.5h.864Z" transform="translate(-272.654 -272.341)"/>
        <path id="Path_8796" data-name="Path 8796" class="cls-5" d="M368.5,279.7c-.086-.086-.086-.259-.173-.519a1.841,1.841,0,0,1-1.383.605,2.065,2.065,0,0,1-1.21-.432,1.163,1.163,0,0,1-.432-1.037,1.513,1.513,0,0,1,.605-1.21,3.074,3.074,0,0,1,1.642-.432h.864v-.432a.85.85,0,0,0-.259-.691,1.056,1.056,0,0,0-.778-.259,1.21,1.21,0,0,0-.778.259.625.625,0,0,0-.346.519h-.864a1.149,1.149,0,0,1,.259-.691,1.344,1.344,0,0,1,.691-.519,2.053,2.053,0,0,1,1.037-.259,1.945,1.945,0,0,1,1.3.432,1.709,1.709,0,0,1,.432,1.21v2.247a4.379,4.379,0,0,0,.173,1.124v.086Zm-1.383-.691a1.394,1.394,0,0,0,.778-.259,1.47,1.47,0,0,0,.519-.519v-1.037h-.691c-1.037,0-1.556.346-1.556.951a.785.785,0,0,0,.259.605C366.509,279.008,366.855,279.008,367.114,279.008Z" transform="translate(-272.992 -272.612)"/>
        <path id="Path_8797" data-name="Path 8797" class="cls-5" d="M372.364,279.387H371.5V272.3h.864Z" transform="translate(-273.834 -272.3)"/>
        <path id="Path_8798" data-name="Path 8798" class="cls-5" d="M380.617,276.43h-2.852v3.025H376.9V272.8h4.149v.691h-3.284v2.247h2.852v.691Z" transform="translate(-274.567 -272.368)"/>
        <path id="Path_8799" data-name="Path 8799" class="cls-5" d="M385.106,275.477h-.432a1.158,1.158,0,0,0-1.124.691v3.544H382.6v-4.927h.864v.519a1.4,1.4,0,0,1,1.21-.6.647.647,0,0,1,.432.086Z" transform="translate(-275.341 -272.625)"/>
        <path id="Path_8800" data-name="Path 8800" class="cls-5" d="M388.346,279.786a2.366,2.366,0,0,1-1.642-.605,2.435,2.435,0,0,1-.6-1.815v-.173a2.247,2.247,0,0,1,.346-1.3,2.879,2.879,0,0,1,.778-.951,1.737,1.737,0,0,1,1.124-.346,1.936,1.936,0,0,1,1.469.6,2.836,2.836,0,0,1,.519,1.815v.432h-3.457a2.064,2.064,0,0,0,.432,1.21,1.163,1.163,0,0,0,1.037.432,2.066,2.066,0,0,0,.778-.173,1.365,1.365,0,0,0,.519-.432l.519.432A2.3,2.3,0,0,1,388.346,279.786Zm-.086-4.494a1.2,1.2,0,0,0-.864.432,1.431,1.431,0,0,0-.432,1.037h2.506v-.086a1.854,1.854,0,0,0-.346-1.037,1,1,0,0,0-.864-.346Z" transform="translate(-275.814 -272.612)"/>
        <path id="Path_8801" data-name="Path 8801" class="cls-5" d="M394.046,279.786a2.366,2.366,0,0,1-1.642-.605,2.435,2.435,0,0,1-.605-1.815v-.173a2.248,2.248,0,0,1,.346-1.3,2.879,2.879,0,0,1,.778-.951,1.737,1.737,0,0,1,1.124-.346,1.936,1.936,0,0,1,1.469.6,2.836,2.836,0,0,1,.519,1.815v.432h-3.371a2.065,2.065,0,0,0,.432,1.21,1.163,1.163,0,0,0,1.037.432,2.066,2.066,0,0,0,.778-.173,1.365,1.365,0,0,0,.519-.432l.519.432A2.231,2.231,0,0,1,394.046,279.786Zm-.086-4.494a1.2,1.2,0,0,0-.864.432,1.431,1.431,0,0,0-.432,1.037h2.506v-.086a1.853,1.853,0,0,0-.346-1.037.91.91,0,0,0-.864-.346Z" transform="translate(-276.588 -272.612)"/>
        <path id="Path_8802" data-name="Path 8802" class="cls-5" d="M397.6,276.894a2.835,2.835,0,0,1,.519-1.815,1.948,1.948,0,0,1,1.383-.691,2.04,2.04,0,0,1,1.383.605V272.4h.864v7.087h-.778l-.086-.519a1.612,1.612,0,0,1-1.383.605,1.8,1.8,0,0,1-1.383-.691,3.581,3.581,0,0,1-.519-1.988Zm.864,0a1.932,1.932,0,0,0,.346,1.3,1.014,1.014,0,0,0,.951.432,1.383,1.383,0,0,0,1.21-.691v-2.247a1.284,1.284,0,0,0-1.21-.691,1.239,1.239,0,0,0-.951.432,2.648,2.648,0,0,0-.346,1.469Z" transform="translate(-277.375 -272.314)"/>
        <path id="Path_8803" data-name="Path 8803" class="cls-5" d="M403.8,277.206a2.247,2.247,0,0,1,.346-1.3,1.927,1.927,0,0,1,.778-.864,2.5,2.5,0,0,1,1.21-.346,2.08,2.08,0,0,1,1.642.691,2.652,2.652,0,0,1,.605,1.9v.086a2.247,2.247,0,0,1-.346,1.3,1.927,1.927,0,0,1-.778.864,2.5,2.5,0,0,1-1.21.346,2.08,2.08,0,0,1-1.642-.691A3.609,3.609,0,0,1,403.8,277.206Zm.778,0a1.946,1.946,0,0,0,.432,1.3,1.163,1.163,0,0,0,1.037.432,1.431,1.431,0,0,0,1.037-.432,2.2,2.2,0,0,0,.432-1.383,1.946,1.946,0,0,0-.432-1.3,1.163,1.163,0,0,0-1.037-.432,1.431,1.431,0,0,0-1.037.432,2.2,2.2,0,0,0-.432,1.383Z" transform="translate(-278.217 -272.625)"/>
        <path id="Path_8804" data-name="Path 8804" class="cls-5" d="M411.024,274.685v.519a1.9,1.9,0,0,1,1.469-.605,1.312,1.312,0,0,1,1.383.778,1.62,1.62,0,0,1,.605-.519,2.506,2.506,0,0,1,.951-.259c1.124,0,1.642.519,1.642,1.729v3.284h-.864v-3.284a.932.932,0,0,0-.259-.778,1.056,1.056,0,0,0-.778-.259.939.939,0,0,0-.778.346,1.4,1.4,0,0,0-.432.778V279.7H413.1v-3.284a1.044,1.044,0,0,0-1.124-1.124,1.383,1.383,0,0,0-1.21.691v3.63H409.9v-4.926Z" transform="translate(-279.045 -272.61)"/>
      </g>
    </g>
    <path id="Path_8805" data-name="Path 8805" class="cls-6" d="M11.884-8.416h-.912V-12.45h-.034L9.089-8.416h-.5L6.785-12.45H6.756v4.035H5.891V-14H6.963l1.9,4.187H8.9L10.818-14h1.063Zm-6.7-4.761H3.418v4.761H2.481v-4.761H.742V-14h4.44Z" transform="translate(3963.116 3651.729)"/>
  </g>
</svg>
