<svg xmlns="http://www.w3.org/2000/svg" width="16" height="16" viewBox="0 0 16 16">
    <path data-name="Rectangle 2979" style="fill:none" d="M0 0h16v16H0z"/>
    <path data-name="Path 5868" d="m10.993 8.149-.98-3.227a.664.664 0 0 0-1.273 0l-.987 3.227H4.787A.666.666 0 0 0 4.4 9.356l2.427 1.733-.953 3.073a.666.666 0 0 0 1.04.727l2.46-1.867 2.46 1.873a.666.666 0 0 0 1.04-.727L11.92 11.1l2.427-1.733a.665.665 0 0 0-.387-1.207h-2.967z" transform="translate(-1.373 -1.483)" style="fill:#fff"/>
</svg>
