<svg data-name="warning-24px (1)" xmlns="http://www.w3.org/2000/svg" width="48" height="48" viewBox="0 0 48 48">
    <path data-name="Path 8130" d="M0 0h48v48H0z" style="fill:none"/>
    <g data-name="Group 6295">
        <path data-name="Path 9908" d="M29.307 13.037V8.148A5.648 5.648 0 0 0 23.659 2.5H8.148A5.648 5.648 0 0 0 2.5 8.148v15.469a5.648 5.648 0 0 0 5.648 5.648H13a14.792 14.792 0 1 0 16.307-16.228zM5.619 23.617V8.148A2.581 2.581 0 0 1 8.19 5.577h15.469a2.581 2.581 0 0 1 2.571 2.571V13a14.8 14.8 0 0 0-13.151 13.146H8.148a2.484 2.484 0 0 1-2.529-2.529zm22.128 15.806a11.675 11.675 0 1 1 11.676-11.676 11.674 11.674 0 0 1-11.676 11.676z" transform="translate(3.034 1.5)" style="fill:#544ec8"/>
        <path data-name="Path 9909" d="M65.613 49.5h-3.794v-5.14a1.56 1.56 0 0 0-3.119 0v6.7a1.584 1.584 0 0 0 1.56 1.56h5.353a1.56 1.56 0 0 0 0-3.119z" transform="translate(-29.478 -21.814)" style="fill:#544ec8"/>
    </g>
</svg>
